<?xml version="1.0" encoding="UTF-8" standalone="no"?>
<!DOCTYPE svg PUBLIC "-//W3C//DTD SVG 1.1//EN" "http://www.w3.org/Graphics/SVG/1.1/DTD/svg11.dtd">
<svg width="100%" height="100%" viewBox="0 0 64 64" version="1.1" xmlns="http://www.w3.org/2000/svg" xmlns:xlink="http://www.w3.org/1999/xlink" xml:space="preserve" xmlns:serif="http://www.serif.com/" style="fill-rule:evenodd;clip-rule:evenodd;stroke-linejoin:round;stroke-miterlimit:2;">
    <rect id="_12" serif:id="12" x="0" y="0" width="64" height="64" style="fill:none;"/>
    <g id="icon-base" serif:id="icon base">
        <path d="M0,25.6c0,-8.961 0,-13.441 1.744,-16.864c1.534,-3.011 3.982,-5.458 6.992,-6.992c3.423,-1.744 7.903,-1.744 16.864,-1.744l12.8,0c8.961,0 13.441,0 16.864,1.744c3.011,1.534 5.458,3.982 6.992,6.992c1.744,3.423 1.744,7.903 1.744,16.864l0,12.8c0,8.961 0,13.441 -1.744,16.864c-1.534,3.011 -3.982,5.458 -6.992,6.992c-3.423,1.744 -7.903,1.744 -16.864,1.744l-12.8,0c-8.961,0 -13.441,0 -16.864,-1.744c-3.011,-1.534 -5.458,-3.982 -6.992,-6.992c-1.744,-3.423 -1.744,-7.903 -1.744,-16.864l0,-12.8Z" style="fill:#fff;fill-opacity:0.96;fill-rule:nonzero;"/>
        <path d="M0,25.6c0,-8.961 0,-13.441 1.744,-16.864c1.534,-3.011 3.982,-5.458 6.992,-6.992c3.423,-1.744 7.903,-1.744 16.864,-1.744l12.8,0c8.961,0 13.441,0 16.864,1.744c3.011,1.534 5.458,3.982 6.992,6.992c1.744,3.423 1.744,7.903 1.744,16.864l0,12.8c0,8.961 0,13.441 -1.744,16.864c-1.534,3.011 -3.982,5.458 -6.992,6.992c-3.423,1.744 -7.903,1.744 -16.864,1.744l-12.8,0c-8.961,0 -13.441,0 -16.864,-1.744c-3.011,-1.534 -5.458,-3.982 -6.992,-6.992c-1.744,-3.423 -1.744,-7.903 -1.744,-16.864l0,-12.8Z" style="fill:url(#_Radial1);fill-rule:nonzero;"/>
        <path d="M0,25.6c0,-8.961 0,-13.441 1.744,-16.864c1.534,-3.011 3.982,-5.458 6.992,-6.992c3.423,-1.744 7.903,-1.744 16.864,-1.744l12.8,0c8.961,0 13.441,0 16.864,1.744c3.011,1.534 5.458,3.982 6.992,6.992c1.744,3.423 1.744,7.903 1.744,16.864l0,12.8c0,8.961 0,13.441 -1.744,16.864c-1.534,3.011 -3.982,5.458 -6.992,6.992c-3.423,1.744 -7.903,1.744 -16.864,1.744l-12.8,0c-8.961,0 -13.441,0 -16.864,-1.744c-3.011,-1.534 -5.458,-3.982 -6.992,-6.992c-1.744,-3.423 -1.744,-7.903 -1.744,-16.864l0,-12.8Zm2,0l0,12.8c0,8.472 -0.123,12.72 1.526,15.956c1.342,2.634 3.484,4.776 6.118,6.118c3.236,1.649 7.484,1.526 15.956,1.526l12.8,0c8.472,0 12.72,0.123 15.956,-1.526c2.634,-1.342 4.776,-3.484 6.118,-6.118c1.649,-3.236 1.526,-7.484 1.526,-15.956l0,-12.8c0,-8.472 0.123,-12.72 -1.526,-15.956c-1.342,-2.634 -3.484,-4.776 -6.118,-6.118c-3.236,-1.649 -7.484,-1.526 -15.956,-1.526l-12.8,0c-8.472,0 -12.72,-0.123 -15.956,1.526c-2.634,1.342 -4.776,3.484 -6.118,6.118c-1.649,3.236 -1.526,7.484 -1.526,15.956Z" style="fill:url(#_Radial2);"/>
    </g>
    <g id="reference-grid" serif:id="reference grid">
        <g transform="matrix(4.883489,0,0,4.883489,-70.467248,-17.112962)">
            <g>
                <g transform="matrix(10.648125,0,0,10.648125,15.534341,13.946403)">
                    <path d="M0.378,-0l-0.143,-0l0,-0.488l-0.167,0l0,-0.095c0.044,-0.002 0.075,-0.005 0.092,-0.009c0.028,-0.006 0.051,-0.019 0.068,-0.037c0.012,-0.013 0.021,-0.03 0.027,-0.051c0.004,-0.013 0.005,-0.022 0.005,-0.028l0.116,0l0,0.708Z" style="fill:#fff;fill-rule:nonzero;"/>
                </g>
                <g transform="matrix(10.648125,0,0,10.648125,19.859102,13.946403)">
                    <path d="M0.348,-0.564c-0.017,-0.02 -0.04,-0.03 -0.071,-0.03c-0.042,0 -0.071,0.016 -0.086,0.047c-0.009,0.018 -0.014,0.047 -0.016,0.087l-0.135,0c0.002,-0.06 0.013,-0.109 0.033,-0.146c0.037,-0.071 0.103,-0.106 0.198,-0.106c0.075,0 0.134,0.021 0.179,0.062c0.044,0.042 0.066,0.096 0.066,0.165c0,0.052 -0.016,0.099 -0.047,0.14c-0.021,0.027 -0.054,0.057 -0.101,0.09l-0.056,0.04c-0.035,0.025 -0.059,0.043 -0.072,0.054c-0.013,0.011 -0.024,0.024 -0.032,0.039l0.309,0l0,0.123l-0.485,-0c0.001,-0.051 0.012,-0.097 0.033,-0.139c0.02,-0.047 0.067,-0.097 0.141,-0.15c0.064,-0.046 0.106,-0.079 0.125,-0.099c0.029,-0.031 0.043,-0.065 0.043,-0.102c0,-0.03 -0.008,-0.055 -0.025,-0.075Z" style="fill:#fff;fill-rule:nonzero;"/>
                </g>
            </g>
        </g>
    </g>
    <defs>
        <radialGradient id="_Radial1" cx="0" cy="0" r="1" gradientUnits="userSpaceOnUse" gradientTransform="matrix(58,-46,46,58,8,48)"><stop offset="0" style="stop-color:#2472f0;stop-opacity:0.95"/><stop offset="0.69" style="stop-color:#2472f0;stop-opacity:0.75"/><stop offset="1" style="stop-color:#2472f0;stop-opacity:0.95"/></radialGradient>
        <radialGradient id="_Radial2" cx="0" cy="0" r="1" gradientUnits="userSpaceOnUse" gradientTransform="matrix(48,61,-61,48,20,8)"><stop offset="0" style="stop-color:#fff;stop-opacity:0.89"/><stop offset="0.07" style="stop-color:#a0c2f8;stop-opacity:0.93"/><stop offset="0.15" style="stop-color:#4889f2;stop-opacity:0.98"/><stop offset="0.4" style="stop-color:#2472f0;stop-opacity:1"/><stop offset="0.79" style="stop-color:#4486f2;stop-opacity:1"/><stop offset="0.9" style="stop-color:#9abdf8;stop-opacity:1"/><stop offset="1" style="stop-color:#fff;stop-opacity:1"/></radialGradient>
    </defs>
</svg>
