<?xml version="1.0" encoding="UTF-8" standalone="no"?>
<!DOCTYPE svg PUBLIC "-//W3C//DTD SVG 1.1//EN" "http://www.w3.org/Graphics/SVG/1.1/DTD/svg11.dtd">
<svg width="100%" height="100%" viewBox="0 0 64 64" version="1.1" xmlns="http://www.w3.org/2000/svg" xmlns:xlink="http://www.w3.org/1999/xlink" xml:space="preserve" xmlns:serif="http://www.serif.com/" style="fill-rule:evenodd;clip-rule:evenodd;stroke-linejoin:round;stroke-miterlimit:2;">
    <rect id="_16" serif:id="16" x="0" y="0" width="64" height="64" style="fill:none;"/>
    <g id="icon-base" serif:id="icon base">
        <path d="M0,25.6c0,-8.961 0,-13.441 1.744,-16.864c1.534,-3.011 3.982,-5.458 6.992,-6.992c3.423,-1.744 7.903,-1.744 16.864,-1.744l12.8,0c8.961,0 13.441,0 16.864,1.744c3.011,1.534 5.458,3.982 6.992,6.992c1.744,3.423 1.744,7.903 1.744,16.864l0,12.8c0,8.961 0,13.441 -1.744,16.864c-1.534,3.011 -3.982,5.458 -6.992,6.992c-3.423,1.744 -7.903,1.744 -16.864,1.744l-12.8,0c-8.961,0 -13.441,0 -16.864,-1.744c-3.011,-1.534 -5.458,-3.982 -6.992,-6.992c-1.744,-3.423 -1.744,-7.903 -1.744,-16.864l0,-12.8Z" style="fill:#fff;fill-opacity:0.96;fill-rule:nonzero;"/>
        <path d="M0,25.6c0,-8.961 0,-13.441 1.744,-16.864c1.534,-3.011 3.982,-5.458 6.992,-6.992c3.423,-1.744 7.903,-1.744 16.864,-1.744l12.8,0c8.961,0 13.441,0 16.864,1.744c3.011,1.534 5.458,3.982 6.992,6.992c1.744,3.423 1.744,7.903 1.744,16.864l0,12.8c0,8.961 0,13.441 -1.744,16.864c-1.534,3.011 -3.982,5.458 -6.992,6.992c-3.423,1.744 -7.903,1.744 -16.864,1.744l-12.8,0c-8.961,0 -13.441,0 -16.864,-1.744c-3.011,-1.534 -5.458,-3.982 -6.992,-6.992c-1.744,-3.423 -1.744,-7.903 -1.744,-16.864l0,-12.8Z" style="fill:url(#_Radial1);fill-rule:nonzero;"/>
        <path d="M0,25.6c0,-8.961 0,-13.441 1.744,-16.864c1.534,-3.011 3.982,-5.458 6.992,-6.992c3.423,-1.744 7.903,-1.744 16.864,-1.744l12.8,0c8.961,0 13.441,0 16.864,1.744c3.011,1.534 5.458,3.982 6.992,6.992c1.744,3.423 1.744,7.903 1.744,16.864l0,12.8c0,8.961 0,13.441 -1.744,16.864c-1.534,3.011 -3.982,5.458 -6.992,6.992c-3.423,1.744 -7.903,1.744 -16.864,1.744l-12.8,0c-8.961,0 -13.441,0 -16.864,-1.744c-3.011,-1.534 -5.458,-3.982 -6.992,-6.992c-1.744,-3.423 -1.744,-7.903 -1.744,-16.864l0,-12.8Zm2,0l0,12.8c0,8.472 -0.123,12.72 1.526,15.956c1.342,2.634 3.484,4.776 6.118,6.118c3.236,1.649 7.484,1.526 15.956,1.526l12.8,0c8.472,0 12.72,0.123 15.956,-1.526c2.634,-1.342 4.776,-3.484 6.118,-6.118c1.649,-3.236 1.526,-7.484 1.526,-15.956l0,-12.8c0,-8.472 0.123,-12.72 -1.526,-15.956c-1.342,-2.634 -3.484,-4.776 -6.118,-6.118c-3.236,-1.649 -7.484,-1.526 -15.956,-1.526l-12.8,0c-8.472,0 -12.72,-0.123 -15.956,1.526c-2.634,1.342 -4.776,3.484 -6.118,6.118c-1.649,3.236 -1.526,7.484 -1.526,15.956Z" style="fill:url(#_Radial2);"/>
    </g>
    <g id="reference-grid" serif:id="reference grid">
        <g transform="matrix(4.883489,0,0,4.883489,-70.467248,-16.935228)">
            <g>
                <g transform="matrix(10.648125,0,0,10.648125,15.534341,13.946403)">
                    <path d="M0.378,-0l-0.143,-0l0,-0.488l-0.167,0l0,-0.095c0.044,-0.002 0.075,-0.005 0.092,-0.009c0.028,-0.006 0.051,-0.019 0.068,-0.037c0.012,-0.013 0.021,-0.03 0.027,-0.051c0.004,-0.013 0.005,-0.022 0.005,-0.028l0.116,0l0,0.708Z" style="fill:#fff;fill-rule:nonzero;"/>
                </g>
                <g transform="matrix(10.648125,0,0,10.648125,19.859102,13.946403)">
                    <path d="M0.306,-0.459c0.063,0 0.114,0.021 0.155,0.064c0.04,0.043 0.06,0.097 0.06,0.164c0,0.066 -0.02,0.124 -0.059,0.175c-0.039,0.05 -0.101,0.076 -0.184,0.076c-0.089,0 -0.155,-0.037 -0.197,-0.112c-0.033,-0.058 -0.049,-0.133 -0.049,-0.226c0,-0.054 0.002,-0.098 0.007,-0.132c0.008,-0.06 0.024,-0.11 0.047,-0.15c0.02,-0.034 0.047,-0.062 0.079,-0.083c0.033,-0.021 0.072,-0.031 0.117,-0.031c0.066,0 0.118,0.017 0.157,0.051c0.039,0.034 0.061,0.079 0.066,0.135l-0.139,0c0,-0.011 -0.004,-0.024 -0.013,-0.038c-0.015,-0.022 -0.038,-0.033 -0.068,-0.033c-0.045,0 -0.077,0.025 -0.097,0.076c-0.01,0.028 -0.018,0.069 -0.021,0.124c0.017,-0.021 0.037,-0.035 0.06,-0.045c0.023,-0.009 0.049,-0.014 0.078,-0.014Zm-0.094,0.133c-0.027,0.021 -0.041,0.055 -0.041,0.103c0,0.038 0.01,0.069 0.031,0.093c0.021,0.024 0.047,0.036 0.078,0.036c0.031,0 0.055,-0.012 0.073,-0.035c0.018,-0.023 0.027,-0.053 0.027,-0.091c0,-0.041 -0.01,-0.073 -0.03,-0.095c-0.02,-0.022 -0.045,-0.033 -0.074,-0.033c-0.024,0 -0.045,0.007 -0.063,0.021Z" style="fill:#fff;fill-rule:nonzero;"/>
                </g>
            </g>
        </g>
    </g>
    <defs>
        <radialGradient id="_Radial1" cx="0" cy="0" r="1" gradientUnits="userSpaceOnUse" gradientTransform="matrix(58,-46,46,58,8,48)"><stop offset="0" style="stop-color:#2472f0;stop-opacity:0.95"/><stop offset="0.69" style="stop-color:#2472f0;stop-opacity:0.75"/><stop offset="1" style="stop-color:#2472f0;stop-opacity:0.95"/></radialGradient>
        <radialGradient id="_Radial2" cx="0" cy="0" r="1" gradientUnits="userSpaceOnUse" gradientTransform="matrix(48,61,-61,48,20,8)"><stop offset="0" style="stop-color:#fff;stop-opacity:0.89"/><stop offset="0.07" style="stop-color:#a0c2f8;stop-opacity:0.93"/><stop offset="0.15" style="stop-color:#4889f2;stop-opacity:0.98"/><stop offset="0.4" style="stop-color:#2472f0;stop-opacity:1"/><stop offset="0.79" style="stop-color:#4486f2;stop-opacity:1"/><stop offset="0.9" style="stop-color:#9abdf8;stop-opacity:1"/><stop offset="1" style="stop-color:#fff;stop-opacity:1"/></radialGradient>
    </defs>
</svg>
