<?xml version="1.0" encoding="UTF-8" standalone="no"?>
<!DOCTYPE svg PUBLIC "-//W3C//DTD SVG 1.1//EN" "http://www.w3.org/Graphics/SVG/1.1/DTD/svg11.dtd">
<svg width="100%" height="100%" viewBox="0 0 64 64" version="1.1" xmlns="http://www.w3.org/2000/svg" xmlns:xlink="http://www.w3.org/1999/xlink" xml:space="preserve" xmlns:serif="http://www.serif.com/" style="fill-rule:evenodd;clip-rule:evenodd;stroke-linejoin:round;stroke-miterlimit:2;">
    <rect id="_18" serif:id="18" x="0" y="0" width="64" height="64" style="fill:none;"/>
    <g id="icon-base" serif:id="icon base">
        <path d="M0,25.6c0,-8.961 0,-13.441 1.744,-16.864c1.534,-3.011 3.982,-5.458 6.992,-6.992c3.423,-1.744 7.903,-1.744 16.864,-1.744l12.8,0c8.961,0 13.441,0 16.864,1.744c3.011,1.534 5.458,3.982 6.992,6.992c1.744,3.423 1.744,7.903 1.744,16.864l0,12.8c0,8.961 0,13.441 -1.744,16.864c-1.534,3.011 -3.982,5.458 -6.992,6.992c-3.423,1.744 -7.903,1.744 -16.864,1.744l-12.8,0c-8.961,0 -13.441,0 -16.864,-1.744c-3.011,-1.534 -5.458,-3.982 -6.992,-6.992c-1.744,-3.423 -1.744,-7.903 -1.744,-16.864l0,-12.8Z" style="fill:#fff;fill-opacity:0.96;fill-rule:nonzero;"/>
        <path d="M0,25.6c0,-8.961 0,-13.441 1.744,-16.864c1.534,-3.011 3.982,-5.458 6.992,-6.992c3.423,-1.744 7.903,-1.744 16.864,-1.744l12.8,0c8.961,0 13.441,0 16.864,1.744c3.011,1.534 5.458,3.982 6.992,6.992c1.744,3.423 1.744,7.903 1.744,16.864l0,12.8c0,8.961 0,13.441 -1.744,16.864c-1.534,3.011 -3.982,5.458 -6.992,6.992c-3.423,1.744 -7.903,1.744 -16.864,1.744l-12.8,0c-8.961,0 -13.441,0 -16.864,-1.744c-3.011,-1.534 -5.458,-3.982 -6.992,-6.992c-1.744,-3.423 -1.744,-7.903 -1.744,-16.864l0,-12.8Z" style="fill:url(#_Radial1);fill-rule:nonzero;"/>
        <path d="M0,25.6c0,-8.961 0,-13.441 1.744,-16.864c1.534,-3.011 3.982,-5.458 6.992,-6.992c3.423,-1.744 7.903,-1.744 16.864,-1.744l12.8,0c8.961,0 13.441,0 16.864,1.744c3.011,1.534 5.458,3.982 6.992,6.992c1.744,3.423 1.744,7.903 1.744,16.864l0,12.8c0,8.961 0,13.441 -1.744,16.864c-1.534,3.011 -3.982,5.458 -6.992,6.992c-3.423,1.744 -7.903,1.744 -16.864,1.744l-12.8,0c-8.961,0 -13.441,0 -16.864,-1.744c-3.011,-1.534 -5.458,-3.982 -6.992,-6.992c-1.744,-3.423 -1.744,-7.903 -1.744,-16.864l0,-12.8Zm2,0l0,12.8c0,8.472 -0.123,12.72 1.526,15.956c1.342,2.634 3.484,4.776 6.118,6.118c3.236,1.649 7.484,1.526 15.956,1.526l12.8,0c8.472,0 12.72,0.123 15.956,-1.526c2.634,-1.342 4.776,-3.484 6.118,-6.118c1.649,-3.236 1.526,-7.484 1.526,-15.956l0,-12.8c0,-8.472 0.123,-12.72 -1.526,-15.956c-1.342,-2.634 -3.484,-4.776 -6.118,-6.118c-3.236,-1.649 -7.484,-1.526 -15.956,-1.526l-12.8,0c-8.472,0 -12.72,-0.123 -15.956,1.526c-2.634,1.342 -4.776,3.484 -6.118,6.118c-1.649,3.236 -1.526,7.484 -1.526,15.956Z" style="fill:url(#_Radial2);"/>
    </g>
    <g id="reference-grid" serif:id="reference grid">
        <g transform="matrix(4.883489,0,0,4.883489,-70.467248,-17.112962)">
            <g>
                <g transform="matrix(10.648125,0,0,10.648125,15.534341,13.946403)">
                    <path d="M0.378,-0l-0.143,-0l0,-0.488l-0.167,0l0,-0.095c0.044,-0.002 0.075,-0.005 0.092,-0.009c0.028,-0.006 0.051,-0.019 0.068,-0.037c0.012,-0.013 0.021,-0.03 0.027,-0.051c0.004,-0.013 0.005,-0.022 0.005,-0.028l0.116,0l0,0.708Z" style="fill:#fff;fill-rule:nonzero;"/>
                </g>
                <g transform="matrix(10.648125,0,0,10.648125,19.859102,13.946403)">
                    <path d="M0.087,-0.044c-0.041,-0.042 -0.061,-0.092 -0.061,-0.152c0,-0.04 0.009,-0.076 0.027,-0.108c0.018,-0.032 0.045,-0.056 0.079,-0.073c-0.034,-0.023 -0.056,-0.047 -0.067,-0.074c-0.01,-0.027 -0.015,-0.051 -0.015,-0.074c0,-0.051 0.019,-0.095 0.058,-0.132c0.039,-0.036 0.093,-0.054 0.164,-0.054c0.071,0 0.125,0.018 0.164,0.054c0.039,0.036 0.058,0.08 0.058,0.132c0,0.023 -0.005,0.048 -0.015,0.074c-0.01,0.027 -0.032,0.05 -0.067,0.069c0.035,0.02 0.061,0.045 0.079,0.078c0.018,0.032 0.026,0.068 0.026,0.108c0,0.06 -0.022,0.11 -0.066,0.152c-0.044,0.042 -0.106,0.063 -0.185,0.063c-0.079,0 -0.139,-0.021 -0.18,-0.063Zm0.083,-0.161c0,0.035 0.009,0.062 0.027,0.081c0.018,0.019 0.043,0.029 0.075,0.029c0.032,0 0.057,-0.01 0.075,-0.029c0.018,-0.019 0.027,-0.046 0.027,-0.081c0,-0.036 -0.009,-0.064 -0.028,-0.082c-0.018,-0.019 -0.043,-0.028 -0.074,-0.028c-0.031,0 -0.056,0.009 -0.074,0.028c-0.018,0.019 -0.028,0.046 -0.028,0.082Zm0.037,-0.241c0.016,0.016 0.037,0.024 0.065,0.024c0.028,0 0.05,-0.008 0.066,-0.024c0.015,-0.016 0.023,-0.037 0.023,-0.063c0,-0.028 -0.008,-0.05 -0.023,-0.066c-0.015,-0.016 -0.037,-0.024 -0.066,-0.024c-0.028,0 -0.05,0.008 -0.066,0.024c-0.016,0.016 -0.024,0.038 -0.024,0.066c0,0.026 0.008,0.047 0.024,0.063Z" style="fill:#fff;fill-rule:nonzero;"/>
                </g>
            </g>
        </g>
    </g>
    <defs>
        <radialGradient id="_Radial1" cx="0" cy="0" r="1" gradientUnits="userSpaceOnUse" gradientTransform="matrix(58,-46,46,58,8,48)"><stop offset="0" style="stop-color:#2472f0;stop-opacity:0.95"/><stop offset="0.69" style="stop-color:#2472f0;stop-opacity:0.75"/><stop offset="1" style="stop-color:#2472f0;stop-opacity:0.95"/></radialGradient>
        <radialGradient id="_Radial2" cx="0" cy="0" r="1" gradientUnits="userSpaceOnUse" gradientTransform="matrix(48,61,-61,48,20,8)"><stop offset="0" style="stop-color:#fff;stop-opacity:0.89"/><stop offset="0.07" style="stop-color:#a0c2f8;stop-opacity:0.93"/><stop offset="0.15" style="stop-color:#4889f2;stop-opacity:0.98"/><stop offset="0.4" style="stop-color:#2472f0;stop-opacity:1"/><stop offset="0.79" style="stop-color:#4486f2;stop-opacity:1"/><stop offset="0.9" style="stop-color:#9abdf8;stop-opacity:1"/><stop offset="1" style="stop-color:#fff;stop-opacity:1"/></radialGradient>
    </defs>
</svg>
