<?xml version="1.0" encoding="UTF-8" standalone="no"?>
<!DOCTYPE svg PUBLIC "-//W3C//DTD SVG 1.1//EN" "http://www.w3.org/Graphics/SVG/1.1/DTD/svg11.dtd">
<svg width="100%" height="100%" viewBox="0 0 64 64" version="1.1" xmlns="http://www.w3.org/2000/svg" xmlns:xlink="http://www.w3.org/1999/xlink" xml:space="preserve" xmlns:serif="http://www.serif.com/" style="fill-rule:evenodd;clip-rule:evenodd;stroke-linejoin:round;stroke-miterlimit:2;">
    <rect id="_2" serif:id="2" x="0" y="0" width="64" height="64" style="fill:none;"/>
    <g id="icon-base" serif:id="icon base">
        <path d="M0,25.6c0,-8.961 0,-13.441 1.744,-16.864c1.534,-3.011 3.982,-5.458 6.992,-6.992c3.423,-1.744 7.903,-1.744 16.864,-1.744l12.8,0c8.961,0 13.441,0 16.864,1.744c3.011,1.534 5.458,3.982 6.992,6.992c1.744,3.423 1.744,7.903 1.744,16.864l0,12.8c0,8.961 0,13.441 -1.744,16.864c-1.534,3.011 -3.982,5.458 -6.992,6.992c-3.423,1.744 -7.903,1.744 -16.864,1.744l-12.8,0c-8.961,0 -13.441,0 -16.864,-1.744c-3.011,-1.534 -5.458,-3.982 -6.992,-6.992c-1.744,-3.423 -1.744,-7.903 -1.744,-16.864l0,-12.8Z" style="fill:#fff;fill-opacity:0.96;fill-rule:nonzero;"/>
        <path d="M0,25.6c0,-8.961 0,-13.441 1.744,-16.864c1.534,-3.011 3.982,-5.458 6.992,-6.992c3.423,-1.744 7.903,-1.744 16.864,-1.744l12.8,0c8.961,0 13.441,0 16.864,1.744c3.011,1.534 5.458,3.982 6.992,6.992c1.744,3.423 1.744,7.903 1.744,16.864l0,12.8c0,8.961 0,13.441 -1.744,16.864c-1.534,3.011 -3.982,5.458 -6.992,6.992c-3.423,1.744 -7.903,1.744 -16.864,1.744l-12.8,0c-8.961,0 -13.441,0 -16.864,-1.744c-3.011,-1.534 -5.458,-3.982 -6.992,-6.992c-1.744,-3.423 -1.744,-7.903 -1.744,-16.864l0,-12.8Z" style="fill:url(#_Radial1);fill-rule:nonzero;"/>
        <path d="M0,25.6c0,-8.961 0,-13.441 1.744,-16.864c1.534,-3.011 3.982,-5.458 6.992,-6.992c3.423,-1.744 7.903,-1.744 16.864,-1.744l12.8,0c8.961,0 13.441,0 16.864,1.744c3.011,1.534 5.458,3.982 6.992,6.992c1.744,3.423 1.744,7.903 1.744,16.864l0,12.8c0,8.961 0,13.441 -1.744,16.864c-1.534,3.011 -3.982,5.458 -6.992,6.992c-3.423,1.744 -7.903,1.744 -16.864,1.744l-12.8,0c-8.961,0 -13.441,0 -16.864,-1.744c-3.011,-1.534 -5.458,-3.982 -6.992,-6.992c-1.744,-3.423 -1.744,-7.903 -1.744,-16.864l0,-12.8Zm2,0l0,12.8c0,8.472 -0.123,12.72 1.526,15.956c1.342,2.634 3.484,4.776 6.118,6.118c3.236,1.649 7.484,1.526 15.956,1.526l12.8,0c8.472,0 12.72,0.123 15.956,-1.526c2.634,-1.342 4.776,-3.484 6.118,-6.118c1.649,-3.236 1.526,-7.484 1.526,-15.956l0,-12.8c0,-8.472 0.123,-12.72 -1.526,-15.956c-1.342,-2.634 -3.484,-4.776 -6.118,-6.118c-3.236,-1.649 -7.484,-1.526 -15.956,-1.526l-12.8,0c-8.472,0 -12.72,-0.123 -15.956,1.526c-2.634,1.342 -4.776,3.484 -6.118,6.118c-1.649,3.236 -1.526,7.484 -1.526,15.956Z" style="fill:url(#_Radial2);"/>
    </g>
    <g id="reference-grid" serif:id="reference grid">
        <path d="M36.719,20.258c-0.93,-1.112 -2.26,-1.668 -3.992,-1.668c-2.37,0 -3.983,0.884 -4.84,2.652c-0.492,1.021 -0.784,2.643 -0.875,4.867l-7.574,0c0.128,-3.372 0.738,-6.098 1.832,-8.176c2.078,-3.956 5.77,-5.934 11.074,-5.934c4.193,0 7.529,1.162 10.008,3.486c2.479,2.324 3.719,5.4 3.719,9.229c0,2.935 -0.875,5.542 -2.625,7.82c-1.148,1.513 -3.035,3.199 -5.66,5.059l-3.117,2.215c-1.951,1.385 -3.286,2.388 -4.006,3.008c-0.72,0.62 -1.326,1.34 -1.818,2.16l17.309,0l0,6.863l-27.152,0c0.073,-2.844 0.684,-5.441 1.832,-7.793c1.112,-2.643 3.737,-5.441 7.875,-8.395c3.591,-2.57 5.915,-4.411 6.973,-5.523c1.622,-1.732 2.434,-3.628 2.434,-5.688c0,-1.677 -0.465,-3.072 -1.395,-4.184Z" style="fill:#fff;fill-rule:nonzero;"/>
    </g>
    <defs>
        <radialGradient id="_Radial1" cx="0" cy="0" r="1" gradientUnits="userSpaceOnUse" gradientTransform="matrix(58,-46,46,58,8,48)"><stop offset="0" style="stop-color:#2472f0;stop-opacity:0.95"/><stop offset="0.69" style="stop-color:#2472f0;stop-opacity:0.75"/><stop offset="1" style="stop-color:#2472f0;stop-opacity:0.95"/></radialGradient>
        <radialGradient id="_Radial2" cx="0" cy="0" r="1" gradientUnits="userSpaceOnUse" gradientTransform="matrix(48,61,-61,48,20,8)"><stop offset="0" style="stop-color:#fff;stop-opacity:0.89"/><stop offset="0.07" style="stop-color:#a0c2f8;stop-opacity:0.93"/><stop offset="0.15" style="stop-color:#4889f2;stop-opacity:0.98"/><stop offset="0.4" style="stop-color:#2472f0;stop-opacity:1"/><stop offset="0.79" style="stop-color:#4486f2;stop-opacity:1"/><stop offset="0.9" style="stop-color:#9abdf8;stop-opacity:1"/><stop offset="1" style="stop-color:#fff;stop-opacity:1"/></radialGradient>
    </defs>
</svg>
