<?xml version="1.0" encoding="UTF-8" standalone="no"?>
<!DOCTYPE svg PUBLIC "-//W3C//DTD SVG 1.1//EN" "http://www.w3.org/Graphics/SVG/1.1/DTD/svg11.dtd">
<svg width="100%" height="100%" viewBox="0 0 64 64" version="1.1" xmlns="http://www.w3.org/2000/svg" xmlns:xlink="http://www.w3.org/1999/xlink" xml:space="preserve" xmlns:serif="http://www.serif.com/" style="fill-rule:evenodd;clip-rule:evenodd;stroke-linejoin:round;stroke-miterlimit:2;">
    <rect id="アートボード1" x="0" y="0" width="64" height="64" style="fill:none;"/>
    <g id="アートボード11" serif:id="アートボード1">
        <g id="reference-grid" serif:id="reference grid">
            <g id="reference-grid1" serif:id="reference grid">
                <g id="icon" transform="matrix(1.02752,0,0,1.03704,-1.65138,-0.148148)">
                    <path d="M60,19.429C60,10.908 53.028,4 44.429,4L21.08,4C12.475,4 5.5,10.911 5.5,19.437L5.5,42.538C5.5,51.077 12.487,58 21.105,58L44.429,58C53.028,58 60,51.092 60,42.571L60,19.429Z" style="fill:rgb(0,80,139);"/>
                </g>
                <g id="icon-base" transform="matrix(0.954128,0,0,0.962963,0.752294,2.14815)">
                    <path d="M60,18.514C60,10.498 53.442,4 45.352,4L20.173,4C12.069,4 5.5,10.509 5.5,18.538L5.5,43.462C5.5,51.491 12.069,58 20.173,58L45.327,58C53.431,58 60,51.491 60,43.462L60,18.514Z" style="fill:rgb(0,96,182);"/>
                </g>
            </g>
            <g transform="matrix(5.03432,0,0,5.03432,-70.6405,-18.2106)">
                <g transform="matrix(11.1684,0,0,11.1684,17.2412,13.9464)">
                    <path d="M0.348,-0.564C0.331,-0.584 0.307,-0.594 0.276,-0.594C0.234,-0.594 0.205,-0.578 0.19,-0.546C0.181,-0.528 0.176,-0.499 0.174,-0.459L0.039,-0.459C0.041,-0.52 0.052,-0.568 0.072,-0.605C0.109,-0.676 0.175,-0.711 0.27,-0.711C0.344,-0.711 0.404,-0.691 0.448,-0.649C0.493,-0.608 0.515,-0.553 0.515,-0.484C0.515,-0.432 0.499,-0.385 0.468,-0.345C0.447,-0.318 0.414,-0.288 0.367,-0.254L0.311,-0.215C0.276,-0.19 0.252,-0.172 0.24,-0.161C0.227,-0.15 0.216,-0.137 0.207,-0.123L0.516,-0.123L0.516,-0L0.031,-0C0.033,-0.051 0.043,-0.097 0.064,-0.139C0.084,-0.186 0.131,-0.236 0.205,-0.289C0.269,-0.335 0.31,-0.368 0.329,-0.388C0.358,-0.419 0.373,-0.452 0.373,-0.489C0.373,-0.519 0.364,-0.544 0.348,-0.564Z" style="fill:white;fill-rule:nonzero;"/>
                </g>
            </g>
        </g>
    </g>
</svg>
