<?xml version="1.0" encoding="UTF-8" standalone="no"?>
<!DOCTYPE svg PUBLIC "-//W3C//DTD SVG 1.1//EN" "http://www.w3.org/Graphics/SVG/1.1/DTD/svg11.dtd">
<svg width="100%" height="100%" viewBox="0 0 64 64" version="1.1" xmlns="http://www.w3.org/2000/svg" xmlns:xlink="http://www.w3.org/1999/xlink" xml:space="preserve" xmlns:serif="http://www.serif.com/" style="fill-rule:evenodd;clip-rule:evenodd;stroke-linejoin:round;stroke-miterlimit:2;">
    <rect id="アートボード1" x="0" y="0" width="64" height="64" style="fill:none;"/>
    <g id="アートボード11" serif:id="アートボード1">
        <g id="reference-grid" serif:id="reference grid">
            <g id="reference-grid1" serif:id="reference grid">
                <g id="icon" transform="matrix(1.02752,0,0,1.03704,-1.65138,-0.148148)">
                    <path d="M60,19.429C60,10.908 53.028,4 44.429,4L21.08,4C12.475,4 5.5,10.911 5.5,19.437L5.5,42.538C5.5,51.077 12.487,58 21.105,58L44.429,58C53.028,58 60,51.092 60,42.571L60,19.429Z" style="fill:rgb(0,80,139);"/>
                </g>
                <g id="icon-base" transform="matrix(0.954128,0,0,0.962963,0.752294,2.14815)">
                    <path d="M60,18.514C60,10.498 53.442,4 45.352,4L20.173,4C12.069,4 5.5,10.509 5.5,18.538L5.5,43.462C5.5,51.491 12.069,58 20.173,58L45.327,58C53.431,58 60,51.491 60,43.462L60,18.514Z" style="fill:rgb(0,96,182);"/>
                </g>
            </g>
            <g transform="matrix(4.91293,0,0,4.91293,-68.1806,-17.4822)">
                <g transform="matrix(11.1684,0,0,11.1684,17.2412,13.9464)">
                    <path d="M0.191,-0.567C0.176,-0.546 0.168,-0.518 0.169,-0.483L0.039,-0.483C0.04,-0.519 0.046,-0.552 0.057,-0.583C0.069,-0.611 0.086,-0.637 0.111,-0.66C0.129,-0.677 0.151,-0.689 0.176,-0.698C0.201,-0.707 0.232,-0.711 0.268,-0.711C0.336,-0.711 0.39,-0.694 0.432,-0.659C0.473,-0.624 0.494,-0.577 0.494,-0.518C0.494,-0.476 0.482,-0.441 0.457,-0.413C0.441,-0.395 0.425,-0.382 0.408,-0.376C0.421,-0.376 0.439,-0.365 0.463,-0.343C0.498,-0.31 0.516,-0.265 0.516,-0.208C0.516,-0.149 0.495,-0.096 0.454,-0.051C0.412,-0.005 0.351,0.018 0.27,0.018C0.169,0.018 0.1,-0.015 0.061,-0.081C0.04,-0.115 0.029,-0.161 0.026,-0.217L0.163,-0.217C0.163,-0.189 0.168,-0.166 0.177,-0.147C0.194,-0.113 0.224,-0.096 0.269,-0.096C0.296,-0.096 0.32,-0.105 0.341,-0.124C0.361,-0.142 0.371,-0.169 0.371,-0.205C0.371,-0.251 0.352,-0.282 0.314,-0.298C0.293,-0.307 0.259,-0.311 0.213,-0.311L0.213,-0.411C0.258,-0.411 0.29,-0.416 0.308,-0.424C0.339,-0.438 0.354,-0.465 0.354,-0.507C0.354,-0.534 0.346,-0.556 0.33,-0.573C0.315,-0.59 0.292,-0.598 0.264,-0.598C0.231,-0.598 0.207,-0.588 0.191,-0.567Z" style="fill:white;fill-rule:nonzero;"/>
                </g>
            </g>
        </g>
    </g>
</svg>
