<?xml version="1.0" encoding="UTF-8" standalone="no"?>
<!DOCTYPE svg PUBLIC "-//W3C//DTD SVG 1.1//EN" "http://www.w3.org/Graphics/SVG/1.1/DTD/svg11.dtd">
<svg width="100%" height="100%" viewBox="0 0 64 64" version="1.1" xmlns="http://www.w3.org/2000/svg" xmlns:xlink="http://www.w3.org/1999/xlink" xml:space="preserve" xmlns:serif="http://www.serif.com/" style="fill-rule:evenodd;clip-rule:evenodd;stroke-linejoin:round;stroke-miterlimit:2;">
    <rect id="アートボード1" x="0" y="0" width="64" height="64" style="fill:none;"/>
    <g id="アートボード11" serif:id="アートボード1">
        <g id="reference-grid" serif:id="reference grid">
            <g id="reference-grid1" serif:id="reference grid">
                <g id="icon" transform="matrix(1.02752,0,0,1.03704,-1.65138,-0.148148)">
                    <path d="M60,19.429C60,10.908 53.028,4 44.429,4L21.08,4C12.475,4 5.5,10.911 5.5,19.437L5.5,42.538C5.5,51.077 12.487,58 21.105,58L44.429,58C53.028,58 60,51.092 60,42.571L60,19.429Z" style="fill:rgb(0,80,139);"/>
                </g>
                <g id="icon-base" transform="matrix(0.954128,0,0,0.962963,0.752294,2.14815)">
                    <path d="M60,18.514C60,10.498 53.442,4 45.352,4L20.173,4C12.069,4 5.5,10.509 5.5,18.538L5.5,43.462C5.5,51.491 12.069,58 20.173,58L45.327,58C53.431,58 60,51.491 60,43.462L60,18.514Z" style="fill:rgb(0,96,182);"/>
                </g>
            </g>
            <g transform="matrix(4.99319,0,0,4.99319,-69.2145,-18.6718)">
                <g transform="matrix(11.1684,0,0,11.1684,17.2412,13.9464)">
                    <path d="M0.267,-0.352C0.25,-0.352 0.235,-0.349 0.223,-0.345C0.201,-0.337 0.184,-0.323 0.173,-0.302L0.048,-0.308L0.098,-0.699L0.488,-0.699L0.488,-0.581L0.199,-0.581L0.173,-0.426C0.195,-0.44 0.212,-0.449 0.224,-0.454C0.244,-0.461 0.268,-0.465 0.297,-0.465C0.356,-0.465 0.407,-0.445 0.451,-0.406C0.494,-0.366 0.516,-0.309 0.516,-0.234C0.516,-0.168 0.495,-0.11 0.453,-0.059C0.411,-0.007 0.348,0.019 0.265,0.019C0.197,0.019 0.142,0 0.099,-0.036C0.055,-0.072 0.031,-0.123 0.026,-0.189L0.165,-0.189C0.171,-0.159 0.181,-0.136 0.197,-0.119C0.212,-0.103 0.235,-0.095 0.265,-0.095C0.3,-0.095 0.326,-0.107 0.344,-0.131C0.362,-0.155 0.371,-0.186 0.371,-0.223C0.371,-0.259 0.363,-0.289 0.346,-0.314C0.329,-0.339 0.302,-0.352 0.267,-0.352Z" style="fill:white;fill-rule:nonzero;"/>
                </g>
            </g>
        </g>
    </g>
</svg>
