<?xml version="1.0" encoding="UTF-8" standalone="no"?>
<!DOCTYPE svg PUBLIC "-//W3C//DTD SVG 1.1//EN" "http://www.w3.org/Graphics/SVG/1.1/DTD/svg11.dtd">
<svg width="100%" height="100%" viewBox="0 0 64 64" version="1.1" xmlns="http://www.w3.org/2000/svg" xmlns:xlink="http://www.w3.org/1999/xlink" xml:space="preserve" xmlns:serif="http://www.serif.com/" style="fill-rule:evenodd;clip-rule:evenodd;stroke-linejoin:round;stroke-miterlimit:2;">
    <rect id="アートボード1" x="0" y="0" width="64" height="64" style="fill:none;"/>
    <g id="アートボード11" serif:id="アートボード1">
        <g id="reference-grid" serif:id="reference grid">
            <g id="reference-grid1" serif:id="reference grid">
                <g id="icon" transform="matrix(1.02752,0,0,1.03704,-1.65138,-0.148148)">
                    <path d="M60,19.429C60,10.908 53.028,4 44.429,4L21.08,4C12.475,4 5.5,10.911 5.5,19.437L5.5,42.538C5.5,51.077 12.487,58 21.105,58L44.429,58C53.028,58 60,51.092 60,42.571L60,19.429Z" style="fill:rgb(0,80,139);"/>
                </g>
                <g id="icon-base" transform="matrix(0.954128,0,0,0.962963,0.752294,2.14815)">
                    <path d="M60,18.514C60,10.498 53.442,4 45.352,4L20.173,4C12.069,4 5.5,10.509 5.5,18.538L5.5,43.462C5.5,51.491 12.069,58 20.173,58L45.327,58C53.431,58 60,51.491 60,43.462L60,18.514Z" style="fill:rgb(0,96,182);"/>
                </g>
            </g>
            <g transform="matrix(4.88349,0,0,4.88349,-67.2437,-17.1191)">
                <g transform="matrix(11.1684,0,0,11.1684,17.2412,13.9464)">
                    <path d="M0.306,-0.459C0.368,-0.459 0.42,-0.438 0.46,-0.396C0.5,-0.353 0.521,-0.298 0.521,-0.232C0.521,-0.166 0.501,-0.108 0.461,-0.057C0.422,-0.007 0.361,0.019 0.278,0.019C0.189,0.019 0.123,-0.019 0.081,-0.093C0.048,-0.152 0.031,-0.227 0.031,-0.319C0.031,-0.373 0.034,-0.417 0.038,-0.451C0.046,-0.511 0.062,-0.561 0.085,-0.601C0.106,-0.635 0.132,-0.663 0.165,-0.684C0.198,-0.704 0.237,-0.715 0.282,-0.715C0.348,-0.715 0.4,-0.698 0.439,-0.664C0.479,-0.631 0.5,-0.586 0.505,-0.53L0.367,-0.53C0.367,-0.541 0.362,-0.554 0.354,-0.567C0.339,-0.59 0.316,-0.601 0.286,-0.601C0.24,-0.601 0.208,-0.575 0.189,-0.524C0.179,-0.496 0.171,-0.455 0.167,-0.4C0.185,-0.421 0.205,-0.436 0.228,-0.445C0.25,-0.455 0.276,-0.459 0.306,-0.459ZM0.212,-0.327C0.185,-0.306 0.171,-0.271 0.171,-0.224C0.171,-0.186 0.181,-0.155 0.202,-0.131C0.222,-0.107 0.248,-0.095 0.28,-0.095C0.311,-0.095 0.335,-0.106 0.353,-0.13C0.371,-0.153 0.379,-0.183 0.379,-0.22C0.379,-0.262 0.369,-0.293 0.349,-0.315C0.329,-0.337 0.304,-0.348 0.275,-0.348C0.251,-0.348 0.23,-0.341 0.212,-0.327Z" style="fill:white;fill-rule:nonzero;"/>
                </g>
            </g>
        </g>
    </g>
</svg>
