<?xml version="1.0" encoding="UTF-8" standalone="no"?>
<!DOCTYPE svg PUBLIC "-//W3C//DTD SVG 1.1//EN" "http://www.w3.org/Graphics/SVG/1.1/DTD/svg11.dtd">
<svg width="100%" height="100%" viewBox="0 0 64 64" version="1.1" xmlns="http://www.w3.org/2000/svg" xmlns:xlink="http://www.w3.org/1999/xlink" xml:space="preserve" xmlns:serif="http://www.serif.com/" style="fill-rule:evenodd;clip-rule:evenodd;stroke-linejoin:round;stroke-miterlimit:2;">
    <rect id="_8" serif:id="8" x="0" y="0" width="64" height="64" style="fill:none;"/>
    <g id="icon-base" serif:id="icon base">
        <path d="M0,25.6c0,-8.961 0,-13.441 1.744,-16.864c1.534,-3.011 3.982,-5.458 6.992,-6.992c3.423,-1.744 7.903,-1.744 16.864,-1.744l12.8,0c8.961,0 13.441,0 16.864,1.744c3.011,1.534 5.458,3.982 6.992,6.992c1.744,3.423 1.744,7.903 1.744,16.864l0,12.8c0,8.961 0,13.441 -1.744,16.864c-1.534,3.011 -3.982,5.458 -6.992,6.992c-3.423,1.744 -7.903,1.744 -16.864,1.744l-12.8,0c-8.961,0 -13.441,0 -16.864,-1.744c-3.011,-1.534 -5.458,-3.982 -6.992,-6.992c-1.744,-3.423 -1.744,-7.903 -1.744,-16.864l0,-12.8Z" style="fill:#fff;fill-opacity:0.96;fill-rule:nonzero;"/>
        <path d="M0,25.6c0,-8.961 0,-13.441 1.744,-16.864c1.534,-3.011 3.982,-5.458 6.992,-6.992c3.423,-1.744 7.903,-1.744 16.864,-1.744l12.8,0c8.961,0 13.441,0 16.864,1.744c3.011,1.534 5.458,3.982 6.992,6.992c1.744,3.423 1.744,7.903 1.744,16.864l0,12.8c0,8.961 0,13.441 -1.744,16.864c-1.534,3.011 -3.982,5.458 -6.992,6.992c-3.423,1.744 -7.903,1.744 -16.864,1.744l-12.8,0c-8.961,0 -13.441,0 -16.864,-1.744c-3.011,-1.534 -5.458,-3.982 -6.992,-6.992c-1.744,-3.423 -1.744,-7.903 -1.744,-16.864l0,-12.8Z" style="fill:url(#_Radial1);fill-rule:nonzero;"/>
        <path d="M0,25.6c0,-8.961 0,-13.441 1.744,-16.864c1.534,-3.011 3.982,-5.458 6.992,-6.992c3.423,-1.744 7.903,-1.744 16.864,-1.744l12.8,0c8.961,0 13.441,0 16.864,1.744c3.011,1.534 5.458,3.982 6.992,6.992c1.744,3.423 1.744,7.903 1.744,16.864l0,12.8c0,8.961 0,13.441 -1.744,16.864c-1.534,3.011 -3.982,5.458 -6.992,6.992c-3.423,1.744 -7.903,1.744 -16.864,1.744l-12.8,0c-8.961,0 -13.441,0 -16.864,-1.744c-3.011,-1.534 -5.458,-3.982 -6.992,-6.992c-1.744,-3.423 -1.744,-7.903 -1.744,-16.864l0,-12.8Zm2,0l0,12.8c0,8.472 -0.123,12.72 1.526,15.956c1.342,2.634 3.484,4.776 6.118,6.118c3.236,1.649 7.484,1.526 15.956,1.526l12.8,0c8.472,0 12.72,0.123 15.956,-1.526c2.634,-1.342 4.776,-3.484 6.118,-6.118c1.649,-3.236 1.526,-7.484 1.526,-15.956l0,-12.8c0,-8.472 0.123,-12.72 -1.526,-15.956c-1.342,-2.634 -3.484,-4.776 -6.118,-6.118c-3.236,-1.649 -7.484,-1.526 -15.956,-1.526l-12.8,0c-8.472,0 -12.72,-0.123 -15.956,1.526c-2.634,1.342 -4.776,3.484 -6.118,6.118c-1.649,3.236 -1.526,7.484 -1.526,15.956Z" style="fill:url(#_Radial2);"/>
    </g>
    <g id="reference-grid" serif:id="reference grid">
        <path d="M22.132,50.402c-2.279,-2.333 -3.418,-5.168 -3.418,-8.504c0,-2.224 0.506,-4.238 1.518,-6.043c1.012,-1.805 2.493,-3.163 4.443,-4.074c-1.914,-1.276 -3.158,-2.657 -3.732,-4.143c-0.574,-1.486 -0.861,-2.876 -0.861,-4.17c0,-2.88 1.085,-5.337 3.254,-7.369c2.169,-2.033 5.232,-3.049 9.188,-3.049c3.956,0 7.018,1.016 9.188,3.049c2.169,2.033 3.254,4.489 3.254,7.369c0,1.294 -0.287,2.684 -0.861,4.17c-0.574,1.486 -1.818,2.775 -3.732,3.869c1.951,1.094 3.418,2.543 4.402,4.348c0.984,1.805 1.477,3.819 1.477,6.043c0,3.336 -1.235,6.175 -3.705,8.518c-2.47,2.342 -5.92,3.514 -10.35,3.514c-4.43,0 -7.784,-1.176 -10.062,-3.527Zm4.676,-9.023c0,1.951 0.506,3.464 1.518,4.539c1.012,1.076 2.411,1.613 4.197,1.613c1.786,0 3.186,-0.538 4.197,-1.613c1.012,-1.076 1.518,-2.589 1.518,-4.539c0,-2.023 -0.515,-3.559 -1.545,-4.607c-1.03,-1.048 -2.42,-1.572 -4.17,-1.572c-1.75,0 -3.14,0.524 -4.17,1.572c-1.03,1.048 -1.545,2.584 -1.545,4.607Zm2.051,-13.508c0.875,0.911 2.096,1.367 3.664,1.367c1.586,0 2.812,-0.456 3.678,-1.367c0.866,-0.911 1.299,-2.087 1.299,-3.527c0,-1.568 -0.433,-2.794 -1.299,-3.678c-0.866,-0.884 -2.092,-1.326 -3.678,-1.326c-1.568,0 -2.794,0.442 -3.678,1.326c-0.884,0.884 -1.326,2.11 -1.326,3.678c0,1.44 0.447,2.616 1.34,3.527Z" style="fill:#fff;fill-opacity:0.8;fill-rule:nonzero;"/>
    </g>
    <defs>
        <radialGradient id="_Radial1" cx="0" cy="0" r="1" gradientUnits="userSpaceOnUse" gradientTransform="matrix(58,-46,46,58,8,48)"><stop offset="0" style="stop-color:#2472f0;stop-opacity:0.95"/><stop offset="0.69" style="stop-color:#2472f0;stop-opacity:0.75"/><stop offset="1" style="stop-color:#2472f0;stop-opacity:0.95"/></radialGradient>
        <radialGradient id="_Radial2" cx="0" cy="0" r="1" gradientUnits="userSpaceOnUse" gradientTransform="matrix(48,61,-61,48,20,8)"><stop offset="0" style="stop-color:#fff;stop-opacity:0.89"/><stop offset="0.07" style="stop-color:#a0c2f8;stop-opacity:0.93"/><stop offset="0.15" style="stop-color:#4889f2;stop-opacity:0.98"/><stop offset="0.4" style="stop-color:#2472f0;stop-opacity:1"/><stop offset="0.79" style="stop-color:#4486f2;stop-opacity:1"/><stop offset="0.9" style="stop-color:#9abdf8;stop-opacity:1"/><stop offset="1" style="stop-color:#fff;stop-opacity:1"/></radialGradient>
    </defs>
</svg>
