<svg xmlns="http://www.w3.org/2000/svg" xml:space="preserve" viewBox="0 0 1960 1960" width="96" height="96" stroke-miterlimit="10" style="clip-rule:evenodd;fill-rule:nonzero;stroke-linecap:round;stroke-linejoin:round"><path fill="#ff9fbe" d="M1147.18 117.407c-12.37-1.4-34.84 41.108-41.57 56.285-4.99 11.234-11.48 25.206-17.47 38.58-7.45-11.645-21.15-31.974-28.53-41.335-8.76-11.113-37.95-40.46-49.86-35.198-13.28 5.86-19.53 45.306-21.21 60.84-1.2 11.102-2.66 24.364-2.91 52.958-15.29-11.701-24.45-16.517-37.59-23.705-15.16-8.291-46.76-20.115-53.38-14.97-11.76 9.134 8.78 68.702 14.1 83.01 5.76 15.519 8.96 19.684 18.62 41.963-19.85-9.681-30.96-13.045-49.24-16.731-20.21-4.076-49.64-4.448-53.02 4.052-3.82 9.609 16.49 24.953 44.52 56.519 16.6 18.692 28.34 37.096 44.11 61.885-14.6-11.765-30.36-17.854-39.19-21.224-16.87-6.444-32.88-10.042-37.56-5.29-7.41 7.527 9.83 21.366 16.77 28.953 22.03 24.045 43.9 57.099 53.35 74.562 17.47 32.309 42.28 99.393 50.84 144.832 4.54 24.099 9.99 77.187 10.7 102.327 1.18 41.51-11.15 107.46-13.36 121.21 22.23 1.68 28.4 4.15 49.24 9.99 20.82 5.89 27.37 7 47.22 17.17 5.28-12.89 29.17-75.58 51.83-110.39 13.72-21.08 46.07-63.52 62.51-81.714 31.01-34.303 87.17-78.591 118.93-97.04 17.17-9.97 53.08-26.758 84.41-35.784 9.89-2.848 31.81-5.662 29.41-15.952-1.51-6.496-17.04-11.774-34.8-15.08-9.29-1.73-25.91-4.757-44.5-2.336 26.38-12.922 46-22.5 69.91-29.788 40.38-12.307 65.72-14.8 67.47-24.991 1.55-9.014-23.76-24.053-43.12-31.116-17.52-6.39-28.76-9.32-50.74-11.412 19.87-13.968 24.76-15.856 37.78-26.086 12-9.434 60.6-49.54 55.33-63.464-2.96-7.845-36.09-14.242-53.35-15.076-14.96-.724-25.28-1.392-44.44.61 14.71-24.523 20.38-36.602 25.15-46.697 6.67-14.128 21.91-51.042 13.65-62.968-7.43-10.706-47.64-.894-60.91 4.015-11.18 4.135-33.47 14.337-45.9 20.382 1.87-14.532 3.61-29.843 5.22-42.025 2.18-16.46 5.18-64.447-6.1-69.705-.78-.365-1.64-.601-2.58-.727-14.12-1.892-44.91 21.676-55.36 29.405-14.89 11-19.41 17.295-35.98 32.134-6.39-21.302-6.97-29.035-13.93-46.183-4.89-12.05-18.86-48.216-31.89-53.968q-1.305-.578-2.58-.727M1852.01 870.6c-2.49-12.2-49.85-20.45-66.37-22.17-12.22-1.27-27.52-3.14-42.08-4.7 8.77-10.69 23.88-29.99 30.51-39.9 7.86-11.76 26.77-48.58 18.09-58.3-9.67-10.815-49.12-4.59-64.42-1.39-10.93 2.29-23.99 4.99-51.27 13.58 6.41-18.16 8.17-28.356 10.95-43.077 3.2-16.977 4.7-50.683-2.24-55.394-12.31-8.362-62.64 29.557-74.61 39.03-12.98 10.276-15.95 14.599-34.16 30.664 3.08-21.864 2.85-33.475.72-51.998-2.36-20.476-11.09-48.59-20.22-49.182-10.32-.67-18.65 23.392-40.02 59.796-12.66 21.558-26.54 38.403-45.25 61.05 6.68-17.514 7.61-34.388 8.09-43.822.92-18.04-.59-34.371-6.56-37.357-9.45-4.73-17.29 15.937-22.36 24.888-16.08 28.367-40.77 59.372-54.46 73.752-25.34 26.59-81.49 70.9-122.07 93.06-21.52 11.76-70.33 33.33-94.02 41.76-39.13 13.93-105.66 22.56-119.43 24.7 5.27 21.67 4.82 28.3 5.7 49.92.82 21.62 1.79 28.2-1.75 50.21 13.88 1.05 80.89 4.42 120.99 15.24 24.28 6.54 74.64 24.21 97.02 34.23 42.19 18.91 101.66 58.66 129.01 83.18 14.78 13.25 41.83 42.23 60.08 69.24 5.76 8.53 15.21 28.51 24.26 23.05 5.71-3.44 5.93-19.84 3.6-37.75-1.22-9.37-3.47-26.12-11.52-43.06 20.44 21.11 35.6 36.81 49.92 57.31 24.16 34.61 34.36 57.94 44.59 56.46 9.05-1.3 15.55-30.02 16.29-50.62.67-18.63-.01-30.22-4.81-51.78 19.42 14.59 22.73 18.66 36.48 27.89 12.67 8.5 65.82 42.35 77.44 33.04 6.55-5.24 2.41-38.73-2.13-55.4-3.92-14.45-6.48-24.48-14.29-42.08 27.86 6.42 41.1 8.08 52.18 9.5 15.49 1.99 55.31 5.1 64.1-6.45 7.89-10.36-13.85-45.58-22.61-56.69-7.39-9.36-23.97-27.41-33.56-37.37 14.4-2.71 29.5-5.77 41.59-8 16.33-3.01 62.9-14.97 64.42-27.32.1-.86.06-1.74-.11-2.68-2.56-14.02-34.48-36.02-45.05-43.58-15.06-10.76-22.45-13.13-41.67-24.31 18.29-12.65 25.46-15.59 39.63-27.5 9.95-8.37 40.04-32.82 41.49-46.99.09-.95.06-1.84-.11-2.68M320.019 1555.08c8.877 8.73 52.77-10.9 67.426-18.7 10.847-5.77 24.577-12.77 37.532-19.61-1.306 13.76-3.055 38.21-3.012 50.13.05 14.15 4.946 55.25 17.574 58.45 14.067 3.57 43.303-23.63 54.198-34.84 7.784-8 17.113-17.54 34.93-39.91 4.835 18.65 9.077 28.08 14.996 41.85 6.826 15.87 24.422 44.66 32.808 44.69 14.886.05 35.429-59.52 40.062-74.06 5.023-15.78 5.076-21.03 11.2-44.52 9.66 19.85 16.34 29.35 28.46 43.52 13.399 15.66 36.35 34.1 44.25 29.49 8.933-5.21 2.39-29.82-.225-71.95-1.55-24.95.55-46.68 3.41-75.92 4.246 18.26 12.906 32.78 17.778 40.87 9.316 15.47 19.704 28.17 26.314 27.31 10.48-1.35 5.44-22.88 4.64-33.13-2.52-32.51.63-72.02 3.95-91.6 6.16-36.21 27.97-104.33 49.23-145.38 11.28-21.78 39.71-66.94 54.65-87.18 24.66-33.41 75.01-77.75 85.23-87.21-16.47-15.03-19.8-20.78-32.62-38.21-12.76-17.48-17.24-22.39-26.6-42.63-12.1 6.89-69.56 41.54-108.85 54.98-23.8 8.14-75.43 21.63-99.592 25.82-45.558 7.9-117.082 8.16-153.466 3.1-19.665-2.73-58.288-11.64-88.523-23.84-9.54-3.85-28.54-15.15-32.993-5.57-2.812 6.05 6.164 19.78 18.11 33.33 6.247 7.08 17.472 19.71 33.606 29.27-28.742-6.09-50.092-10.64-73.414-19.64-39.384-15.19-60.872-28.85-68.535-21.9-6.776 6.14 3.883 33.58 14.777 51.08 9.855 15.82 16.899 25.06 32.918 40.25-24.251-1.24-29.271-2.77-45.826-2.74-15.265.03-78.253 1.66-82.69 15.87-2.5 8.01 19.644 33.46 32.719 44.76 11.337 9.79 19.055 16.68 35.373 26.91-26.697 10.24-38.606 16.26-48.584 21.27-13.964 7.01-48.72 26.69-49.56 41.17-.752 13.01 36.958 30.07 50.436 34.38 11.353 3.64 35.19 9.34 48.71 12.25-10.432 10.29-21.242 21.27-30.018 29.87-11.858 11.62-43.803 47.55-38.16 58.65.393.77.922 1.48 1.585 2.16 9.954 10.2 48.723 10.61 61.72 10.97 18.5.51 25.946-1.65 48.138-3.13-8.097 20.72-12.406 27.16-17.497 44.95-3.577 12.51-14.868 49.6-8.15 62.16.448.84.969 1.56 1.585 2.16M228.895 528.1c-5.553 11.143 26.688 46.813 38.64 58.336 8.848 8.528 19.749 19.42 30.265 29.623-13.495 3.016-37.285 8.916-48.608 12.645-13.442 4.426-51.01 21.794-50.15 34.794.959 14.48 35.876 33.866 49.898 40.76 10.019 4.928 21.977 10.848 48.757 20.872-16.233 10.365-23.894 17.32-35.15 27.2-12.981 11.41-34.914 37.04-32.348 45.03 4.554 14.17 67.554 15.28 82.818 15.18 16.555-.1 21.562-1.67 45.802-3.12-15.893 15.33-22.861 24.62-32.585 40.53-10.75 17.59-21.182 45.12-14.355 51.2 7.72 6.89 29.095-6.95 68.352-22.47 23.247-9.19 44.559-13.92 73.249-20.24-16.054 9.69-27.174 22.41-33.363 29.55-11.834 13.64-20.696 27.45-17.835 33.47 4.533 9.55 23.439-1.91 32.946-5.84 30.134-12.45 68.682-21.68 88.324-24.57 36.34-5.35 107.864-5.69 153.487 1.84 24.195 3.99 75.93 17.05 99.8 24.99 39.4 13.12 97.14 47.29 109.3 54.08 9.19-20.32 13.63-25.26 26.25-42.84 12.67-17.54 15.95-23.32 32.3-38.48-10.29-9.38-61.01-53.3-85.95-86.51-15.1-20.11-43.9-65.038-55.36-86.72-21.61-40.878-43.98-108.814-50.43-144.976-3.48-19.545-6.96-59.03-4.71-91.558.71-10.263 5.58-31.825-4.91-33.096-6.62-.803-16.898 11.98-26.086 27.53-4.805 8.134-13.345 22.715-17.44 41.013-3.102-29.215-5.381-50.925-4.037-75.887 2.269-42.153 8.607-66.812-.368-71.95-7.938-4.544-30.736 14.08-44.005 29.854-12.003 14.267-18.604 23.823-28.1 43.757-6.318-23.447-6.414-28.695-11.568-44.427-4.752-14.506-25.786-73.901-40.671-73.725-8.386.099-25.743 29.032-32.438 44.959-5.806 13.81-9.97 23.28-14.651 41.963-18-22.218-27.408-31.681-35.258-39.62-10.987-11.111-40.446-38.076-54.483-34.392-12.602 3.307-17.157 44.445-17.091 58.596.055 11.92 2.006 36.354 3.425 50.109-13.011-6.737-26.798-13.62-37.692-19.306-14.72-7.681-58.774-26.943-67.58-18.143-.61.61-1.124 1.334-1.565 2.176-6.615 12.618 4.982 49.614 8.662 62.086 5.237 17.75 9.6 24.16 17.867 44.807-22.203-1.291-29.666-3.395-48.161-2.732-12.995.466-51.76 1.202-61.628 11.478-.658.685-1.181 1.403-1.566 2.175M1353.43 1773.34c10.83-6.13 4.04-53.73.57-69.97-2.56-12.01-5.51-27.14-8.53-41.48 12.88 5.05 35.9 13.46 47.37 16.69 13.62 3.85 54.48 10.45 61.04-.8 7.3-12.55-10.81-48.14-18.58-61.7-5.56-9.68-12.16-21.28-28.76-44.56 19.25.48 29.49-1 44.35-2.9 17.14-2.2 49.66-11.19 51.99-19.25 4.15-14.29-47.46-50.44-60.17-58.89-13.78-9.17-18.82-10.67-39.72-23.02 21.75-3.83 32.72-7.63 49.67-15.39 18.75-8.57 42.79-25.56 40.53-34.42-2.55-10.02-28.01-10.51-69.23-19.59-24.42-5.37-44.73-13.37-72.05-24.17 18.73.95 35.06-3.38 44.18-5.84 17.44-4.7 32.51-11.19 33.5-17.78 1.58-10.45-20.5-11.52-30.58-13.58-31.94-6.53-69.06-20.42-86.97-29.01-33.12-15.88-92.61-55.59-126.22-87.34-17.83-16.83-53.43-56.59-68.77-76.52-25.34-32.91-54.11-93.52-60.39-105.94-18.98 11.7-25.43 13.32-45.72 20.84-20.31 7.46-26.26 10.42-48.3 13.85 3.3 13.53 20.79 78.3 22.9 119.78 1.28 25.11.04 78.46-2.58 102.84-4.94 45.98-24.38 114.81-39.25 148.4-8.03 18.16-27.23 52.84-47.28 78.54-6.33 8.12-22.42 23.27-14.43 30.19 5.04 4.37 20.71-.48 37.02-8.24 8.53-4.06 23.76-11.37 37.39-24.25-13.76 25.96-24.01 45.23-39.08 65.17-25.45 33.69-44.49 50.59-39.92 59.86 4.04 8.21 33.35 5.51 53.17-.15 17.93-5.11 28.75-9.35 47.76-20.56-7.87 22.97-10.72 27.37-15.24 43.3-4.17 14.68-19.94 75.69-7.5 83.86 7.01 4.61 37.57-9.67 52.03-19.14 12.53-8.2 21.28-13.73 35.61-26.6 2.5 28.49 5.01 41.59 7.08 52.56 2.9 15.36 12.25 54.19 25.94 58.98 12.3 4.3 39.08-27.26 46.93-39.03 6.62-9.91 18.67-31.26 25.18-43.46 7.02 12.86 14.6 26.28 20.46 37.08 7.91 14.6 33.66 55.2 45.88 52.83.85-.17 1.68-.48 2.52-.93 12.54-6.77 23.61-43.92 27.53-56.32 5.58-17.65 5.55-25.4 10.24-47.14 17.68 13.48 22.69 19.4 38.4 29.19 11.03 6.88 43.58 27.94 57.51 24.94.93-.2 1.77-.5 2.52-.93"/><g fill="#ffc7db" fill-opacity=".996"><path d="M1106.95 533.127c-17.19-5.024-35.46 16.362-49.52 30.965-9.49 9.864-22.41 26.036-31.44 38.176-7.64-19.47-13.06-29.09-19.03-39.494-6.36-11.063-22.04-32.45-36.26-31.941-15.12.54-25.47 40.067-30.76 67.165 7.71 22.825 14.38 46.059 18.02 65.395 4.54 24.099 9.99 77.187 10.7 102.327 1.18 41.51-11.15 107.46-13.36 121.21 22.23 1.68 28.4 4.15 49.24 9.99 20.82 5.89 27.37 7 47.22 17.17 5.28-12.89 29.17-75.58 51.83-110.39 13.72-21.08 46.07-63.52 62.51-81.714 13.19-14.597 31.01-30.94 49.49-46.39 9.63-25.876 21.41-65 8.79-73.35-11.86-7.853-36.4 2.213-47.59 8.337-10.53 5.759-20.16 11.143-36.84 23.767-1.37-15.072-3.96-35.608-6.91-48.975-4.37-19.788-8.8-47.566-26.09-52.248m337.22 427.513c-.53-17.9-26.51-28.68-44.74-37.54-12.31-5.98-31.68-13.28-46.01-18.13 16.16-13.27 23.64-21.39 31.69-30.29 8.56-9.46 24.06-30.97 19.19-44.34-5.18-14.22-45.97-11.87-73.38-8.54-19.33 14.38-39.37 27.9-56.64 37.33-21.52 11.76-70.33 33.33-94.02 41.76-39.13 13.93-105.66 22.56-119.43 24.7 5.27 21.67 4.82 28.3 5.7 49.92.82 21.62 1.79 28.2-1.75 50.21 13.88 1.05 80.89 4.42 120.99 15.24 24.28 6.54 74.64 24.21 97.02 34.23 17.95 8.05 39 19.95 59.4 32.76 27.58 1.17 68.43.3 72.48-14.27 3.81-13.72-13.34-33.95-22.62-42.7-8.73-8.24-16.82-15.74-33.97-27.71 13.91-5.96 32.64-14.75 44.44-21.69 17.48-10.26 42.53-23.05 41.65-40.94m-302.4 452.64c16.86-6.03 19.09-34.07 21.88-54.14 1.89-13.56 2.84-34.24 3.02-49.37 17.62 11.27 27.66 15.87 38.6 20.78 11.64 5.22 36.9 13.32 48.11 4.55 11.92-9.32-2.92-47.39-14.56-72.42-19.65-13.94-38.7-28.83-53-42.34-17.83-16.83-53.43-56.59-68.77-76.52-25.34-32.91-54.11-93.52-60.39-105.94-18.98 11.7-25.43 13.32-45.72 20.84-20.31 7.46-26.26 10.42-48.3 13.85 3.3 13.53 20.79 78.3 22.9 119.78 1.28 25.11.04 78.46-2.58 102.84-2.11 19.57-6.92 43.26-12.81 66.62 7.42 26.6 20.86 65.18 35.98 64.52 14.22-.61 28.16-23.17 33.62-34.7 5.13-10.84 9.77-20.86 15.85-40.87 9.97 11.38 24.12 26.48 34.36 35.57 15.16 13.44 35.07 33.32 51.81 26.95m-533.84-160.77c10.442 14.56 38.012 8.98 58.078 6.14 13.554-1.92 33.694-6.69 48.294-10.68-5.984 20.04-7.652 30.95-9.36 42.83-1.814 12.63-2.648 39.13 8.865 47.5 12.239 8.89 44.753-15.85 65.623-33.93 8-22.72 17.06-45.13 26.11-62.6 11.28-21.78 39.71-66.94 54.65-87.18 24.66-33.41 75.01-77.75 85.23-87.21-16.47-15.03-19.8-20.78-32.62-38.21-12.76-17.48-17.24-22.39-26.6-42.63-12.1 6.89-69.56 41.54-108.85 54.98-23.8 8.14-75.43 21.63-99.592 25.82-19.387 3.36-43.486 5.25-67.566 6.02-23.53 14.44-56.922 37.99-52.133 52.34 4.505 13.5 30.029 20.7 42.617 22.77 11.838 1.96 22.745 3.66 43.657 3.99-8.206 12.72-18.828 30.49-24.742 42.83-8.756 18.28-22.388 42.88-11.66 57.22m-2.245-544.216c-10.61 14.43 3.225 38.926 12.13 57.126 6.017 12.3 16.786 29.97 25.096 42.62-20.908.51-31.801 2.3-43.623 4.35-12.57 2.18-38.034 9.59-42.427 23.12-4.671 14.39 28.916 37.66 52.563 51.91 24.085.58 48.2 2.27 67.614 5.47 24.195 3.99 75.93 17.05 99.8 24.99 39.4 13.12 97.14 47.29 109.3 54.08 9.19-20.32 13.63-25.26 26.25-42.84 12.67-17.54 15.95-23.32 32.3-38.48-10.29-9.38-61.01-53.3-85.95-86.51-15.1-20.11-43.9-65.038-55.36-86.72-9.19-17.394-18.44-39.727-26.63-62.387-21.01-17.906-53.733-42.378-65.9-33.384-11.442 8.46-10.39 34.957-8.47 47.57 1.805 11.862 3.562 22.76 9.71 42.75-14.63-3.87-34.81-8.475-48.38-10.28-20.087-2.673-47.702-8.024-58.023 6.615"/><path d="M866.75 978.31c.3-63.36 51.91-114.48 115.27-114.18 63.36.31 114.48 51.92 114.18 115.28-.31 63.36-51.92 114.48-115.28 114.17-63.36-.3-114.47-51.91-114.17-115.27"/></g></svg>