<svg viewBox="0 0 240 240" width="96" height="96" xmlns="http://www.w3.org/2000/svg" fill-rule="evenodd" clip-rule="evenodd" stroke-linejoin="round" stroke-miterlimit="2"><path d="M113.038 120.365c-9.541-2.584-17.815-3.936-25.655-4.049-17.524-.252-26.32.446-38.916 4.696-.902.304 2.33-6.222 3.532-8.015-4.231.251-14.956 2.906-16.956 3.158-1.615.203.431-6.049 3.46-11.229-4.319-.174-14.755.372-16.147-.027-2.226-.638 6.639-10.433 8.504-11.632-3.216-.45-12.274-2.808-14.238-4.133-1.874-1.264 9.504-8.214 12.475-9.679-2.951-2.236-11.113-9.103-11.626-11.54-.343-1.631 10.02-3.154 16.407-3.846l.011.007c-1.965-6.117-4.789-16.203-3.16-16.553 2.435-.522 12.028 4.141 15.271 5.927.13-3.31 1.851-16.531 3.768-15.333 2.009 1.256 7.848 8.572 9.567 11.326.337-2.192 5.679-14.274 7.167-12.5.931 1.11 4.677 10.866 6.592 14.74 3.5-4.874 8.38-9.286 8.851-7.728.583 1.929 2.52 12.807 4.012 16.774 1.149-1.828 5.796-7.434 5.885-6.487 1.241 13.236 4.181 21.556 11.539 37.462 3.291 7.114 7.889 14.12 14.127 21.782-.491-9.873-1.761-18.159-4.077-25.651-5.176-16.744-8.557-24.894-16.492-35.561-.568-.764 6.637.293 8.714.883-1.546-3.947-7.386-13.326-8.243-15.15-.693-1.473 5.886-1.459 11.748-.18-1.169-4.161-4.913-13.918-4.964-15.365-.081-2.314 11.974 3.09 13.691 4.493-.566-3.197-1.122-12.541-.469-14.818.623-2.173 10.749 6.5 13.06 8.873 1.215-3.498 5.223-13.382 7.383-14.623 1.445-.831 6.096 8.555 8.728 14.415l-.003.012c5.21-3.759 13.93-9.562 14.766-8.12 1.249 2.155-.221 12.719-.918 16.355 3.188-.9 16.294-3.348 15.747-1.155-.573 2.298-5.727 10.112-7.816 12.598 2.188-.357 15.33.99 14.103 2.954-.768 1.228-8.889 7.806-11.982 10.825 5.717 1.823 11.421 5.1 10.084 6.03-1.654 1.151-11.401 6.354-14.713 8.999 2.093.528 8.862 3.215 7.988 3.592-12.205 5.27-19.209 10.637-32.063 22.55-5.749 5.328-10.991 11.866-16.35 20.167 9.238-3.518 16.726-7.287 23.136-11.804 14.325-10.097 21.031-15.831 28.724-26.674.551-.776 1.772 6.403 1.853 8.56 3.276-2.69 10.392-11.142 11.861-12.521 1.187-1.114 3.207 5.147 3.801 11.118 3.596-2.398 11.718-8.974 13.079-9.469 2.176-.792.761 12.343-.043 14.409 2.866-1.526 11.581-4.943 13.948-5.026 2.259-.079-2.861 12.231-4.403 15.163 3.702.075 14.341.833 16.189 2.503 1.237 1.118-6.252 8.441-11.013 12.755l-.013.001c5.185 3.793 13.399 10.294 12.286 11.534-1.663 1.854-12.165 3.72-15.838 4.181 1.841 2.754 8.219 14.462 5.964 14.619-2.363.165-11.387-2.322-14.397-3.54 1.016 1.971 3.796 14.886 1.549 14.326-1.406-.35-10.17-6.042-13.997-8.05.033 6-1.321 12.438-2.618 11.454-1.606-1.218-9.566-8.88-13.105-11.213.145 2.154-.319 9.421-.948 8.707-8.784-9.979-16.052-14.981-31.355-23.525-6.844-3.821-14.682-6.786-24.232-9.318 6.2 7.699 12.099 13.656 18.376 18.356 14.029 10.504 21.555 15.11 34.244 19.075.908.284-5.542 3.664-7.569 4.408 3.571 2.284 13.808 6.44 15.573 7.412 1.426.785-3.904 4.64-9.399 7.051 3.391 2.679 12.156 8.371 13.047 9.513 1.426 1.825-11.503 4.538-13.717 4.412 2.337 2.254 8.279 9.487 9.09 11.712.774 2.124-12.517 1.059-15.781.498 1.073 3.544 3.64 13.896 2.622 16.17-.681 1.521-9.96-3.338-15.534-6.532l-.005-.012c-2.005 6.104-5.649 15.924-7.173 15.249-2.277-1.009-7.297-10.42-8.871-13.771-2.051 2.602-11.214 12.286-12.061 10.19-.887-2.197-1.311-11.547-1.082-14.786-1.561 1.575-12.984 8.21-13.146 5.9-.101-1.445 2.603-11.54 3.331-15.8-5.696 1.885-12.237 2.587-11.703 1.049.662-1.903 5.489-11.842 6.614-15.929-2.004.804-9.059 2.608-8.574 1.789 6.776-11.438 9.288-19.896 12.685-37.09 1.519-7.69 1.917-16.06 1.374-25.926-5.406 8.276-9.249 15.727-11.779 23.148-5.655 16.588-7.709 25.169-7.56 38.463.011.952-5.197-4.138-6.531-5.836-1.069 4.102-1.858 15.122-2.236 17.102-.306 1.599-5.62-2.279-9.61-6.76-1.5 4.053-4.205 14.148-5.015 15.349-1.295 1.92-7.871-9.538-8.435-11.682-1.421 2.919-6.464 10.806-8.33 12.264-1.781 1.392-4.875-11.577-5.35-14.855-3.039 2.116-12.091 7.756-14.568 7.491-1.657-.177.097-10.504 1.412-16.793l.01-.008c-6.425-.021-16.89-.452-16.719-2.11.256-2.478 7.655-10.16 10.356-12.692-3.108-1.146-15.15-6.869-13.418-8.322 1.815-1.522 10.577-4.815 13.728-5.598-1.98-.998-11.82-9.812-9.673-10.679 1.343-.543 11.779-1.09 16.056-1.715-3.553-4.835-6.242-10.839-4.614-10.806 2.015.041 12.958 1.561 17.193 1.368-1.383-1.657-5.279-7.81-4.351-7.602 12.972 2.91 21.792 2.685 39.194.602 7.783-.931 15.866-3.139 25.081-6.705z" fill="#ff9fbe"/><path d="M113.045 120.366c-9.544-2.585-17.82-3.938-25.662-4.051-6.343-.091-11.542-.058-16.192.223.724-2.221 5.82-3.901 5.549-5.255-.589-2.945-6.527-3.386-6.199-5.677.347-2.425 7.938-2.872 8.546-4.669.491-1.452-5.393-6.572-3.366-9.694 2.028-3.122 9.098.171 10.225-.868 1.395-1.287-1.285-8.402.79-9.706 1.96-1.232 4.777 4.013 7.708 3.354 1.347-.303.809-5.642 2.544-7.206 1.635 4.362 3.719 9.125 6.382 14.883 3.293 7.118 7.894 14.128 14.138 21.795-.49-9.876-1.761-18.164-4.077-25.657-1.873-6.06-3.511-10.995-5.216-15.33 2.336.002 5.509 4.329 6.712 3.653 2.619-1.47 1.203-7.254 3.484-7.65 2.414-.419 5.184 6.662 7.082 6.684 1.533.018 4.584-7.16 8.18-6.196 3.596.964 2.649 8.705 3.986 9.456 1.655.929 7.594-3.818 9.475-2.248 1.777 1.483-2.341 5.784-.808 8.367.705 1.187 5.616-.974 7.64.192-3.644 2.903-7.53 6.357-12.182 10.669-5.752 5.331-10.997 11.874-16.36 20.181 9.241-3.518 16.731-7.288 23.142-11.806 5.185-3.654 9.372-6.737 12.968-9.698.72 2.222-2.415 6.577-1.4 7.513 2.208 2.036 7.271-1.097 8.352.949 1.144 2.166-4.734 6.989-4.169 8.801.456 1.464 8.226 2.147 8.421 5.865.195 3.718-7.461 5.209-7.762 6.713-.372 1.861 5.978 6.042 5.066 8.317-.861 2.148-6.224-.439-8.207 1.817-.911 1.037 2.661 5.04 2.178 7.325-3.886-2.568-8.372-5.197-13.911-8.289-6.848-3.823-14.691-6.79-24.249-9.323 6.202 7.702 12.102 13.66 18.38 18.361 5.078 3.802 9.303 6.831 13.231 9.337-1.891 1.371-7.001-.264-7.578.99-1.255 2.729 3.29 6.576 1.678 8.236-1.707 1.758-8.11-2.342-9.658-1.245-1.251.886.5 8.487-2.975 9.821-3.476 1.334-7.26-5.486-8.783-5.307-1.885.221-3.899 7.552-6.344 7.388-2.309-.155-1.506-6.055-4.264-7.244-1.268-.546-3.971 4.088-6.294 4.335 1.242-4.49 2.355-9.569 3.585-15.792 1.52-7.694 1.918-16.07 1.373-25.943-5.408 8.278-9.252 15.731-11.782 23.154-2.047 6.004-3.622 10.959-4.791 15.468-1.888-1.375-1.912-6.74-3.283-6.901-2.983-.35-5.237 5.161-7.315 4.141-2.199-1.08-.278-8.437-1.8-9.57-1.23-.916-7.917 3.098-10.26.205s2.974-8.6 2.334-9.993c-.793-1.724-8.388-1.375-8.987-3.75-.566-2.244 5.293-3.303 5.571-6.294.128-1.375-5.115-2.513-6.068-4.646 4.654-.207 9.828-.717 16.126-1.471 7.787-.932 15.876-3.142 25.098-6.711z" fill="#ffc7db"/></svg>