<?xml version="1.0" encoding="UTF-8" standalone="no"?>
<!DOCTYPE svg PUBLIC "-//W3C//DTD SVG 1.1//EN" "http://www.w3.org/Graphics/SVG/1.1/DTD/svg11.dtd">
<svg width="100%" height="100%" viewBox="0 0 64 64" version="1.1" xmlns="http://www.w3.org/2000/svg" xmlns:xlink="http://www.w3.org/1999/xlink" xml:space="preserve" xmlns:serif="http://www.serif.com/" style="fill-rule:evenodd;clip-rule:evenodd;stroke-linejoin:round;stroke-miterlimit:2;">
    <rect id="アートボード1" x="0" y="0" width="64" height="64" style="fill:none;"/>
    <g id="アートボード11" serif:id="アートボード1">
        <g id="reference-grid" serif:id="reference grid">
            <g id="reference-grid1" serif:id="reference grid">
                <g id="icon" transform="matrix(1.02752,0,0,1.03704,-1.65138,-0.148148)">
                    <path d="M60,19.429C60,10.908 53.028,4 44.429,4L21.08,4C12.475,4 5.5,10.911 5.5,19.437L5.5,42.538C5.5,51.077 12.487,58 21.105,58L44.429,58C53.028,58 60,51.092 60,42.571L60,19.429Z" style="fill:rgb(0,80,139);"/>
                </g>
                <g id="icon-base" transform="matrix(0.954128,0,0,0.962963,0.752294,2.14815)">
                    <path d="M60,18.514C60,10.498 53.442,4 45.352,4L20.173,4C12.069,4 5.5,10.509 5.5,18.538L5.5,43.462C5.5,51.491 12.069,58 20.173,58L45.327,58C53.431,58 60,51.491 60,43.462L60,18.514Z" style="fill:rgb(0,96,182);"/>
                </g>
            </g>
            <g transform="matrix(4.01899,0,0,4.01899,-58.2579,-10.0504)">
                <g transform="matrix(10.5431,0,0,10.5431,17.2412,13.9464)">
                    <path d="M0.364,-0.201L0.364,-0L0.236,-0L0.236,-0.201L0.036,-0.201L0.036,-0.329L0.236,-0.329L0.236,-0.529L0.364,-0.529L0.364,-0.329L0.564,-0.329L0.564,-0.201L0.364,-0.201Z" style="fill:white;fill-rule:nonzero;"/>
                </g>
                <g transform="matrix(10.5431,0,0,10.5431,22.4493,13.9464)">
                    <path d="M0.378,-0L0.236,-0L0.236,-0.488L0.069,-0.488L0.069,-0.583C0.113,-0.585 0.144,-0.588 0.162,-0.592C0.19,-0.598 0.212,-0.61 0.23,-0.629C0.242,-0.642 0.251,-0.659 0.257,-0.68C0.261,-0.692 0.263,-0.702 0.263,-0.708L0.378,-0.708L0.378,-0Z" style="fill:white;fill-rule:nonzero;"/>
                </g>
            </g>
        </g>
    </g>
</svg>
