<?xml version="1.0" encoding="UTF-8" standalone="no"?>
<!DOCTYPE svg PUBLIC "-//W3C//DTD SVG 1.1//EN" "http://www.w3.org/Graphics/SVG/1.1/DTD/svg11.dtd">
<svg width="100%" height="100%" viewBox="0 0 64 64" version="1.1" xmlns="http://www.w3.org/2000/svg" xmlns:xlink="http://www.w3.org/1999/xlink" xml:space="preserve" xmlns:serif="http://www.serif.com/" style="fill-rule:evenodd;clip-rule:evenodd;stroke-linejoin:round;stroke-miterlimit:2;">
    <rect id="アートボード1" x="0" y="0" width="64" height="64" style="fill:none;"/>
    <g id="アートボード11" serif:id="アートボード1">
        <g id="reference-grid" serif:id="reference grid">
            <g id="reference-grid1" serif:id="reference grid">
                <g id="icon" transform="matrix(1.02752,0,0,1.03704,-1.65138,-0.148148)">
                    <path d="M60,19.402C60,15.317 58.362,11.4 55.447,8.511C52.532,5.623 48.578,4 44.455,4L21.097,4C12.483,4 5.5,10.919 5.5,19.454L5.5,42.613C5.5,51.111 12.453,58 21.03,58L44.471,58C53.047,58 60,51.111 60,42.614L60,19.402Z" style="fill:rgb(182,4,0);"/>
                </g>
                <g id="icon-base" transform="matrix(0.954128,0,0,0.962963,0.752294,2.14815)">
                    <path d="M60,18.537C60,10.509 53.431,4 45.328,4L20.2,4C12.081,4 5.5,10.521 5.5,18.565L5.5,43.462C5.5,51.491 12.069,58 20.173,58L45.327,58C53.431,58 60,51.491 60,43.462L60,18.537Z" style="fill:white;fill-opacity:0.2;"/>
                </g>
            </g>
            <g transform="matrix(3.7563,0,0,3.7563,-23.838,-7.65823)">
                <path d="M15.419,8.473C15.68,9.269 16.037,10.005 16.487,10.681C16.509,10.663 16.544,10.629 16.591,10.578C17.155,10.032 17.705,9.405 18.243,8.696L19.263,9.465C18.645,10.178 17.92,10.856 17.087,11.499C17.873,12.459 18.887,13.262 20.13,13.91L19.329,14.913C17.576,13.895 16.273,12.514 15.419,10.769L15.419,14.858C15.419,15.207 15.351,15.457 15.217,15.606C15.057,15.78 14.722,15.867 14.213,15.867C13.628,15.867 13.117,15.84 12.681,15.786L12.381,14.613C13.068,14.711 13.59,14.76 13.946,14.76C14.077,14.76 14.155,14.724 14.181,14.651C14.195,14.604 14.203,14.531 14.203,14.433L14.203,8.271L9.813,8.271L9.813,7.218L14.203,7.218L14.203,5.255L15.419,5.255L15.419,7.218L17.878,7.218C17.46,6.637 17.038,6.153 16.613,5.768L17.562,5.233C18.042,5.641 18.485,6.113 18.892,6.651L17.982,7.218L19.83,7.218L19.83,8.271L15.419,8.271L15.419,8.473ZM12.256,11.308C11.812,10.727 11.229,10.116 10.505,9.476L11.443,8.718C12.087,9.238 12.683,9.829 13.232,10.49L12.256,11.308ZM9.6,13.719C10.956,13.039 12.292,12.165 13.608,11.096L14.066,12.066C12.834,13.15 11.565,14.059 10.26,14.793L9.6,13.719Z" style="fill:white;fill-rule:nonzero;"/>
            </g>
        </g>
    </g>
</svg>
