<?xml version="1.0" encoding="UTF-8" standalone="no"?>
<!DOCTYPE svg PUBLIC "-//W3C//DTD SVG 1.1//EN" "http://www.w3.org/Graphics/SVG/1.1/DTD/svg11.dtd">
<svg width="100%" height="100%" viewBox="0 0 64 64" version="1.1" xmlns="http://www.w3.org/2000/svg" xmlns:xlink="http://www.w3.org/1999/xlink" xml:space="preserve" xmlns:serif="http://www.serif.com/" style="fill-rule:evenodd;clip-rule:evenodd;stroke-linejoin:round;stroke-miterlimit:2;">
    <rect id="求" x="0" y="0" width="64" height="64" style="fill:none;"/>
    <g id="icon-base" serif:id="icon base">
        <path d="M0,25.6c0,-8.961 0,-13.441 1.744,-16.864c1.534,-3.011 3.982,-5.458 6.992,-6.992c3.423,-1.744 7.903,-1.744 16.864,-1.744l12.8,0c8.961,0 13.441,0 16.864,1.744c3.011,1.534 5.458,3.982 6.992,6.992c1.744,3.423 1.744,7.903 1.744,16.864l0,12.8c0,8.961 0,13.441 -1.744,16.864c-1.534,3.011 -3.982,5.458 -6.992,6.992c-3.423,1.744 -7.903,1.744 -16.864,1.744l-12.8,0c-8.961,0 -13.441,0 -16.864,-1.744c-3.011,-1.534 -5.458,-3.982 -6.992,-6.992c-1.744,-3.423 -1.744,-7.903 -1.744,-16.864l0,-12.8Z" style="fill:#fff;fill-opacity:0.96;fill-rule:nonzero;"/>
        <path d="M0,25.6c0,-8.961 0,-13.441 1.744,-16.864c1.534,-3.011 3.982,-5.458 6.992,-6.992c3.423,-1.744 7.903,-1.744 16.864,-1.744l12.8,0c8.961,0 13.441,0 16.864,1.744c3.011,1.534 5.458,3.982 6.992,6.992c1.744,3.423 1.744,7.903 1.744,16.864l0,12.8c0,8.961 0,13.441 -1.744,16.864c-1.534,3.011 -3.982,5.458 -6.992,6.992c-3.423,1.744 -7.903,1.744 -16.864,1.744l-12.8,0c-8.961,0 -13.441,0 -16.864,-1.744c-3.011,-1.534 -5.458,-3.982 -6.992,-6.992c-1.744,-3.423 -1.744,-7.903 -1.744,-16.864l0,-12.8Z" style="fill:url(#_Radial1);fill-rule:nonzero;"/>
        <path d="M0,25.6c0,-8.961 0,-13.441 1.744,-16.864c1.534,-3.011 3.982,-5.458 6.992,-6.992c3.423,-1.744 7.903,-1.744 16.864,-1.744l12.8,0c8.961,0 13.441,0 16.864,1.744c3.011,1.534 5.458,3.982 6.992,6.992c1.744,3.423 1.744,7.903 1.744,16.864l0,12.8c0,8.961 0,13.441 -1.744,16.864c-1.534,3.011 -3.982,5.458 -6.992,6.992c-3.423,1.744 -7.903,1.744 -16.864,1.744l-12.8,0c-8.961,0 -13.441,0 -16.864,-1.744c-3.011,-1.534 -5.458,-3.982 -6.992,-6.992c-1.744,-3.423 -1.744,-7.903 -1.744,-16.864l0,-12.8Zm2,0l0,12.8c0,8.472 -0.123,12.72 1.526,15.956c1.342,2.634 3.484,4.776 6.118,6.118c3.236,1.649 7.484,1.526 15.956,1.526l12.8,0c8.472,0 12.72,0.123 15.956,-1.526c2.634,-1.342 4.776,-3.484 6.118,-6.118c1.649,-3.236 1.526,-7.484 1.526,-15.956l0,-12.8c0,-8.472 0.123,-12.72 -1.526,-15.956c-1.342,-2.634 -3.484,-4.776 -6.118,-6.118c-3.236,-1.649 -7.484,-1.526 -15.956,-1.526l-12.8,0c-8.472,0 -12.72,-0.123 -15.956,1.526c-2.634,1.342 -4.776,3.484 -6.118,6.118c-1.649,3.236 -1.526,7.484 -1.526,15.956Z" style="fill:url(#_Radial2);"/>
    </g>
    <g id="text">
        <path d="M12.622,18.622l38.727,0l0,4.036l-38.727,0l-0,-4.036Zm20.991,3.578c0.818,2.533 1.844,4.983 3.079,7.348c1.235,2.365 2.66,4.577 4.274,6.635c1.614,2.058 3.404,3.887 5.369,5.486c1.965,1.599 4.081,2.899 6.349,3.9c-0.318,0.285 -0.674,0.638 -1.069,1.059c-0.395,0.421 -0.767,0.866 -1.116,1.335c-0.349,0.469 -0.642,0.901 -0.877,1.298c-3.093,-1.589 -5.866,-3.694 -8.319,-6.316c-2.453,-2.622 -4.588,-5.62 -6.405,-8.994c-1.816,-3.374 -3.336,-6.977 -4.559,-10.809l3.274,-0.943Zm12.422,1.845l3.644,2.566c-0.972,1.115 -2.027,2.263 -3.166,3.446c-1.139,1.183 -2.282,2.306 -3.43,3.369c-1.148,1.064 -2.224,2.011 -3.227,2.841l-3.004,-2.305c0.974,-0.834 2.027,-1.817 3.158,-2.947c1.132,-1.131 2.23,-2.307 3.295,-3.529c1.065,-1.222 1.975,-2.369 2.73,-3.442Zm-8.509,-9.882l2.481,-2.615c0.906,0.433 1.869,0.927 2.89,1.484c1.02,0.557 2.005,1.126 2.953,1.707c0.949,0.581 1.724,1.113 2.328,1.595l-2.63,2.958c-0.57,-0.512 -1.31,-1.073 -2.219,-1.683c-0.909,-0.611 -1.87,-1.218 -2.882,-1.823c-1.012,-0.604 -1.986,-1.146 -2.921,-1.624Zm-22.829,12.777l3.18,-2.173c0.882,0.755 1.782,1.599 2.699,2.531c0.917,0.932 1.762,1.86 2.536,2.785c0.774,0.925 1.387,1.775 1.84,2.551l-3.377,2.454c-0.42,-0.759 -1.008,-1.617 -1.764,-2.574c-0.756,-0.956 -1.576,-1.927 -2.462,-2.913c-0.886,-0.985 -1.77,-1.873 -2.652,-2.661Zm14.969,-15.296l4.277,0l0,35.403c0,1.334 -0.168,2.343 -0.504,3.027c-0.336,0.684 -0.914,1.2 -1.735,1.547c-0.803,0.364 -1.895,0.597 -3.275,0.701c-1.38,0.103 -3.048,0.146 -5.004,0.13c-0.092,-0.603 -0.279,-1.331 -0.562,-2.185c-0.283,-0.854 -0.588,-1.588 -0.916,-2.204c1.451,0.046 2.803,0.073 4.056,0.081c1.253,0.008 2.099,0.006 2.539,-0.008c0.411,-0.013 0.701,-0.097 0.87,-0.252c0.17,-0.155 0.254,-0.436 0.254,-0.843l0,-35.397Zm-18.351,32.761c1.245,-0.629 2.673,-1.382 4.285,-2.258c1.611,-0.877 3.322,-1.823 5.13,-2.84c1.809,-1.017 3.598,-2.03 5.367,-3.04l1.363,3.761c-2.289,1.447 -4.634,2.891 -7.035,4.331c-2.401,1.44 -4.574,2.718 -6.519,3.832l-2.591,-3.786Z" style="fill:#fff;fill-rule:nonzero;"/>
    </g>
    <defs>
        <radialGradient id="_Radial1" cx="0" cy="0" r="1" gradientUnits="userSpaceOnUse" gradientTransform="matrix(102,-27,27,102,-8,50)"><stop offset="0" style="stop-color:#ee3673;stop-opacity:0.85"/><stop offset="0.28" style="stop-color:#ee3673;stop-opacity:0.78"/><stop offset="0.56" style="stop-color:#ee3673;stop-opacity:0.58"/><stop offset="0.78" style="stop-color:#ee3673;stop-opacity:0.67"/><stop offset="1" style="stop-color:#ee3673;stop-opacity:0.92"/></radialGradient>
        <radialGradient id="_Radial2" cx="0" cy="0" r="1" gradientUnits="userSpaceOnUse" gradientTransform="matrix(48,61,-61,48,20,8)"><stop offset="0" style="stop-color:#fff;stop-opacity:0.89"/><stop offset="0.07" style="stop-color:#f9bed1;stop-opacity:0.93"/><stop offset="0.15" style="stop-color:#f481a6;stop-opacity:0.98"/><stop offset="0.4" style="stop-color:#f26894;stop-opacity:1"/><stop offset="0.79" style="stop-color:#f47ea4;stop-opacity:1"/><stop offset="1" style="stop-color:#fff;stop-opacity:1"/></radialGradient>
    </defs>
</svg>
