<?xml version="1.0" encoding="UTF-8" standalone="no"?>
<!DOCTYPE svg PUBLIC "-//W3C//DTD SVG 1.1//EN" "http://www.w3.org/Graphics/SVG/1.1/DTD/svg11.dtd">
<svg width="100%" height="100%" viewBox="0 0 64 64" version="1.1" xmlns="http://www.w3.org/2000/svg" xmlns:xlink="http://www.w3.org/1999/xlink" xml:space="preserve" xmlns:serif="http://www.serif.com/" style="fill-rule:evenodd;clip-rule:evenodd;stroke-linejoin:round;stroke-miterlimit:2;">
    <rect id="アートボード1" x="0" y="0" width="64" height="64" style="fill:none;"/>
    <g id="アートボード11" serif:id="アートボード1">
        <g id="reference-grid" serif:id="reference grid">
            <g id="reference-grid1" serif:id="reference grid">
                <g id="icon" transform="matrix(1.02752,0,0,1.03704,-1.65138,-0.148148)">
                    <path d="M60,19.429C60,10.908 53.028,4 44.429,4L21.08,4C12.475,4 5.5,10.911 5.5,19.437L5.5,42.538C5.5,51.077 12.487,58 21.105,58L44.429,58C53.028,58 60,51.092 60,42.571L60,19.429Z" style="fill:rgb(0,80,139);"/>
                </g>
                <g id="icon-base" transform="matrix(0.954128,0,0,0.962963,0.752294,2.14815)">
                    <path d="M60,18.514C60,10.498 53.442,4 45.352,4L20.173,4C12.069,4 5.5,10.509 5.5,18.538L5.5,43.462C5.5,51.491 12.069,58 20.173,58L45.327,58C53.431,58 60,51.491 60,43.462L60,18.514Z" style="fill:rgb(0,96,182);"/>
                </g>
            </g>
            <g transform="matrix(3.45479,0,0,3.45479,-40.6923,-49.1134)">
                <path d="M23.947,25.441C24.096,25.824 24.283,26.156 24.51,26.438C24.83,26.195 25.188,25.867 25.582,25.453L26.449,26.086C26.07,26.438 25.629,26.771 25.125,27.088C25.535,27.443 26.104,27.762 26.83,28.043L26.051,29.086C24.395,28.281 23.354,27.072 22.928,25.459C22.689,25.736 22.375,26.023 21.984,26.32L21.984,27.791C22.578,27.658 23.162,27.498 23.736,27.311L23.818,28.225C22.779,28.627 21.559,28.975 20.156,29.268L19.811,28.201C20.299,28.127 20.654,28.066 20.877,28.02L20.877,27.029C20.51,27.229 20.113,27.41 19.688,27.574L19.102,26.859L19.102,28.488L16.641,28.488L16.641,29.098L15.539,29.098L15.539,25.066L19.102,25.066L19.102,26.766C19.98,26.488 20.82,26.047 21.621,25.441L19.354,25.441L19.354,24.563L21.023,24.563L21.023,23.795L19.822,23.795L19.822,23.027L21.023,23.027L21.023,22.295L19.582,22.295L19.582,21.469L21.023,21.469L21.023,20.725C20.68,20.873 20.318,21.006 19.939,21.123L19.318,20.355L19.318,20.906L15.252,20.906L15.252,19.852L19.318,19.852L19.318,20.338L19.406,20.314C20.207,20.1 20.885,19.82 21.439,19.477L19.412,19.477L19.412,18.551L22.236,18.551L22.236,17.689L23.449,17.689L23.449,18.551L26.484,18.551L26.484,19.477L24.492,19.477C25.203,19.723 25.855,20.012 26.449,20.344L25.717,21.088C25.068,20.705 24.256,20.324 23.279,19.945L23.83,19.477L21.838,19.477L22.441,19.969C22.102,20.191 21.715,20.404 21.281,20.607L21.152,20.666L22.131,20.666L22.131,21.469L23.643,21.469L23.643,20.666L24.744,20.666L24.744,21.469L26.279,21.469L26.279,22.295L24.744,22.295L24.744,23.027L26.016,23.027L26.016,23.795L24.744,23.795L24.744,24.563L26.725,24.563L26.725,25.441L23.947,25.441ZM16.641,26.074L16.641,27.48L18.035,27.48L18.035,26.074L16.641,26.074ZM23.643,22.295L22.131,22.295L22.131,23.027L23.643,23.027L23.643,22.295ZM23.643,23.795L22.131,23.795L22.131,24.563L23.643,24.563L23.643,23.795ZM15.709,18.135L18.961,18.135L18.961,19.119L15.709,19.119L15.709,18.135ZM15.709,21.65L18.961,21.65L18.961,22.623L15.709,22.623L15.709,21.65ZM15.709,23.367L18.961,23.367L18.961,24.316L15.709,24.316L15.709,23.367Z" style="fill:white;fill-rule:nonzero;"/>
            </g>
        </g>
    </g>
</svg>
