<?xml version="1.0" encoding="UTF-8" standalone="no"?>
<!DOCTYPE svg PUBLIC "-//W3C//DTD SVG 1.1//EN" "http://www.w3.org/Graphics/SVG/1.1/DTD/svg11.dtd">
<!-- Created with Vectornator (http://vectornator.io/) -->
<svg height="2480.0px" stroke-miterlimit="10" style="fill-rule:nonzero;clip-rule:evenodd;stroke-linecap:round;stroke-linejoin:round;" version="1.1" viewBox="0 0 2480 2480" width="2480.0px" xml:space="preserve" xmlns="http://www.w3.org/2000/svg" xmlns:xlink="http://www.w3.org/1999/xlink">
<defs/>
<g id="トレース" visibility="hidden">
<path d="M1240 586.814C1259.53 556.068 1267.78 545.274 1288.42 514.254C1301.84 494.081 1338.91 441.683 1361.28 446.644C1375.32 449.758 1387.32 502.183 1393.72 528.61C1401.91 562.406 1408.57 601.255 1412.07 624.996C1428.99 609.946 1459.07 588.767 1464.8 584.988C1477.06 576.894 1540.68 539.766 1559.92 554.572C1570.32 562.573 1563.57 609.203 1560.39 636.912C1555.7 677.775 1549 700.787 1544.11 724.292C1570.91 712.744 1617.98 702.834 1646.95 699.597C1683.77 695.483 1716.81 694.601 1724.68 708.415C1736.75 729.598 1701.61 776.678 1687.22 797.123C1668.3 824.021 1627.55 872.194 1602.43 903.029C1638.01 896.574 1680.69 891.775 1711.12 894.36C1744.05 897.158 1775.63 900.01 1777.48 916.524C1780.36 942.296 1730.13 961.05 1674.27 1001.78C1617.92 1042.86 1594.47 1062.16 1582.12 1075.53C1613.68 1074.09 1626.14 1071.71 1653.59 1075.66C1674.33 1078.64 1701.52 1085.63 1703.57 1095.67C1706.74 1111.13 1654.26 1132.8 1639.61 1142.73C1630.95 1148.58 1570.49 1194.24 1546.42 1216.14C1516.31 1243.53 1453.69 1307.6 1415.52 1384.24C1397.63 1420.18 1377.18 1455.49 1362.44 1492.92C1352.12 1519.15 1346.23 1548.64 1339.09 1575.83C1335.08 1591.08 1330.6 1606.19 1326.55 1621.42C1324.28 1629.94 1325.72 1642.39 1317.33 1647.41C1301.78 1656.71 1281.53 1644.12 1264.94 1644.36C1253.68 1644.53 1242.39 1644.58 1231.18 1645.7C1214.62 1647.35 1178.07 1669.53 1167.04 1656.44C1158.92 1646.8 1154.79 1625.76 1149.7 1606.91C1147.06 1597.11 1142.07 1588.11 1138.34 1578.67C1118.27 1527.88 1098.22 1476.99 1069.84 1430.37C1043.51 1387.1 1040.42 1382.68 1016.01 1337.68C997.552 1303.66 967.961 1262.31 947.894 1237.31C928.739 1213.45 887.069 1176.9 855.472 1163.99C824.584 1151.38 751.174 1130.35 750.708 1107.82C750.319 1088.98 808.048 1078.63 841.299 1076.9C863.334 1075.75 876.011 1074.62 899.186 1076.35C890.462 1061.55 868.949 1042.31 853.737 1029.11C832.412 1010.61 791.412 979.293 768.933 962.933C750.8 949.737 700.84 941.689 713.074 913.192C721.727 893.037 782.488 894.104 807.797 895.955C841.717 898.436 852.144 898.717 890.355 907.481C861.417 869.878 834.719 844.549 818.255 820.955C795.261 788.003 756.604 727.99 775.814 702.585C785.853 689.307 833.706 693.841 871.885 702.444C891.113 706.777 913.203 711.908 939.558 718.967C931.572 692.178 927.694 639.882 926.142 615.669C924.409 588.628 925.487 523.147 944.347 515.822C967.02 507.017 1016.93 556.61 1032.32 571.603C1049.16 588.007 1066.26 607.209 1085.31 628.728C1086.65 619.608 1090.67 566.542 1091.97 542.893C1093.55 514.333 1099.1 446.741 1121.61 446.153C1139.59 445.683 1170.7 489.727 1189.54 514.582C1209.38 540.769 1220.75 555.621 1240 586.814Z" fill="#090909" fill-opacity="0.988235" fill-rule="nonzero" opacity="1" stroke="none"/>
<path d="M1398.81 1315.62C1400.97 1316.63 1428.13 1309.52 1430.2 1315C1434.5 1326.36 1409.36 1367.82 1394.36 1394.05C1369.7 1437.19 1343.65 1477.62 1330.96 1525.94C1322.54 1557.98 1317.74 1588.29 1310.13 1621.05C1309.58 1623.45 1307.85 1625.45 1306.29 1627.35C1298.75 1636.53 1280.67 1628 1267.32 1626.84C1253.97 1625.69 1221.47 1630.07 1211.17 1632.15C1199.77 1634.44 1185.01 1646.09 1176.34 1632.5C1172.79 1626.94 1166.89 1607.76 1165.24 1603.12C1154.91 1574.25 1147.67 1553.09 1136.19 1524.44C1122.49 1490.26 1069.85 1391.99 1063.96 1382.8C1049.34 1359.98 1036.2 1335.83 1020.23 1313.83C1015.86 1307.79 1006.09 1294.68 1013.24 1292.58C1026.46 1288.72 1064.22 1329.16 1072.38 1313.47C1077.45 1303.73 1075.42 1236.97 1091.24 1230.56C1102.31 1226.06 1113.34 1236.47 1133.75 1257.27C1150.86 1274.7 1161.47 1289.26 1172.49 1288.67C1183.03 1288.1 1201.84 1252.36 1211.49 1233.63C1222.33 1212.57 1232.77 1187.51 1247.91 1189C1262.08 1190.38 1272.04 1224.64 1280.36 1238.95C1284.45 1245.99 1304.49 1290.11 1311.35 1291.57C1322.93 1294.04 1341.48 1274.84 1350.09 1267.41C1366.46 1253.29 1381.81 1244.11 1391.77 1249.56C1400.77 1254.48 1395.42 1275.49 1394.93 1286.02C1394.27 1300.07 1393.23 1313.01 1398.81 1315.62Z" fill="#f7b9ce" fill-opacity="0.996078" fill-rule="nonzero" opacity="1" stroke="none"/>
<path d="M1229.33 1658.5C1284.35 1654.46 1340.19 1685.65 1358.63 1740.48C1383.13 1813.35 1336.31 1899.87 1256.62 1907.47C1127.46 1919.79 1062.27 1760.45 1166.7 1681.48C1184.96 1667.67 1207.04 1660.14 1229.33 1658.5Z" fill="#090909" fill-opacity="0.972549" fill-rule="nonzero" opacity="1" stroke="none"/>
<path d="M1389.85 1349.91C1412.45 1336.8 1465.93 1313.88 1468 1319.36C1472.29 1330.72 1428.11 1372.2 1413.12 1398.43C1388.45 1441.57 1362.1 1482.78 1349.41 1531.1C1343.23 1554.61 1322.68 1633.15 1320.43 1652.61C1300.24 1649.14 1266.46 1640.54 1241.01 1641.02C1228.64 1641.25 1217.98 1630.36 1212.18 1631.52C1200.78 1633.81 1186.02 1645.47 1177.35 1631.88C1173.8 1626.32 1167.9 1607.14 1166.25 1602.5C1155.92 1573.63 1148.68 1552.47 1137.2 1523.82C1123.5 1489.64 1070.86 1391.37 1064.97 1382.18C1050.35 1359.36 1037.21 1335.21 1021.24 1313.2C1016.87 1307.17 1007.1 1294.05 1014.25 1291.96C1027.47 1288.09 1065.23 1328.54 1073.39 1312.84C1078.46 1303.1 1076.43 1236.35 1092.25 1229.93C1103.32 1225.44 1114.35 1235.85 1134.76 1256.64C1151.87 1274.08 1164.52 1309.03 1175.54 1308.44C1186.08 1307.87 1193.67 1255.82 1203.32 1237.08C1214.16 1216.03 1218.43 1142.43 1240 1143.26C1265.41 1144.23 1288.43 1206.43 1296.37 1233.33C1298.67 1241.14 1314.33 1282.71 1317.74 1299.16C1337.63 1285.16 1344.1 1276.56 1357.34 1267.65C1375.7 1255.28 1399.09 1248.47 1406.4 1252.63C1413.31 1256.56 1405.84 1290.82 1401.55 1306.59C1398.55 1317.64 1394.17 1332.13 1389.85 1349.91Z" fill="#f7b9ce" fill-opacity="0.996078" fill-rule="nonzero" opacity="0" stroke="none"/>
</g>
<g id="ベクター整形" visibility="hidden">
<path d="M1118.91 444.719C1098.78 448.001 1082.25 524.993 1078.38 551.906C1075.51 571.826 1071.43 596.696 1067.94 620.438C1051.01 605.387 1020.45 579.45 1004.66 567.969C985.91 554.339 926.861 521.01 910.406 534.594C892.078 549.724 899.715 614.671 903.969 639.906C907.008 657.937 910.57 679.501 922.875 724.688C893.565 713.031 877.005 709.499 853.094 704C825.519 697.658 770.469 693.074 762.313 704.125C747.835 723.74 806.643 808.49 821.375 828.688C837.353 850.592 844.228 855.758 869.344 886.594C833.762 880.138 814.762 879.763 784.312 882.063C750.652 884.605 704.088 897.07 702.531 911.969C700.771 928.814 741.916 943.457 797.781 984.188C854.129 1025.27 874.365 1048.39 890.969 1071.72C862.929 1070.28 846.004 1070.76 829.094 1072.38C807.315 1074.46 777.166 1078.09 776.438 1091.09C775.554 1106.85 825.629 1133.43 840.938 1142.31C867.803 1157.91 910.552 1187.15 945.125 1220.28C981.256 1254.91 1018.09 1307.72 1064.47 1379.69C1092.54 1423.23 1120.12 1476.79 1141.44 1553.97C1148.72 1580.32 1160.77 1627 1163.38 1649.66C1199.17 1642.43 1204.56 1640.64 1240 1640.59C1275.44 1640.64 1280.83 1642.43 1316.63 1649.66C1319.23 1627 1331.28 1580.32 1338.56 1553.97C1359.88 1476.79 1387.46 1423.23 1415.53 1379.69C1461.91 1307.72 1498.74 1254.91 1534.88 1220.28C1569.45 1187.15 1612.2 1157.91 1639.06 1142.31C1654.37 1133.43 1704.45 1106.85 1703.56 1091.09C1702.83 1078.09 1672.69 1074.46 1650.91 1072.38C1634 1070.76 1617.07 1070.28 1589.03 1071.72C1605.63 1048.39 1625.87 1025.27 1682.22 984.188C1738.08 943.457 1779.23 928.814 1777.47 911.969C1775.91 897.07 1729.35 884.605 1695.69 882.063C1665.24 879.763 1646.24 880.138 1610.66 886.594C1635.77 855.758 1642.65 850.592 1658.63 828.688C1673.36 808.49 1732.16 723.74 1717.69 704.125C1709.53 693.074 1654.48 697.658 1626.91 704C1603 709.499 1586.43 713.031 1557.13 724.688C1569.43 679.501 1572.99 657.937 1576.03 639.906C1580.28 614.671 1587.92 549.724 1569.59 534.594C1553.14 521.01 1494.09 554.339 1475.34 567.969C1459.55 579.45 1428.99 605.387 1412.06 620.438C1408.57 596.696 1404.49 571.826 1401.63 551.906C1397.75 524.993 1381.22 448.001 1361.09 444.719C1338.77 441.077 1296.39 497.678 1282.47 515.625C1263.89 539.572 1259.53 551.504 1240 582.25C1220.47 551.504 1216.11 539.572 1197.53 515.625C1183.61 497.678 1141.23 441.077 1118.91 444.719Z" fill="#090909" fill-opacity="0.988235" fill-rule="nonzero" opacity="1" stroke="none"/>
<path d="M1240 1118L1240 1642.07C1240.34 1642.08 1240.66 1642.18 1241 1642.17C1266.45 1641.67 1300.24 1650.72 1320.44 1654.38C1322.69 1633.88 1343.23 1551.16 1349.41 1526.4C1362.1 1475.52 1389.33 1450.01 1413.99 1404.58C1418.23 1396.77 1449.16 1375.99 1449.16 1375.99C1449.16 1375.99 1468.54 1348.87 1471.75 1323.29C1476.24 1287.47 1485.13 1184.23 1455.81 1174.83C1433.61 1167.72 1399.38 1194.49 1384.46 1209.11C1370.42 1222.86 1357.65 1235.63 1336.96 1262.93C1328.1 1239.79 1314.9 1208.53 1304.31 1188.77C1288.64 1159.51 1269.33 1117.71 1240 1118Z" fill="#f7b9ce" fill-opacity="0.996078" fill-rule="nonzero" opacity="1" stroke="none"/>
<path d="M1240 1118L1240 1642.07C1239.66 1642.08 1239.34 1642.18 1239 1642.17C1213.55 1641.67 1179.76 1650.72 1159.56 1654.38C1157.31 1633.88 1136.77 1551.16 1130.59 1526.4C1117.9 1475.52 1090.67 1450.01 1066.01 1404.58C1061.77 1396.77 1030.84 1375.99 1030.84 1375.99C1030.84 1375.99 1011.46 1348.87 1008.25 1323.29C1003.76 1287.47 994.869 1184.23 1024.19 1174.83C1046.39 1167.72 1080.62 1194.49 1095.54 1209.11C1109.58 1222.86 1122.35 1235.63 1143.04 1262.93C1151.9 1239.79 1165.1 1208.53 1175.69 1188.77C1191.36 1159.51 1210.67 1117.71 1240 1118Z" fill="#f7b9ce" fill-opacity="0.996078" fill-rule="nonzero" opacity="1" stroke="none"/>
</g>
<g id="お花">
<g opacity="1">
<g opacity="1">
<path d="M1536.33 349.305C1522.73 345.263 1489.05 388.467 1478.46 404.146C1470.63 415.752 1460.54 430.092 1451.16 443.9C1445.12 429.346 1433.84 403.84 1427.43 391.865C1419.82 377.649 1392.94 338.882 1378.52 342.402C1362.46 346.323 1347.56 389.31 1342.58 406.402C1339.01 418.614 1334.71 433.198 1328.72 465.224C1313.9 449.042 1304.6 441.812 1291.29 431.122C1275.95 418.793 1242.86 399.24 1234.4 403.689C1219.39 411.585 1230.54 482.48 1233.64 499.593C1237.01 518.152 1239.75 523.471 1246.13 550.392C1225.81 535.566 1214.02 529.573 1194.26 521.786C1172.41 513.177 1139.47 506.872 1133.98 515.731C1127.77 525.746 1149.1 547.385 1171.74 589.822C1194.58 632.625 1200.25 653.238 1203.57 672.877C1186.45 663.477 1175.71 658.647 1164.63 654.537C1150.36 649.243 1130.38 642.38 1125.98 650.301C1120.65 659.901 1143.96 691.719 1150.85 701.923C1162.95 719.831 1180.86 751.095 1192.47 782.323C1204.6 814.958 1211.66 859.192 1218.9 918.315C1223.28 954.091 1224.32 995.991 1214.28 1050.78C1210.85 1069.49 1204.25 1102.37 1199.02 1117.35C1223.63 1123.68 1227.54 1124.19 1249.75 1134.9C1271.93 1145.67 1274.76 1148.42 1294.99 1163.79C1303.49 1150.39 1325.18 1124.82 1337.73 1110.52C1374.46 1068.65 1407.97 1043.47 1438.74 1024.7C1489.6 993.693 1528.67 971.781 1561.79 961.045C1593.48 950.772 1629.11 945.417 1650.66 943.793C1662.94 942.867 1702.35 941.399 1706.58 931.264C1710.06 922.902 1692.28 911.491 1679.27 903.585C1669.17 897.446 1658.72 892.018 1640.72 884.423C1658.19 874.847 1677.87 866.499 1725.61 857.848C1772.93 849.271 1803.14 852.57 1807.14 841.488C1810.68 831.686 1785.3 809.769 1764.99 797.976C1746.62 787.308 1734.61 781.785 1710.37 775.045C1735.44 763.346 1741.31 762.194 1757.96 753.319C1773.3 745.135 1835.81 709.883 1832.69 693.213C1830.93 683.821 1795.07 670.008 1775.88 665.623C1759.24 661.821 1747.8 659.014 1725.91 657.432C1747.31 632.864 1756.08 620.439 1763.44 610.068C1773.75 595.555 1798.22 557.197 1791.33 542.167C1785.14 528.674 1738.06 531.651 1722.19 534.506C1708.82 536.91 1681.82 543.89 1666.66 548.186C1671.67 532.259 1676.65 515.451 1680.89 502.107C1686.62 484.078 1699.6 430.852 1687.99 422.699C1675.12 413.653 1631.43 436.257 1617.27 443.276C1598.38 452.642 1592.03 458.793 1570.48 472.129C1567.57 446.956 1568.45 438.163 1564.08 417.536C1560.8 402.078 1551.41 353.79 1536.33 349.305Z" fill="#fc7da6" fill-opacity="0.988235" fill-rule="nonzero" opacity="1" stroke="none"/>
<path d="M1408.12 807.632C1389.84 798.561 1365.08 818.896 1346.4 832.468C1333.78 841.636 1316.04 857.199 1303.48 869.011C1298.8 845.646 1294.66 833.782 1290.04 820.917C1285.12 807.238 1271.8 780.1 1255.75 777.828C1239.13 775.477 1219.87 816.127 1208.38 845.359C1212.2 866.725 1215.54 890.856 1218.9 918.315C1223.28 954.091 1224.32 995.991 1214.28 1050.78C1210.85 1069.49 1204.25 1102.37 1199.02 1117.35C1223.63 1123.68 1227.54 1124.19 1249.75 1134.9C1271.93 1145.67 1274.76 1148.42 1294.99 1163.79C1303.49 1150.39 1325.18 1124.82 1337.73 1110.52C1374.46 1068.65 1407.97 1043.47 1438.74 1024.7C1462.36 1010.3 1483.36 997.947 1502.48 987.678C1518.28 960.535 1538.2 920.206 1526.05 908.631C1514.3 897.45 1484.76 903.846 1470.98 908.479C1458.02 912.835 1446.15 916.954 1424.93 927.783C1426.39 910.602 1427.59 887.031 1426.95 871.448C1426 848.377 1426.58 816.339 1408.12 807.632Z" fill="#fcdae6" fill-opacity="0.996078" fill-rule="nonzero" opacity="1" stroke="none"/>
</g>
<g opacity="1">
<path d="M2135.43 1258.67C2135.08 1244.49 2083.59 1225.77 2065.42 1220.54C2051.96 1216.67 2035.21 1211.49 2019.18 1206.82C2031.16 1196.59 2051.95 1178 2061.36 1168.21C2072.54 1156.58 2101.13 1119.06 2093.33 1106.43C2084.65 1092.36 2039.16 1091.44 2021.37 1091.97C2008.65 1092.35 1993.45 1092.75 1961.14 1096.93C1971.96 1077.84 1975.97 1066.76 1982.04 1050.81C1989.03 1032.41 1997.43 994.906 1990.59 988.233C1978.45 976.389 1914.45 1008.85 1899.13 1017.08C1882.51 1026.01 1878.3 1030.25 1854.66 1044.63C1862.49 1020.72 1864.56 1007.66 1865.87 986.459C1867.32 963.02 1863.16 929.743 1853.04 927.253C1841.6 924.436 1827.6 951.398 1794.21 986.022C1760.53 1020.94 1742.67 1032.69 1725.02 1041.91C1728.68 1022.73 1729.96 1011.02 1730.45 999.208C1731.09 984 1731.46 962.877 1722.56 961.138C1711.79 959.03 1688.71 991.01 1681.13 1000.71C1667.82 1017.74 1643.6 1044.42 1617.48 1065.1C1590.18 1086.7 1550.27 1107.06 1496.26 1132.17C1463.58 1147.37 1424.04 1161.28 1368.83 1168.63C1349.98 1171.14 1316.66 1175 1300.8 1174.64C1302.37 1200 1303.09 1203.88 1299.75 1228.31C1296.34 1252.73 1294.6 1256.27 1286.21 1280.25C1301.58 1284.21 1332.6 1296.96 1350.07 1304.48C1401.23 1326.52 1435.51 1350.62 1462.85 1374.11C1508.03 1412.92 1540.92 1443.33 1561.35 1471.53C1580.89 1498.51 1596.98 1530.75 1605.17 1550.75C1609.83 1562.15 1623.38 1599.19 1634.33 1600.08C1643.35 1600.81 1648.73 1580.38 1652.24 1565.57C1654.96 1554.07 1656.9 1542.45 1658.58 1522.99C1673.07 1536.65 1687.08 1552.8 1710.03 1595.54C1732.79 1637.92 1738.96 1667.67 1750.74 1668.06C1761.15 1668.4 1774.18 1637.5 1779.13 1614.55C1783.61 1593.78 1785.16 1580.65 1784.1 1555.51C1802.96 1575.76 1805.87 1580.99 1819.44 1594.08C1831.96 1606.16 1884.77 1654.75 1899.67 1646.64C1908.06 1642.07 1910.14 1603.7 1908.39 1584.09C1906.88 1567.09 1906.02 1555.34 1900.78 1534.03C1930.75 1546.81 1945.27 1551.32 1957.4 1555.13C1974.39 1560.46 2018.42 1571.91 2030.59 1560.72C2041.52 1550.67 2024.17 1506.8 2016.56 1492.59C2010.16 1480.61 1995.19 1457.08 1986.43 1443.98C2003.12 1443.83 2020.65 1443.39 2034.65 1443.31C2053.57 1443.2 2108.2 1439.13 2112.38 1425.58C2117.01 1410.54 2082.04 1375.95 2070.99 1364.65C2056.26 1349.56 2048.45 1345.42 2029.12 1329.04C2052.17 1318.5 2060.81 1316.64 2079.08 1306.11C2092.77 1298.22 2135.81 1274.41 2135.43 1258.67Z" fill="#fc7da6" fill-opacity="0.988235" fill-rule="nonzero" opacity="1" stroke="none"/>
<path d="M1659.9 1278.05C1662.89 1257.86 1635.91 1240.57 1617.24 1226.99C1604.63 1217.81 1584.36 1205.73 1569.25 1197.43C1590.03 1185.77 1600.04 1178.18 1610.85 1169.81C1622.35 1160.92 1644.06 1139.88 1641.27 1123.91C1638.38 1107.37 1593.77 1101.58 1562.42 1099.67C1543.27 1109.89 1521.35 1120.51 1496.26 1132.17C1463.58 1147.37 1424.04 1161.28 1368.83 1168.63C1349.98 1171.14 1316.66 1175 1300.8 1174.64C1302.37 1200 1303.09 1203.88 1299.75 1228.31C1296.34 1252.73 1294.6 1256.27 1286.21 1280.25C1301.58 1284.21 1332.6 1296.96 1350.07 1304.48C1401.23 1326.52 1435.51 1350.62 1462.85 1374.11C1483.83 1392.14 1502.06 1408.3 1517.73 1423.32C1548.42 1429.98 1592.93 1436.5 1600.19 1421.37C1607.2 1406.75 1592.01 1380.62 1583.35 1368.94C1575.21 1357.95 1567.63 1347.93 1550.79 1331.08C1567.58 1327.18 1590.37 1321.05 1605 1315.63C1626.66 1307.62 1657.31 1298.29 1659.9 1278.05Z" fill="#fcdae6" fill-opacity="0.996078" fill-rule="nonzero" opacity="1" stroke="none"/>
</g>
<g opacity="1">
<path d="M1462.79 2106.85C1476.13 2102.04 1477.59 2047.27 1476.8 2028.37C1476.21 2014.38 1475.82 1996.85 1475.17 1980.17C1488.67 1988.3 1512.89 2002.13 1525.16 2007.96C1539.72 2014.89 1584.36 2030.13 1593.88 2018.73C1604.48 2006.04 1590.95 1962.61 1584.81 1945.89C1580.43 1933.95 1575.24 1919.66 1561.05 1890.33C1582.58 1894.56 1594.36 1894.85 1611.41 1895.56C1631.08 1896.37 1669.31 1892.46 1673.48 1883.86C1680.87 1868.6 1629.82 1818.16 1617.16 1806.23C1603.43 1793.3 1598.07 1790.64 1576.95 1772.77C1602.11 1772.63 1615.15 1770.46 1635.68 1764.99C1658.37 1758.95 1688.62 1744.47 1687.78 1734.09C1686.83 1722.34 1656.82 1717.59 1613.41 1696.88C1569.62 1675.99 1552.83 1662.76 1538.49 1648.93C1557.85 1646.33 1569.36 1643.84 1580.72 1640.57C1595.35 1636.36 1615.5 1630.02 1614.34 1621.04C1612.93 1610.15 1575.29 1598.38 1563.68 1594.26C1543.31 1587.03 1510.34 1572.5 1482.46 1554.26C1453.33 1535.2 1421.39 1503.8 1380.47 1460.51C1355.71 1434.32 1329.99 1401.22 1305.55 1351.17C1297.2 1334.08 1282.99 1303.7 1278.31 1288.54C1254.75 1298.06 1251.3 1299.97 1227.07 1304.53C1202.83 1309.03 1198.92 1308.5 1173.51 1308.13C1174.62 1323.96 1172.35 1357.42 1170.74 1376.38C1166.03 1431.88 1154.02 1472.03 1140.39 1505.4C1117.87 1560.54 1099.44 1601.37 1079.16 1629.67C1059.75 1656.75 1034.26 1682.21 1017.88 1696.31C1008.55 1704.34 977.702 1728.92 980.32 1739.58C982.481 1748.38 1003.56 1747.01 1018.72 1745.65C1030.49 1744.6 1042.13 1742.76 1061.12 1738.19C1052.75 1756.26 1041.87 1774.66 1008.59 1809.96C975.59 1844.96 949.325 1860.23 952.682 1871.53C955.652 1881.52 989.088 1884.09 1012.43 1881.52C1033.55 1879.2 1046.5 1876.52 1070 1867.55C1056.77 1891.85 1052.73 1896.26 1044.6 1913.29C1037.11 1928.98 1007.73 1994.46 1020.14 2006.02C1027.13 2012.53 1064.19 2002.36 1082.24 1994.5C1097.88 1987.68 1108.76 1983.15 1127.31 1971.43C1124.67 2003.9 1125 2019.1 1125.22 2031.82C1125.54 2049.62 1128.62 2095.02 1143.09 2103.02C1156.08 2110.2 1192.2 2079.86 1203.28 2068.14C1212.61 2058.27 1230.19 2036.63 1239.84 2024.17C1245.27 2039.96 1251.23 2056.45 1255.74 2069.7C1261.83 2087.61 1282.99 2138.15 1297.17 2137.82C1312.9 2137.46 1334.64 2093.33 1341.87 2079.28C1351.51 2060.53 1352.97 2051.81 1362.39 2028.29C1379.68 2046.82 1384.18 2054.42 1399.95 2068.42C1411.77 2078.91 1447.98 2112.2 1462.79 2106.85Z" fill="#fc7da6" fill-opacity="0.988235" fill-rule="nonzero" opacity="1" stroke="none"/>
<path d="M1293.89 1661.91C1313.98 1658.36 1321.84 1627.3 1328.82 1605.28C1333.53 1590.42 1338.57 1567.36 1341.67 1550.4C1359.3 1566.42 1369.67 1573.52 1381.03 1581.12C1393.11 1589.21 1419.94 1603.15 1434.2 1595.45C1448.98 1587.47 1440.35 1543.32 1432.23 1512.98C1416.48 1498.05 1399.47 1480.61 1380.47 1460.51C1355.71 1434.32 1329.99 1401.22 1305.55 1351.17C1297.2 1334.08 1282.99 1303.7 1278.31 1288.54C1254.75 1298.06 1251.3 1299.97 1227.07 1304.53C1202.83 1309.03 1198.92 1308.5 1173.51 1308.13C1174.62 1323.96 1172.35 1357.42 1170.74 1376.38C1166.03 1431.88 1154.02 1472.03 1140.39 1505.4C1129.93 1531.01 1120.37 1553.42 1111.08 1573.03C1114.48 1604.25 1122.38 1648.54 1139.04 1650.63C1155.12 1652.66 1175.1 1629.97 1183.44 1618.07C1191.28 1606.87 1198.39 1596.51 1209.04 1575.19C1218.06 1589.89 1231.09 1609.57 1240.86 1621.73C1255.32 1639.73 1273.87 1665.86 1293.89 1661.91Z" fill="#fcdae6" fill-opacity="0.996078" fill-rule="nonzero" opacity="1" stroke="none"/>
</g>
<g opacity="1">
<path d="M437.892 1726.23C446.523 1737.48 499.16 1722.29 516.933 1715.81C530.088 1711.02 546.673 1705.33 562.377 1699.66C558.718 1714.99 552.874 1742.26 551.031 1755.72C548.843 1771.69 547.837 1818.85 561.577 1824.47C576.882 1830.73 614.183 1804.68 628.253 1793.77C638.306 1785.98 650.353 1776.7 674.005 1754.29C676.501 1776.1 679.784 1787.41 684.279 1803.88C689.463 1822.87 704.763 1858.12 714.221 1859.48C731.007 1861.91 763.614 1797.98 771.148 1782.3C779.32 1765.3 780.225 1759.39 790.865 1733.85C798.613 1757.78 804.634 1769.55 816.06 1787.46C828.692 1807.26 851.652 1831.7 861.297 1827.75C872.203 1823.29 867.643 1793.25 874.233 1745.61C880.88 1697.55 888.397 1677.54 897.234 1659.69C905.576 1677.35 911.436 1687.57 917.992 1697.4C926.435 1710.07 938.579 1727.35 946.789 1723.52C956.738 1718.88 956.556 1679.44 956.968 1667.13C957.69 1645.53 961.55 1609.71 970.488 1577.62C979.83 1544.08 1000.09 1504.12 1028.94 1452.02C1046.41 1420.49 1070.16 1385.96 1110.46 1347.5C1124.22 1334.37 1148.87 1311.63 1161.9 1302.57C1145.69 1283 1142.83 1280.29 1131.14 1258.58C1119.51 1236.84 1118.83 1232.95 1111.48 1208.63C1096.74 1214.48 1064.16 1222.45 1045.61 1226.66C991.289 1238.98 949.382 1239.69 913.454 1236.81C854.08 1232.05 809.589 1226.85 776.476 1216.09C744.79 1205.8 712.803 1189.21 694.405 1177.88C683.922 1171.42 651.157 1149.46 641.789 1155.19C634.058 1159.91 641.75 1179.59 647.636 1193.62C652.207 1204.52 657.482 1215.05 667.589 1231.77C647.828 1229.26 626.996 1224.47 583.276 1203.44C539.929 1182.59 517.417 1162.19 507.67 1168.81C499.049 1174.66 506.726 1207.31 516.241 1228.78C524.848 1248.2 531.329 1259.73 546.992 1279.41C519.827 1274.16 514.399 1271.65 495.714 1269.06C478.487 1266.67 407.188 1258.5 399.927 1273.83C395.835 1282.47 416.755 1314.7 429.715 1329.52C440.952 1342.37 448.565 1351.36 465.352 1365.49C433.605 1372.81 419.214 1377.72 407.161 1381.79C390.293 1387.49 347.967 1404.17 344.721 1420.38C341.807 1434.94 381.664 1460.17 396.186 1467.18C408.419 1473.08 434.375 1483.29 449.168 1488.71C435.765 1498.67 421.859 1509.34 410.592 1517.66C395.369 1528.89 353.611 1564.35 358.218 1577.76C363.331 1592.65 411.968 1600 427.55 1602.64C448.342 1606.15 457.09 1604.89 482.363 1606.75C469.941 1628.84 464.06 1635.44 455.493 1654.7C449.072 1669.14 428.315 1713.74 437.892 1726.23Z" fill="#fc7da6" fill-opacity="0.988235" fill-rule="nonzero" opacity="1" stroke="none"/>
<path d="M810.783 1430.5C820.253 1448.58 852.239 1446.66 875.329 1446.64C890.926 1446.63 914.426 1444.45 931.531 1442.26C921.599 1463.93 917.98 1475.96 914.17 1489.09C910.117 1503.05 904.963 1532.83 916.625 1544.1C928.698 1555.76 968.159 1534.17 994.617 1517.24C1004.08 1497.71 1015.54 1476.22 1028.94 1452.02C1046.41 1420.49 1070.16 1385.96 1110.46 1347.5C1124.22 1334.37 1148.87 1311.63 1161.9 1302.57C1145.69 1283 1142.83 1280.29 1131.14 1258.58C1119.51 1236.84 1118.83 1232.95 1111.48 1208.63C1096.74 1214.48 1064.16 1222.45 1045.61 1226.66C991.289 1238.98 949.382 1239.69 913.454 1236.81C885.879 1234.6 861.628 1232.27 840.122 1229.36C811.396 1242.05 771.587 1263 774.632 1279.51C777.572 1295.45 805.243 1307.62 819.116 1311.96C832.163 1316.05 844.19 1319.68 867.73 1323.38C856.454 1336.43 841.647 1354.8 833.015 1367.79C820.236 1387.02 800.954 1412.62 810.783 1430.5Z" fill="#fcdae6" fill-opacity="0.996078" fill-rule="nonzero" opacity="1" stroke="none"/>
</g>
<g opacity="1">
<path d="M486.552 638.776C478.514 650.462 509.224 695.831 520.876 710.733C529.5 721.764 540.03 735.781 550.271 748.966C534.565 750.221 506.823 753.087 493.455 755.491C477.585 758.345 432.419 771.958 431.32 786.762C430.097 803.251 466.393 830.681 481.115 840.692C491.634 847.846 504.18 856.438 532.798 872.01C512.833 881.12 503.088 887.737 488.815 897.099C472.355 907.896 443.552 933.338 445.175 942.755C448.058 959.468 518.934 970.731 536.17 973.055C554.863 975.575 560.768 974.609 588.346 976.838C567.975 991.602 558.639 1000.96 545.136 1017.36C530.209 1035.49 514.053 1064.88 520.787 1072.84C528.4 1081.83 555.562 1068.21 602.912 1059.76C650.672 1051.24 672.027 1052.21 691.736 1055.1C677.514 1068.49 669.606 1077.22 662.279 1086.49C652.842 1098.43 640.152 1115.32 646.331 1121.95C653.82 1129.98 691.274 1117.62 703.107 1114.21C723.872 1108.22 759.137 1100.83 792.422 1099.41C827.208 1097.94 871.464 1104.86 929.937 1116.21C965.32 1123.08 1005.5 1135.01 1054.52 1161.45C1071.26 1170.48 1100.51 1186.9 1113.14 1196.5C1126.75 1175.04 1128.44 1171.48 1145.48 1153.65C1162.57 1135.87 1166.06 1134.03 1186.92 1119.53C1176.79 1107.31 1159.15 1078.79 1149.42 1062.45C1120.92 1014.59 1107.3 974.95 1098.94 939.89C1085.12 881.95 1076.33 838.027 1076.33 803.211C1076.33 769.895 1082.22 734.349 1087.32 713.348C1090.23 701.381 1100.99 663.437 1092.65 656.296C1085.77 650.403 1069.43 663.797 1057.9 673.731C1048.95 681.445 1040.56 689.716 1027.78 704.492C1024.06 684.924 1022.19 663.629 1028.68 615.551C1035.12 567.885 1047.57 540.171 1038.26 532.945C1030.03 526.555 1001.35 543.941 983.872 559.623C968.059 573.809 959.1 583.533 945.214 604.512C941.817 577.053 942.532 571.113 939.222 552.543C936.17 535.421 921.914 465.086 905.093 462.915C895.616 461.691 871.417 491.547 861.328 508.45C852.58 523.106 846.381 533.124 838.126 553.457C821.355 525.524 812.239 513.354 804.646 503.147C794.019 488.863 765.076 453.761 748.653 455.683C733.909 457.408 722.223 503.11 720.044 519.087C718.209 532.545 716.521 560.383 715.933 576.129C702.326 566.456 687.874 556.529 676.488 548.38C661.105 537.37 614.476 508.611 603.141 517.137C590.565 526.597 598.594 575.128 600.904 590.761C603.987 611.62 607.882 619.554 613.922 644.164C589.078 639.172 580.987 635.617 560.015 633.421C544.298 631.775 495.471 625.81 486.552 638.776Z" fill="#fc7da6" fill-opacity="0.988235" fill-rule="nonzero" opacity="1" stroke="none"/>
<path d="M883.004 902.074C868.737 916.666 880.444 946.494 887.594 968.449C892.424 983.28 901.757 1004.96 909.119 1020.55C885.449 1017.8 872.889 1018.07 859.225 1018.5C844.696 1018.96 814.774 1023.26 807.662 1037.83C800.3 1052.92 833.028 1083.78 857.295 1103.71C878.794 1106.68 902.78 1110.94 929.937 1116.21C965.32 1123.08 1005.5 1135.01 1054.52 1161.45C1071.26 1170.48 1100.51 1186.9 1113.14 1196.5C1126.75 1175.04 1128.44 1171.48 1145.48 1153.65C1162.57 1135.87 1166.05 1134.03 1186.92 1119.53C1176.79 1107.31 1159.15 1078.79 1149.42 1062.45C1120.92 1014.59 1107.3 974.95 1098.94 939.89C1092.52 912.98 1087.24 889.197 1083.37 867.842C1062.43 844.442 1030.21 813.051 1015.45 821.046C1001.19 828.769 998.162 858.847 998.319 873.382C998.467 887.052 998.725 899.613 1002.48 923.144C986.589 916.45 964.536 908.044 949.514 903.847C927.276 897.634 896.978 887.202 883.004 902.074Z" fill="#fcdae6" fill-opacity="0.996078" fill-rule="nonzero" opacity="1" stroke="none"/>
</g>
<path d="M1093.74 1159.48C1124.95 1094.99 1202.53 1068.01 1267.02 1099.21C1331.51 1130.42 1358.49 1208 1327.28 1272.49C1296.08 1336.98 1218.5 1363.96 1154 1332.76C1089.51 1301.55 1062.53 1223.97 1093.74 1159.48Z" fill="#fcdae6" fill-opacity="0.996078" fill-rule="nonzero" opacity="1" stroke="none"/>
</g>
</g>
</svg>
