<?xml version="1.0" encoding="UTF-8" standalone="no"?>
<!DOCTYPE svg PUBLIC "-//W3C//DTD SVG 1.1//EN" "http://www.w3.org/Graphics/SVG/1.1/DTD/svg11.dtd">
<!-- Created with Vectornator (http://vectornator.io/) -->
<svg height="2480.0px" stroke-miterlimit="10" style="fill-rule:nonzero;clip-rule:evenodd;stroke-linecap:round;stroke-linejoin:round;" version="1.1" viewBox="0 0 2480 2480" width="2480.0px" xml:space="preserve" xmlns="http://www.w3.org/2000/svg" xmlns:xlink="http://www.w3.org/1999/xlink">
<defs/>
<g id="トレース" visibility="hidden">
<path d="M1240 586.814C1259.53 556.068 1267.78 545.274 1288.42 514.254C1301.84 494.081 1338.91 441.683 1361.28 446.644C1375.32 449.758 1387.32 502.183 1393.72 528.61C1401.91 562.406 1408.57 601.255 1412.07 624.996C1428.99 609.946 1459.07 588.767 1464.8 584.988C1477.06 576.894 1540.68 539.766 1559.92 554.572C1570.32 562.573 1563.57 609.203 1560.39 636.912C1555.7 677.775 1549 700.787 1544.11 724.292C1570.91 712.744 1617.98 702.834 1646.95 699.597C1683.77 695.483 1716.81 694.601 1724.68 708.415C1736.75 729.598 1701.61 776.678 1687.22 797.123C1668.3 824.021 1627.55 872.194 1602.43 903.029C1638.01 896.574 1680.69 891.775 1711.12 894.36C1744.05 897.158 1775.63 900.01 1777.48 916.524C1780.36 942.296 1730.13 961.05 1674.27 1001.78C1617.92 1042.86 1594.47 1062.16 1582.12 1075.53C1613.68 1074.09 1626.14 1071.71 1653.59 1075.66C1674.33 1078.64 1701.52 1085.63 1703.57 1095.67C1706.74 1111.13 1654.26 1132.8 1639.61 1142.73C1630.95 1148.58 1570.49 1194.24 1546.42 1216.14C1516.31 1243.53 1453.69 1307.6 1415.52 1384.24C1397.63 1420.18 1377.18 1455.49 1362.44 1492.92C1352.12 1519.15 1346.23 1548.64 1339.09 1575.83C1335.08 1591.08 1330.6 1606.19 1326.55 1621.42C1324.28 1629.94 1325.72 1642.39 1317.33 1647.41C1301.78 1656.71 1281.53 1644.12 1264.94 1644.36C1253.68 1644.53 1242.39 1644.58 1231.18 1645.7C1214.62 1647.35 1178.07 1669.53 1167.04 1656.44C1158.92 1646.8 1154.79 1625.76 1149.7 1606.91C1147.06 1597.11 1142.07 1588.11 1138.34 1578.67C1118.27 1527.88 1098.22 1476.99 1069.84 1430.37C1043.51 1387.1 1040.42 1382.68 1016.01 1337.68C997.552 1303.66 967.961 1262.31 947.894 1237.31C928.739 1213.45 887.069 1176.9 855.472 1163.99C824.584 1151.38 751.174 1130.35 750.708 1107.82C750.319 1088.98 808.048 1078.63 841.299 1076.9C863.334 1075.75 876.011 1074.62 899.186 1076.35C890.462 1061.55 868.949 1042.31 853.737 1029.11C832.412 1010.61 791.412 979.293 768.933 962.933C750.8 949.737 700.84 941.689 713.074 913.192C721.727 893.037 782.488 894.104 807.797 895.955C841.717 898.436 852.144 898.717 890.355 907.481C861.417 869.878 834.719 844.549 818.255 820.955C795.261 788.003 756.604 727.99 775.814 702.585C785.853 689.307 833.706 693.841 871.885 702.444C891.113 706.777 913.203 711.908 939.558 718.967C931.572 692.178 927.694 639.882 926.142 615.669C924.409 588.628 925.487 523.147 944.347 515.822C967.02 507.017 1016.93 556.61 1032.32 571.603C1049.16 588.007 1066.26 607.209 1085.31 628.728C1086.65 619.608 1090.67 566.542 1091.97 542.893C1093.55 514.333 1099.1 446.741 1121.61 446.153C1139.59 445.683 1170.7 489.727 1189.54 514.582C1209.38 540.769 1220.75 555.621 1240 586.814Z" fill="#090909" fill-opacity="0.988235" fill-rule="nonzero" opacity="1" stroke="none"/>
<path d="M1398.81 1315.62C1400.97 1316.63 1428.13 1309.52 1430.2 1315C1434.5 1326.36 1409.36 1367.82 1394.36 1394.05C1369.7 1437.19 1343.65 1477.62 1330.96 1525.94C1322.54 1557.98 1317.74 1588.29 1310.13 1621.05C1309.58 1623.45 1307.85 1625.45 1306.29 1627.35C1298.75 1636.53 1280.67 1628 1267.32 1626.84C1253.97 1625.69 1221.47 1630.07 1211.17 1632.15C1199.77 1634.44 1185.01 1646.09 1176.34 1632.5C1172.79 1626.94 1166.89 1607.76 1165.24 1603.12C1154.91 1574.25 1147.67 1553.09 1136.19 1524.44C1122.49 1490.26 1069.85 1391.99 1063.96 1382.8C1049.34 1359.98 1036.2 1335.83 1020.23 1313.83C1015.86 1307.79 1006.09 1294.68 1013.24 1292.58C1026.46 1288.72 1064.22 1329.16 1072.38 1313.47C1077.45 1303.73 1075.42 1236.97 1091.24 1230.56C1102.31 1226.06 1113.34 1236.47 1133.75 1257.27C1150.86 1274.7 1161.47 1289.26 1172.49 1288.67C1183.03 1288.1 1201.84 1252.36 1211.49 1233.63C1222.33 1212.57 1232.77 1187.51 1247.91 1189C1262.08 1190.38 1272.04 1224.64 1280.36 1238.95C1284.45 1245.99 1304.49 1290.11 1311.35 1291.57C1322.93 1294.04 1341.48 1274.84 1350.09 1267.41C1366.46 1253.29 1381.81 1244.11 1391.77 1249.56C1400.77 1254.48 1395.42 1275.49 1394.93 1286.02C1394.27 1300.07 1393.23 1313.01 1398.81 1315.62Z" fill="#f7b9ce" fill-opacity="0.996078" fill-rule="nonzero" opacity="1" stroke="none"/>
<path d="M1229.33 1658.5C1284.35 1654.46 1340.19 1685.65 1358.63 1740.48C1383.13 1813.35 1336.31 1899.87 1256.62 1907.47C1127.46 1919.79 1062.27 1760.45 1166.7 1681.48C1184.96 1667.67 1207.04 1660.14 1229.33 1658.5Z" fill="#090909" fill-opacity="0.972549" fill-rule="nonzero" opacity="1" stroke="none"/>
<path d="M1389.85 1349.91C1412.45 1336.8 1465.93 1313.88 1468 1319.36C1472.29 1330.72 1428.11 1372.2 1413.12 1398.43C1388.45 1441.57 1362.1 1482.78 1349.41 1531.1C1343.23 1554.61 1322.68 1633.15 1320.43 1652.61C1300.24 1649.14 1266.46 1640.54 1241.01 1641.02C1228.64 1641.25 1217.98 1630.36 1212.18 1631.52C1200.78 1633.81 1186.02 1645.47 1177.35 1631.88C1173.8 1626.32 1167.9 1607.14 1166.25 1602.5C1155.92 1573.63 1148.68 1552.47 1137.2 1523.82C1123.5 1489.64 1070.86 1391.37 1064.97 1382.18C1050.35 1359.36 1037.21 1335.21 1021.24 1313.2C1016.87 1307.17 1007.1 1294.05 1014.25 1291.96C1027.47 1288.09 1065.23 1328.54 1073.39 1312.84C1078.46 1303.1 1076.43 1236.35 1092.25 1229.93C1103.32 1225.44 1114.35 1235.85 1134.76 1256.64C1151.87 1274.08 1164.52 1309.03 1175.54 1308.44C1186.08 1307.87 1193.67 1255.82 1203.32 1237.08C1214.16 1216.03 1218.43 1142.43 1240 1143.26C1265.41 1144.23 1288.43 1206.43 1296.37 1233.33C1298.67 1241.14 1314.33 1282.71 1317.74 1299.16C1337.63 1285.16 1344.1 1276.56 1357.34 1267.65C1375.7 1255.28 1399.09 1248.47 1406.4 1252.63C1413.31 1256.56 1405.84 1290.82 1401.55 1306.59C1398.55 1317.64 1394.17 1332.13 1389.85 1349.91Z" fill="#f7b9ce" fill-opacity="0.996078" fill-rule="nonzero" opacity="0" stroke="none"/>
</g>
<g id="ベクター整形" visibility="hidden">
<path d="M1320.56 775.188C1304.61 777.455 1278.33 812.54 1269.31 824.156C1256.48 840.69 1253.48 848.928 1240 870.156L1240 1667.33C1264.47 1667.37 1271.93 1666.58 1296.65 1671.57C1298.45 1655.92 1305.24 1580.36 1319.24 1535.53C1327.71 1508.38 1349.94 1452.27 1362.26 1427.43C1385.5 1380.59 1433.06 1315.19 1461.98 1285.38C1477.62 1269.27 1511.54 1240 1542.88 1220.58C1552.76 1214.45 1575.75 1204.64 1569.99 1194.18C1566.35 1187.57 1547.84 1186.6 1527.5 1188.45C1516.86 1189.41 1497.83 1191.21 1478.34 1199.54C1503.1 1177.39 1521.52 1160.94 1545.31 1145.68C1585.49 1119.91 1612.31 1109.44 1611.09 1097.81C1610.02 1087.53 1577.87 1078.91 1554.62 1077.16C1533.6 1075.57 1520.47 1075.82 1495.91 1080.28C1513.25 1058.99 1518 1055.44 1529.03 1040.31C1539.2 1026.37 1579.81 967.824 1569.81 954.281C1564.18 946.651 1526.16 949.84 1507.12 954.219C1490.62 958.016 1479.17 960.452 1458.94 968.5C1467.43 937.302 1469.9 922.418 1472 909.969C1474.94 892.546 1480.22 847.697 1467.56 837.25C1456.2 827.871 1415.44 850.871 1402.5 860.281C1391.6 868.208 1370.47 886.14 1358.78 896.531C1356.37 880.14 1353.57 862.941 1351.59 849.188C1348.92 830.606 1337.49 777.453 1323.59 775.188C1322.63 775.03 1321.63 775.036 1320.56 775.188Z" fill="#090909" fill-opacity="0.988235" fill-rule="nonzero" opacity="1" stroke="none"/>
<path d="M1240 1240L1240 1667.34C1264.47 1667.38 1271.94 1666.57 1296.66 1671.56C1298.46 1655.92 1305.25 1580.36 1319.25 1535.53C1327.73 1508.38 1349.93 1452.28 1362.25 1427.44C1372.14 1407.51 1386.52 1384.26 1401.91 1361.78C1404.45 1330.67 1405.29 1284.47 1389 1279.25C1373.68 1274.34 1350.06 1292.81 1339.75 1302.91C1330.06 1312.4 1321.22 1321.21 1306.94 1340.06C1300.82 1324.08 1291.71 1302.52 1284.41 1288.88C1273.59 1268.68 1260.25 1239.8 1240 1240Z" fill="#fcdae6" fill-opacity="0.996078" fill-rule="nonzero" opacity="1" stroke="none"/>
<path d="M1156.41 775.188C1142.51 777.453 1131.08 830.606 1128.41 849.188C1126.43 862.941 1123.63 880.14 1121.22 896.531C1109.53 886.14 1088.4 868.208 1077.5 860.281C1064.56 850.871 1023.8 827.871 1012.44 837.25C999.783 847.697 1005.06 892.546 1008 909.969C1010.1 922.418 1012.57 937.302 1021.06 968.5C1000.83 960.452 989.384 958.016 972.875 954.219C953.836 949.839 915.819 946.651 910.188 954.281C900.192 967.824 940.797 1026.37 950.969 1040.31C962.001 1055.44 966.753 1058.99 984.094 1080.28C959.527 1075.82 946.398 1075.57 925.375 1077.16C902.135 1078.91 869.981 1087.53 868.906 1097.81C867.691 1109.44 894.507 1119.92 934.688 1145.69C958.482 1160.95 976.898 1177.38 1001.66 1199.53C982.161 1191.2 963.138 1189.4 952.5 1188.44C932.159 1186.59 913.639 1187.58 910 1194.19C904.236 1204.65 927.238 1214.43 937.125 1220.56C968.461 1239.99 1002.4 1269.26 1018.03 1285.38C1046.95 1315.19 1094.51 1380.6 1117.75 1427.44C1130.07 1452.28 1152.27 1508.38 1160.75 1535.53C1174.75 1580.36 1181.54 1655.92 1183.34 1671.56C1208.06 1666.57 1215.53 1667.38 1240 1667.34C1264.47 1667.38 1271.94 1666.57 1296.66 1671.56C1298.46 1655.92 1305.25 1580.36 1319.25 1535.53C1327.73 1508.38 1349.93 1452.28 1362.25 1427.44C1385.49 1380.6 1433.05 1315.19 1461.97 1285.38C1477.6 1269.26 1511.54 1239.99 1542.88 1220.56C1552.76 1214.43 1575.76 1204.65 1570 1194.19C1566.36 1187.58 1547.84 1186.59 1527.5 1188.44C1516.86 1189.4 1497.84 1191.2 1478.34 1199.53C1503.1 1177.38 1521.52 1160.95 1545.31 1145.69C1585.49 1119.92 1612.31 1109.44 1611.09 1097.81C1610.02 1087.53 1577.87 1078.91 1554.62 1077.16C1533.6 1075.57 1520.47 1075.82 1495.91 1080.28C1513.25 1058.99 1518 1055.44 1529.03 1040.31C1539.2 1026.37 1579.81 967.824 1569.81 954.281C1564.18 946.651 1526.16 949.839 1507.12 954.219C1490.62 958.016 1479.17 960.452 1458.94 968.5C1467.43 937.302 1469.9 922.418 1472 909.969C1474.94 892.546 1480.22 847.697 1467.56 837.25C1456.2 827.871 1415.44 850.871 1402.5 860.281C1391.6 868.208 1370.47 886.14 1358.78 896.531C1356.37 880.14 1353.57 862.941 1351.59 849.188C1348.92 830.606 1337.49 777.453 1323.59 775.188C1322.63 775.03 1321.63 775.036 1320.56 775.188C1304.61 777.455 1278.33 812.54 1269.31 824.156C1256.48 840.69 1253.48 848.928 1240 870.156C1226.52 848.928 1223.52 840.69 1210.69 824.156C1201.67 812.54 1175.39 777.455 1159.44 775.187C1158.37 775.036 1157.37 775.03 1156.41 775.188Z" fill="#090909" fill-opacity="0.988235" fill-rule="nonzero" opacity="1" stroke="none"/>
<path d="M1240 1240C1219.75 1239.8 1206.41 1268.68 1195.59 1288.88C1188.29 1302.52 1179.18 1324.08 1173.06 1340.06C1158.78 1321.21 1149.94 1312.4 1140.25 1302.91C1129.94 1292.81 1106.32 1274.34 1091 1279.25C1074.71 1284.47 1075.55 1330.67 1078.09 1361.78C1093.48 1384.26 1107.86 1407.51 1117.75 1427.44C1130.07 1452.28 1152.27 1508.38 1160.75 1535.53C1174.75 1580.36 1181.54 1655.92 1183.34 1671.56C1208.06 1666.57 1215.53 1667.38 1240 1667.34C1264.47 1667.38 1271.94 1666.57 1296.66 1671.56C1298.46 1655.92 1305.25 1580.36 1319.25 1535.53C1327.73 1508.38 1349.93 1452.28 1362.25 1427.44C1372.14 1407.51 1386.52 1384.26 1401.91 1361.78C1404.45 1330.67 1405.29 1284.47 1389 1279.25C1373.68 1274.34 1350.06 1292.81 1339.75 1302.91C1330.06 1312.4 1321.22 1321.21 1306.94 1340.06C1300.82 1324.08 1291.71 1302.52 1284.41 1288.88C1273.59 1268.68 1260.25 1239.8 1240 1240Z" fill="#fcdae6" fill-opacity="0.996078" fill-rule="nonzero" opacity="1" stroke="none"/>
</g>
<g id="レイヤー-1">
<g opacity="1">
<g opacity="1">
<path d="M1407.18 377.407C1394.81 376.007 1372.34 418.515 1365.61 433.692C1360.62 444.926 1354.13 458.898 1348.14 472.273C1340.69 460.627 1326.99 440.298 1319.61 430.937C1310.85 419.824 1281.66 390.478 1269.75 395.739C1256.47 401.6 1250.22 441.045 1248.54 456.58C1247.34 467.681 1245.88 480.943 1245.63 509.537C1230.34 497.836 1221.18 493.02 1208.04 485.832C1192.88 477.541 1161.28 465.717 1154.66 470.862C1142.9 479.996 1163.44 539.564 1168.76 553.872C1174.52 569.391 1177.72 573.556 1187.38 595.835C1167.53 586.154 1156.42 582.79 1138.14 579.104C1117.93 575.028 1088.5 574.656 1085.12 583.156C1081.3 592.765 1101.61 608.109 1129.64 639.675C1146.24 658.367 1157.98 676.771 1173.75 701.56C1159.15 689.795 1143.39 683.706 1134.56 680.336C1117.69 673.892 1101.68 670.294 1097 675.046C1089.59 682.573 1106.83 696.412 1113.77 703.999C1135.8 728.044 1157.67 761.098 1167.12 778.561C1184.59 810.87 1209.4 877.954 1217.96 923.393C1222.5 947.492 1227.95 1000.58 1228.66 1025.72C1229.84 1067.23 1217.51 1133.18 1215.3 1146.93C1237.53 1148.61 1243.7 1151.08 1264.54 1156.92C1285.36 1162.81 1291.91 1163.92 1311.76 1174.09C1317.04 1161.2 1340.93 1098.51 1363.59 1063.7C1377.31 1042.62 1409.66 1000.18 1426.1 981.986C1457.11 947.683 1513.27 903.395 1545.03 884.947C1562.2 874.977 1598.11 858.188 1629.44 849.162C1639.33 846.314 1661.25 843.5 1658.85 833.21C1657.34 826.714 1641.81 821.436 1624.05 818.13C1614.76 816.401 1598.14 813.373 1579.55 815.794C1605.93 802.872 1625.55 793.295 1649.46 786.006C1689.84 773.699 1715.18 771.207 1716.93 761.015C1718.48 752.001 1693.17 736.962 1673.81 729.899C1656.29 723.509 1645.05 720.58 1623.07 718.487C1642.94 704.519 1647.83 702.631 1660.85 692.401C1672.85 682.967 1721.45 642.861 1716.18 628.937C1713.22 621.092 1680.09 614.695 1662.83 613.861C1647.87 613.137 1637.55 612.469 1618.39 614.471C1633.1 589.948 1638.77 577.869 1643.54 567.774C1650.21 553.646 1665.45 516.732 1657.19 504.806C1649.76 494.1 1609.55 503.912 1596.28 508.821C1585.1 512.956 1562.81 523.158 1550.38 529.203C1552.25 514.671 1553.99 499.36 1555.6 487.178C1557.78 470.718 1560.78 422.731 1549.5 417.473C1548.72 417.108 1547.86 416.872 1546.92 416.746C1532.8 414.854 1502.01 438.422 1491.56 446.151C1476.67 457.151 1472.15 463.446 1455.58 478.285C1449.19 456.983 1448.61 449.25 1441.65 432.102C1436.76 420.053 1422.79 383.886 1409.76 378.134C1408.89 377.75 1408.03 377.505 1407.18 377.407Z" fill="#ff9fbe" fill-rule="nonzero" opacity="1" stroke="none"/>
<path d="M2112.01 1130.6C2109.52 1118.4 2062.16 1110.15 2045.64 1108.43C2033.42 1107.16 2018.12 1105.29 2003.56 1103.73C2012.33 1093.04 2027.44 1073.74 2034.07 1063.83C2041.93 1052.07 2060.84 1015.25 2052.16 1005.53C2042.49 994.715 2003.04 1000.94 1987.74 1004.14C1976.81 1006.43 1963.75 1009.13 1936.47 1017.72C1942.88 999.56 1944.64 989.364 1947.42 974.643C1950.62 957.666 1952.12 923.96 1945.18 919.249C1932.87 910.887 1882.54 948.806 1870.57 958.28C1857.59 968.555 1854.62 972.878 1836.41 988.943C1839.49 967.079 1839.26 955.468 1837.13 936.945C1834.77 916.469 1826.04 888.355 1816.91 887.763C1806.59 887.094 1798.26 911.155 1776.89 947.559C1764.23 969.117 1750.35 985.962 1731.64 1008.61C1738.32 991.095 1739.25 974.221 1739.73 964.787C1740.65 946.748 1739.14 930.416 1733.17 927.43C1723.72 922.701 1715.88 943.367 1710.81 952.318C1694.73 980.685 1670.04 1011.69 1656.35 1026.07C1631.01 1052.66 1574.86 1096.97 1534.28 1119.13C1512.76 1130.89 1463.95 1152.46 1440.26 1160.89C1401.13 1174.82 1334.6 1183.45 1320.83 1185.59C1326.1 1207.26 1325.65 1213.89 1326.53 1235.51C1327.35 1257.13 1328.32 1263.71 1324.78 1285.72C1338.66 1286.77 1405.67 1290.14 1445.77 1300.96C1470.05 1307.5 1520.41 1325.17 1542.79 1335.19C1584.98 1354.1 1644.45 1393.85 1671.8 1418.37C1686.58 1431.62 1713.63 1460.6 1731.88 1487.61C1737.64 1496.14 1747.09 1516.12 1756.14 1510.66C1761.85 1507.22 1762.07 1490.82 1759.74 1472.91C1758.52 1463.54 1756.27 1446.79 1748.22 1429.85C1768.66 1450.96 1783.82 1466.66 1798.14 1487.16C1822.3 1521.77 1832.5 1545.1 1842.73 1543.62C1851.78 1542.32 1858.28 1513.6 1859.02 1493C1859.69 1474.37 1859.01 1462.78 1854.21 1441.22C1873.63 1455.81 1876.94 1459.88 1890.69 1469.11C1903.36 1477.61 1956.51 1511.46 1968.13 1502.15C1974.68 1496.91 1970.54 1463.42 1966 1446.75C1962.08 1432.3 1959.52 1422.27 1951.71 1404.67C1979.57 1411.09 1992.81 1412.75 2003.89 1414.17C2019.38 1416.16 2059.2 1419.27 2067.99 1407.72C2075.88 1397.36 2054.14 1362.14 2045.38 1351.03C2037.99 1341.67 2021.41 1323.62 2011.82 1313.66C2026.22 1310.95 2041.32 1307.89 2053.41 1305.66C2069.74 1302.65 2116.31 1290.69 2117.83 1278.34C2117.93 1277.48 2117.89 1276.6 2117.72 1275.66C2115.16 1261.64 2083.24 1239.64 2072.67 1232.08C2057.61 1221.32 2050.22 1218.95 2031 1207.77C2049.29 1195.12 2056.46 1192.18 2070.63 1180.27C2080.58 1171.9 2110.67 1147.45 2112.12 1133.28C2112.21 1132.33 2112.18 1131.44 2112.01 1130.6Z" fill="#ff9fbe" fill-rule="nonzero" opacity="1" stroke="none"/>
<path d="M580.019 1815.08C588.896 1823.81 632.79 1804.18 647.445 1796.38C658.292 1790.61 672.022 1783.61 684.977 1776.77C683.671 1790.53 681.922 1814.98 681.965 1826.9C682.016 1841.05 686.911 1882.15 699.539 1885.35C713.606 1888.92 742.842 1861.72 753.737 1850.51C761.521 1842.51 770.85 1832.97 788.667 1810.6C793.502 1829.25 797.744 1838.68 803.663 1852.45C810.489 1868.32 828.085 1897.11 836.471 1897.14C851.357 1897.19 871.9 1837.62 876.533 1823.08C881.556 1807.3 881.609 1802.05 887.734 1778.56C897.394 1798.41 904.073 1807.91 916.194 1822.08C929.592 1837.74 952.543 1856.18 960.443 1851.57C969.376 1846.36 962.834 1821.75 960.218 1779.62C958.668 1754.67 960.768 1732.94 963.629 1703.7C967.874 1721.96 976.534 1736.48 981.406 1744.57C990.722 1760.04 1001.11 1772.74 1007.72 1771.88C1018.2 1770.53 1013.16 1749 1012.36 1738.75C1009.84 1706.24 1012.99 1666.73 1016.31 1647.15C1022.47 1610.94 1044.28 1542.82 1065.54 1501.77C1076.82 1479.99 1105.25 1434.83 1120.19 1414.59C1144.85 1381.18 1195.2 1336.84 1205.42 1327.38C1188.95 1312.35 1185.62 1306.6 1172.8 1289.17C1160.04 1271.69 1155.56 1266.78 1146.2 1246.54C1134.1 1253.43 1076.64 1288.08 1037.35 1301.52C1013.55 1309.66 961.92 1323.15 937.758 1327.34C892.2 1335.24 820.676 1335.5 784.292 1330.44C764.627 1327.71 726.004 1318.8 695.769 1306.6C686.229 1302.75 667.229 1291.45 662.776 1301.03C659.964 1307.08 668.94 1320.81 680.886 1334.36C687.133 1341.44 698.358 1354.07 714.492 1363.63C685.75 1357.54 664.4 1352.99 641.078 1343.99C601.694 1328.8 580.206 1315.14 572.543 1322.09C565.767 1328.23 576.426 1355.67 587.32 1373.17C597.175 1388.99 604.219 1398.23 620.238 1413.42C595.987 1412.18 590.967 1410.65 574.412 1410.68C559.147 1410.71 496.159 1412.34 491.722 1426.55C489.222 1434.56 511.366 1460.01 524.441 1471.31C535.778 1481.1 543.496 1487.99 559.814 1498.22C533.117 1508.46 521.208 1514.48 511.23 1519.49C497.266 1526.5 462.51 1546.18 461.671 1560.66C460.918 1573.67 498.628 1590.73 512.106 1595.04C523.459 1598.68 547.297 1604.38 560.817 1607.29C550.384 1617.58 539.574 1628.56 530.798 1637.16C518.94 1648.78 486.995 1684.71 492.639 1695.81C493.031 1696.58 493.56 1697.29 494.223 1697.97C504.177 1708.17 542.946 1708.58 555.944 1708.94C574.443 1709.45 581.889 1707.29 604.081 1705.81C595.984 1726.53 591.675 1732.97 586.584 1750.76C583.007 1763.27 571.716 1800.36 578.434 1812.92C578.882 1813.76 579.403 1814.48 580.019 1815.08Z" fill="#ff9fbe" fill-rule="nonzero" opacity="1" stroke="none"/>
<path d="M488.895 788.101C483.342 799.243 515.583 834.913 527.536 846.436C536.383 854.964 547.284 865.856 557.8 876.059C544.305 879.075 520.515 884.975 509.192 888.704C495.75 893.13 458.182 910.498 459.043 923.498C460.001 937.978 494.918 957.364 508.94 964.259C518.959 969.186 530.917 975.106 557.697 985.13C541.464 995.495 533.803 1002.45 522.547 1012.33C509.566 1023.74 487.633 1049.37 490.199 1057.36C494.753 1071.53 557.753 1072.64 573.017 1072.54C589.572 1072.44 594.579 1070.87 618.819 1069.42C602.926 1084.75 595.958 1094.04 586.234 1109.95C575.485 1127.54 565.052 1155.07 571.879 1161.15C579.599 1168.04 600.974 1154.2 640.231 1138.68C663.478 1129.49 684.79 1124.76 713.48 1118.44C697.426 1128.13 686.306 1140.85 680.117 1147.99C668.283 1161.63 659.421 1175.44 662.282 1181.46C666.815 1191.01 685.721 1179.55 695.228 1175.62C725.362 1163.17 763.91 1153.94 783.552 1151.05C819.893 1145.7 891.416 1145.36 937.039 1152.89C961.234 1156.88 1012.97 1169.94 1036.84 1177.88C1076.24 1191 1133.98 1225.17 1146.14 1231.96C1155.33 1211.64 1159.77 1206.7 1172.39 1189.12C1185.06 1171.58 1188.34 1165.8 1204.69 1150.64C1194.4 1141.26 1143.68 1097.34 1118.74 1064.13C1103.64 1044.02 1074.84 999.092 1063.38 977.411C1041.77 936.532 1019.4 868.596 1012.95 832.434C1009.47 812.889 1005.99 773.404 1008.24 740.876C1008.95 730.613 1013.82 709.051 1003.33 707.78C996.71 706.977 986.431 719.76 977.243 735.311C972.438 743.444 963.898 758.025 959.804 776.323C956.701 747.108 954.422 725.398 955.766 700.436C958.035 658.283 964.373 633.624 955.398 628.486C947.46 623.942 924.662 642.567 911.393 658.34C899.39 672.607 892.789 682.163 883.294 702.097C876.975 678.65 876.879 673.402 871.725 657.67C866.973 643.164 845.939 583.769 831.054 583.945C822.668 584.044 805.311 612.977 798.616 628.904C792.81 642.714 788.646 652.185 783.965 670.867C765.965 648.649 756.557 639.186 748.707 631.247C737.72 620.136 708.261 593.171 694.224 596.855C681.622 600.162 677.067 641.3 677.133 655.451C677.188 667.372 679.139 691.805 680.558 705.56C667.547 698.823 653.76 691.94 642.866 686.254C628.147 678.573 584.092 659.311 575.287 668.111C574.677 668.721 574.162 669.445 573.721 670.287C567.106 682.905 578.703 719.901 582.383 732.373C587.62 750.123 591.983 756.533 600.25 777.18C578.047 775.889 570.584 773.785 552.089 774.448C539.094 774.914 500.33 775.65 490.461 785.926C489.803 786.611 489.28 787.329 488.895 788.101Z" fill="#ff9fbe" fill-rule="nonzero" opacity="1" stroke="none"/>
<path d="M1613.43 2033.34C1624.26 2027.21 1617.47 1979.61 1614 1963.37C1611.44 1951.36 1608.49 1936.23 1605.47 1921.89C1618.35 1926.94 1641.37 1935.35 1652.84 1938.58C1666.46 1942.43 1707.32 1949.03 1713.88 1937.78C1721.18 1925.23 1703.07 1889.64 1695.3 1876.08C1689.74 1866.4 1683.14 1854.8 1666.54 1831.52C1685.79 1832 1696.03 1830.52 1710.89 1828.62C1728.03 1826.42 1760.55 1817.43 1762.88 1809.37C1767.03 1795.08 1715.42 1758.93 1702.71 1750.48C1688.93 1741.31 1683.89 1739.81 1662.99 1727.46C1684.74 1723.63 1695.71 1719.83 1712.66 1712.07C1731.41 1703.5 1755.45 1686.51 1753.19 1677.65C1750.64 1667.63 1725.18 1667.14 1683.96 1658.06C1659.54 1652.69 1639.23 1644.69 1611.91 1633.89C1630.64 1634.84 1646.97 1630.51 1656.09 1628.05C1673.53 1623.35 1688.6 1616.86 1689.59 1610.27C1691.17 1599.82 1669.09 1598.75 1659.01 1596.69C1627.07 1590.16 1589.95 1576.27 1572.04 1567.68C1538.92 1551.8 1479.43 1512.09 1445.82 1480.34C1427.99 1463.51 1392.39 1423.75 1377.05 1403.82C1351.71 1370.91 1322.94 1310.3 1316.66 1297.88C1297.68 1309.58 1291.23 1311.2 1270.94 1318.72C1250.63 1326.18 1244.68 1329.14 1222.64 1332.57C1225.94 1346.1 1243.43 1410.87 1245.54 1452.35C1246.82 1477.46 1245.58 1530.81 1242.96 1555.19C1238.02 1601.17 1218.58 1670 1203.71 1703.59C1195.68 1721.75 1176.48 1756.43 1156.43 1782.13C1150.1 1790.25 1134.01 1805.4 1142 1812.32C1147.04 1816.69 1162.71 1811.84 1179.02 1804.08C1187.55 1800.02 1202.78 1792.71 1216.41 1779.83C1202.65 1805.79 1192.4 1825.06 1177.33 1845C1151.88 1878.69 1132.84 1895.59 1137.41 1904.86C1141.45 1913.07 1170.76 1910.37 1190.58 1904.71C1208.51 1899.6 1219.33 1895.36 1238.34 1884.15C1230.47 1907.12 1227.62 1911.52 1223.1 1927.45C1218.93 1942.13 1203.16 2003.14 1215.6 2011.31C1222.61 2015.92 1253.17 2001.64 1267.63 1992.17C1280.16 1983.97 1288.91 1978.44 1303.24 1965.57C1305.74 1994.06 1308.25 2007.16 1310.32 2018.13C1313.22 2033.49 1322.57 2072.32 1336.26 2077.11C1348.56 2081.41 1375.34 2049.85 1383.19 2038.08C1389.81 2028.17 1401.86 2006.82 1408.37 1994.62C1415.39 2007.48 1422.97 2020.9 1428.83 2031.7C1436.74 2046.3 1462.49 2086.9 1474.71 2084.53C1475.56 2084.36 1476.39 2084.05 1477.23 2083.6C1489.77 2076.83 1500.84 2039.68 1504.76 2027.28C1510.34 2009.63 1510.31 2001.88 1515 1980.14C1532.68 1993.62 1537.69 1999.54 1553.4 2009.33C1564.43 2016.21 1596.98 2037.27 1610.91 2034.27C1611.84 2034.07 1612.68 2033.77 1613.43 2033.34Z" fill="#ff9fbe" fill-rule="nonzero" opacity="1" stroke="none"/>
</g>
<g opacity="1">
<path d="M1366.95 793.127C1349.76 788.103 1331.49 809.489 1317.43 824.092C1307.94 833.956 1295.02 850.128 1285.99 862.268C1278.35 842.799 1272.93 833.178 1266.96 822.774C1260.6 811.711 1244.92 790.325 1230.7 790.833C1215.58 791.374 1205.23 830.9 1199.94 857.998C1207.65 880.823 1214.32 904.057 1217.96 923.393C1222.5 947.492 1227.95 1000.58 1228.66 1025.72C1229.84 1067.23 1217.51 1133.18 1215.3 1146.93C1237.53 1148.61 1243.7 1151.08 1264.54 1156.92C1285.36 1162.81 1291.91 1163.92 1311.76 1174.09C1317.04 1161.2 1340.93 1098.51 1363.59 1063.7C1377.31 1042.62 1409.66 1000.18 1426.1 981.986C1439.29 967.389 1457.11 951.047 1475.59 935.597C1485.22 909.72 1497 870.596 1484.38 862.247C1472.52 854.393 1447.98 864.459 1436.79 870.583C1426.26 876.342 1416.63 881.726 1399.95 894.35C1398.58 879.278 1395.99 858.742 1393.04 845.375C1388.67 825.587 1384.24 797.809 1366.95 793.127Z" fill="#ffc7db" fill-opacity="0.996078" fill-rule="nonzero" opacity="1" stroke="none"/>
<path d="M1704.17 1220.64C1703.64 1202.74 1677.66 1191.96 1659.43 1183.1C1647.12 1177.12 1627.75 1169.82 1613.42 1164.97C1629.58 1151.7 1637.06 1143.58 1645.11 1134.68C1653.67 1125.22 1669.17 1103.71 1664.3 1090.34C1659.12 1076.12 1618.33 1078.47 1590.92 1081.8C1571.59 1096.18 1551.55 1109.7 1534.28 1119.13C1512.76 1130.89 1463.95 1152.46 1440.26 1160.89C1401.13 1174.82 1334.6 1183.45 1320.83 1185.59C1326.1 1207.26 1325.65 1213.89 1326.53 1235.51C1327.35 1257.13 1328.32 1263.71 1324.78 1285.72C1338.66 1286.77 1405.67 1290.14 1445.77 1300.96C1470.05 1307.5 1520.41 1325.17 1542.79 1335.19C1560.74 1343.24 1581.79 1355.14 1602.19 1367.95C1629.77 1369.12 1670.62 1368.25 1674.67 1353.68C1678.48 1339.96 1661.33 1319.73 1652.05 1310.98C1643.32 1302.74 1635.23 1295.24 1618.08 1283.27C1631.99 1277.31 1650.72 1268.52 1662.52 1261.58C1680 1251.32 1705.05 1238.53 1704.17 1220.64Z" fill="#ffc7db" fill-opacity="0.996078" fill-rule="nonzero" opacity="1" stroke="none"/>
<path d="M1401.77 1673.28C1418.63 1667.25 1420.86 1639.21 1423.65 1619.14C1425.54 1605.58 1426.49 1584.9 1426.67 1569.77C1444.29 1581.04 1454.33 1585.64 1465.27 1590.55C1476.91 1595.77 1502.17 1603.87 1513.38 1595.1C1525.3 1585.78 1510.46 1547.71 1498.82 1522.68C1479.17 1508.74 1460.12 1493.85 1445.82 1480.34C1427.99 1463.51 1392.39 1423.75 1377.05 1403.82C1351.71 1370.91 1322.94 1310.3 1316.66 1297.88C1297.68 1309.58 1291.23 1311.2 1270.94 1318.72C1250.63 1326.18 1244.68 1329.14 1222.64 1332.57C1225.94 1346.1 1243.43 1410.87 1245.54 1452.35C1246.82 1477.46 1245.58 1530.81 1242.96 1555.19C1240.85 1574.76 1236.04 1598.45 1230.15 1621.81C1237.57 1648.41 1251.01 1686.99 1266.13 1686.33C1280.35 1685.72 1294.29 1663.16 1299.75 1651.63C1304.88 1640.79 1309.52 1630.77 1315.6 1610.76C1325.57 1622.14 1339.72 1637.24 1349.96 1646.33C1365.12 1659.77 1385.03 1679.65 1401.77 1673.28Z" fill="#ffc7db" fill-opacity="0.996078" fill-rule="nonzero" opacity="1" stroke="none"/>
<path d="M867.931 1512.51C878.372 1527.07 905.942 1521.49 926.008 1518.65C939.562 1516.73 959.702 1511.96 974.302 1507.97C968.318 1528.01 966.65 1538.92 964.943 1550.8C963.128 1563.43 962.294 1589.93 973.807 1598.3C986.046 1607.19 1018.56 1582.45 1039.43 1564.37C1047.43 1541.65 1056.49 1519.24 1065.54 1501.77C1076.82 1479.99 1105.25 1434.83 1120.19 1414.59C1144.85 1381.18 1195.2 1336.84 1205.42 1327.38C1188.95 1312.35 1185.62 1306.6 1172.8 1289.17C1160.04 1271.69 1155.56 1266.78 1146.2 1246.54C1134.1 1253.43 1076.64 1288.08 1037.35 1301.52C1013.55 1309.66 961.92 1323.15 937.758 1327.34C918.371 1330.7 894.272 1332.59 870.192 1333.36C846.663 1347.8 813.27 1371.35 818.059 1385.7C822.564 1399.2 848.088 1406.4 860.676 1408.47C872.514 1410.43 883.421 1412.13 904.333 1412.46C896.127 1425.18 885.505 1442.95 879.591 1455.29C870.835 1473.57 857.203 1498.17 867.931 1512.51Z" fill="#ffc7db" fill-opacity="0.996078" fill-rule="nonzero" opacity="1" stroke="none"/>
<path d="M865.686 968.294C855.077 982.724 868.911 1007.22 877.817 1025.42C883.833 1037.72 894.602 1055.39 902.912 1068.04C882.004 1068.55 871.111 1070.34 859.289 1072.39C846.719 1074.57 821.255 1081.98 816.862 1095.51C812.191 1109.9 845.778 1133.17 869.425 1147.42C893.51 1148 917.625 1149.69 937.039 1152.89C961.234 1156.88 1012.97 1169.94 1036.84 1177.88C1076.24 1191 1133.98 1225.17 1146.14 1231.96C1155.33 1211.64 1159.77 1206.7 1172.39 1189.12C1185.06 1171.58 1188.34 1165.8 1204.69 1150.64C1194.4 1141.26 1143.68 1097.34 1118.74 1064.13C1103.64 1044.02 1074.84 999.092 1063.38 977.411C1054.19 960.016 1044.94 937.683 1036.75 915.023C1015.74 897.117 983.016 872.645 970.85 881.639C959.407 890.099 960.46 916.596 962.379 929.209C964.184 941.071 965.941 951.97 972.09 971.959C957.459 968.09 937.28 963.484 923.71 961.679C903.622 959.006 876.007 953.655 865.686 968.294Z" fill="#ffc7db" fill-opacity="0.996078" fill-rule="nonzero" opacity="1" stroke="none"/>
<path d="M1126.75 1238.31C1127.05 1174.95 1178.66 1123.83 1242.02 1124.13C1305.38 1124.44 1356.5 1176.05 1356.2 1239.41C1355.89 1302.77 1304.28 1353.89 1240.92 1353.58C1177.56 1353.28 1126.45 1301.67 1126.75 1238.31Z" fill="#ffc7db" fill-opacity="0.996078" fill-rule="nonzero" opacity="1" stroke="none"/>
</g>
</g>
</g>
</svg>
