<?xml version="1.0" encoding="UTF-8" standalone="no"?>
<!DOCTYPE svg PUBLIC "-//W3C//DTD SVG 1.1//EN" "http://www.w3.org/Graphics/SVG/1.1/DTD/svg11.dtd">
<!-- Created with Vectornator (http://vectornator.io/) -->
<svg height="2480.0px" stroke-miterlimit="10" style="fill-rule:nonzero;clip-rule:evenodd;stroke-linecap:round;stroke-linejoin:round;" version="1.1" viewBox="0 0 2480 2480" width="2480.0px" xml:space="preserve" xmlns="http://www.w3.org/2000/svg" xmlns:xlink="http://www.w3.org/1999/xlink">
<defs/>
<g id="トレース" visibility="hidden">
<path d="M1240 586.814C1259.53 556.068 1267.78 545.274 1288.42 514.254C1301.84 494.081 1338.91 441.683 1361.28 446.644C1375.32 449.758 1387.32 502.183 1393.72 528.61C1401.91 562.406 1408.57 601.255 1412.07 624.996C1428.99 609.946 1459.07 588.767 1464.8 584.988C1477.06 576.894 1540.68 539.766 1559.92 554.572C1570.32 562.573 1563.57 609.203 1560.39 636.912C1555.7 677.775 1549 700.787 1544.11 724.292C1570.91 712.744 1617.98 702.834 1646.95 699.597C1683.77 695.483 1716.81 694.601 1724.68 708.415C1736.75 729.598 1701.61 776.678 1687.22 797.123C1668.3 824.021 1627.55 872.194 1602.43 903.029C1638.01 896.574 1680.69 891.775 1711.12 894.36C1744.05 897.158 1775.63 900.01 1777.48 916.524C1780.36 942.296 1730.13 961.05 1674.27 1001.78C1617.92 1042.86 1594.47 1062.16 1582.12 1075.53C1613.68 1074.09 1626.14 1071.71 1653.59 1075.66C1674.33 1078.64 1701.52 1085.63 1703.57 1095.67C1706.74 1111.13 1654.26 1132.8 1639.61 1142.73C1630.95 1148.58 1570.49 1194.24 1546.42 1216.14C1516.31 1243.53 1453.69 1307.6 1415.52 1384.24C1397.63 1420.18 1377.18 1455.49 1362.44 1492.92C1352.12 1519.15 1346.23 1548.64 1339.09 1575.83C1335.08 1591.08 1330.6 1606.19 1326.55 1621.42C1324.28 1629.94 1325.72 1642.39 1317.33 1647.41C1301.78 1656.71 1281.53 1644.12 1264.94 1644.36C1253.68 1644.53 1242.39 1644.58 1231.18 1645.7C1214.62 1647.35 1178.07 1669.53 1167.04 1656.44C1158.92 1646.8 1154.79 1625.76 1149.7 1606.91C1147.06 1597.11 1142.07 1588.11 1138.34 1578.67C1118.27 1527.88 1098.22 1476.99 1069.84 1430.37C1043.51 1387.1 1040.42 1382.68 1016.01 1337.68C997.552 1303.66 967.961 1262.31 947.894 1237.31C928.739 1213.45 887.069 1176.9 855.472 1163.99C824.584 1151.38 751.174 1130.35 750.708 1107.82C750.319 1088.98 808.048 1078.63 841.299 1076.9C863.334 1075.75 876.011 1074.62 899.186 1076.35C890.462 1061.55 868.949 1042.31 853.737 1029.11C832.412 1010.61 791.412 979.293 768.933 962.933C750.8 949.737 700.84 941.689 713.074 913.192C721.727 893.037 782.488 894.104 807.797 895.955C841.717 898.436 852.144 898.717 890.355 907.481C861.417 869.878 834.719 844.549 818.255 820.955C795.261 788.003 756.604 727.99 775.814 702.585C785.853 689.307 833.706 693.841 871.885 702.444C891.113 706.777 913.203 711.908 939.558 718.967C931.572 692.178 927.694 639.882 926.142 615.669C924.409 588.628 925.487 523.147 944.347 515.822C967.02 507.017 1016.93 556.61 1032.32 571.603C1049.16 588.007 1066.26 607.209 1085.31 628.728C1086.65 619.608 1090.67 566.542 1091.97 542.893C1093.55 514.333 1099.1 446.741 1121.61 446.153C1139.59 445.683 1170.7 489.727 1189.54 514.582C1209.38 540.769 1220.75 555.621 1240 586.814Z" fill="#090909" fill-opacity="0.988235" fill-rule="nonzero" opacity="1" stroke="none"/>
<path d="M1398.81 1315.62C1400.97 1316.63 1428.13 1309.52 1430.2 1315C1434.5 1326.36 1409.36 1367.82 1394.36 1394.05C1369.7 1437.19 1343.65 1477.62 1330.96 1525.94C1322.54 1557.98 1317.74 1588.29 1310.13 1621.05C1309.58 1623.45 1307.85 1625.45 1306.29 1627.35C1298.75 1636.53 1280.67 1628 1267.32 1626.84C1253.97 1625.69 1221.47 1630.07 1211.17 1632.15C1199.77 1634.44 1185.01 1646.09 1176.34 1632.5C1172.79 1626.94 1166.89 1607.76 1165.24 1603.12C1154.91 1574.25 1147.67 1553.09 1136.19 1524.44C1122.49 1490.26 1069.85 1391.99 1063.96 1382.8C1049.34 1359.98 1036.2 1335.83 1020.23 1313.83C1015.86 1307.79 1006.09 1294.68 1013.24 1292.58C1026.46 1288.72 1064.22 1329.16 1072.38 1313.47C1077.45 1303.73 1075.42 1236.97 1091.24 1230.56C1102.31 1226.06 1113.34 1236.47 1133.75 1257.27C1150.86 1274.7 1161.47 1289.26 1172.49 1288.67C1183.03 1288.1 1201.84 1252.36 1211.49 1233.63C1222.33 1212.57 1232.77 1187.51 1247.91 1189C1262.08 1190.38 1272.04 1224.64 1280.36 1238.95C1284.45 1245.99 1304.49 1290.11 1311.35 1291.57C1322.93 1294.04 1341.48 1274.84 1350.09 1267.41C1366.46 1253.29 1381.81 1244.11 1391.77 1249.56C1400.77 1254.48 1395.42 1275.49 1394.93 1286.02C1394.27 1300.07 1393.23 1313.01 1398.81 1315.62Z" fill="#f7b9ce" fill-opacity="0.996078" fill-rule="nonzero" opacity="1" stroke="none"/>
<path d="M1229.33 1658.5C1284.35 1654.46 1340.19 1685.65 1358.63 1740.48C1383.13 1813.35 1336.31 1899.87 1256.62 1907.47C1127.46 1919.79 1062.27 1760.45 1166.7 1681.48C1184.96 1667.67 1207.04 1660.14 1229.33 1658.5Z" fill="#090909" fill-opacity="0.972549" fill-rule="nonzero" opacity="1" stroke="none"/>
<path d="M1389.85 1349.91C1412.45 1336.8 1465.93 1313.88 1468 1319.36C1472.29 1330.72 1428.11 1372.2 1413.12 1398.43C1388.45 1441.57 1362.1 1482.78 1349.41 1531.1C1343.23 1554.61 1322.68 1633.15 1320.43 1652.61C1300.24 1649.14 1266.46 1640.54 1241.01 1641.02C1228.64 1641.25 1217.98 1630.36 1212.18 1631.52C1200.78 1633.81 1186.02 1645.47 1177.35 1631.88C1173.8 1626.32 1167.9 1607.14 1166.25 1602.5C1155.92 1573.63 1148.68 1552.47 1137.2 1523.82C1123.5 1489.64 1070.86 1391.37 1064.97 1382.18C1050.35 1359.36 1037.21 1335.21 1021.24 1313.2C1016.87 1307.17 1007.1 1294.05 1014.25 1291.96C1027.47 1288.09 1065.23 1328.54 1073.39 1312.84C1078.46 1303.1 1076.43 1236.35 1092.25 1229.93C1103.32 1225.44 1114.35 1235.85 1134.76 1256.64C1151.87 1274.08 1164.52 1309.03 1175.54 1308.44C1186.08 1307.87 1193.67 1255.82 1203.32 1237.08C1214.16 1216.03 1218.43 1142.43 1240 1143.26C1265.41 1144.23 1288.43 1206.43 1296.37 1233.33C1298.67 1241.14 1314.33 1282.71 1317.74 1299.16C1337.63 1285.16 1344.1 1276.56 1357.34 1267.65C1375.7 1255.28 1399.09 1248.47 1406.4 1252.63C1413.31 1256.56 1405.84 1290.82 1401.55 1306.59C1398.55 1317.64 1394.17 1332.13 1389.85 1349.91Z" fill="#f7b9ce" fill-opacity="0.996078" fill-rule="nonzero" opacity="0" stroke="none"/>
</g>
<g id="花弁合成" visibility="hidden">
<g opacity="0">
<path d="M1118.91 444.719C1098.78 448.001 1082.25 524.993 1078.38 551.906C1075.51 571.826 1071.43 596.696 1067.94 620.438C1051.01 605.387 1020.45 579.45 1004.66 567.969C985.91 554.339 926.861 521.01 910.406 534.594C892.078 549.724 899.715 614.671 903.969 639.906C907.008 657.937 910.57 679.501 922.875 724.688C893.565 713.031 877.005 709.499 853.094 704C825.519 697.658 770.469 693.074 762.313 704.125C747.835 723.74 806.643 808.49 821.375 828.688C837.353 850.592 844.228 855.758 869.344 886.594C833.762 880.138 814.762 879.763 784.312 882.063C750.652 884.605 704.088 897.07 702.531 911.969C700.771 928.814 741.916 943.457 797.781 984.188C854.129 1025.27 874.365 1048.39 890.969 1071.72C862.929 1070.28 846.004 1070.76 829.094 1072.38C807.315 1074.46 777.166 1078.09 776.438 1091.09C775.554 1106.85 825.629 1133.43 840.938 1142.31C867.803 1157.91 910.552 1187.15 945.125 1220.28C981.256 1254.91 1018.09 1307.72 1064.47 1379.69C1092.54 1423.23 1120.12 1476.79 1141.44 1553.97C1148.72 1580.32 1160.77 1627 1163.38 1649.66C1199.17 1642.43 1204.56 1640.64 1240 1640.59C1275.44 1640.64 1280.83 1642.43 1316.63 1649.66C1319.23 1627 1331.28 1580.32 1338.56 1553.97C1359.88 1476.79 1387.46 1423.23 1415.53 1379.69C1461.91 1307.72 1498.74 1254.91 1534.88 1220.28C1569.45 1187.15 1612.2 1157.91 1639.06 1142.31C1654.37 1133.43 1704.45 1106.85 1703.56 1091.09C1702.83 1078.09 1672.69 1074.46 1650.91 1072.38C1634 1070.76 1617.07 1070.28 1589.03 1071.72C1605.63 1048.39 1625.87 1025.27 1682.22 984.188C1738.08 943.457 1779.23 928.814 1777.47 911.969C1775.91 897.07 1729.35 884.605 1695.69 882.063C1665.24 879.763 1646.24 880.138 1610.66 886.594C1635.77 855.758 1642.65 850.592 1658.63 828.688C1673.36 808.49 1732.16 723.74 1717.69 704.125C1709.53 693.074 1654.48 697.658 1626.91 704C1603 709.499 1586.43 713.031 1557.13 724.688C1569.43 679.501 1572.99 657.937 1576.03 639.906C1580.28 614.671 1587.92 549.724 1569.59 534.594C1553.14 521.01 1494.09 554.339 1475.34 567.969C1459.55 579.45 1428.99 605.387 1412.06 620.438C1408.57 596.696 1404.49 571.826 1401.63 551.906C1397.75 524.993 1381.22 448.001 1361.09 444.719C1338.77 441.077 1296.39 497.678 1282.47 515.625C1263.89 539.572 1259.53 551.504 1240 582.25C1220.47 551.504 1216.11 539.572 1197.53 515.625C1183.61 497.678 1141.23 441.077 1118.91 444.719Z" fill="#090909" fill-opacity="0.988235" fill-rule="nonzero" opacity="1" stroke="none"/>
<path d="M1240 1144.75L1240 1642.44C1240.34 1642.45 1240.66 1642.54 1241 1642.54C1266.45 1642.06 1300.24 1650.66 1320.44 1654.13C1322.69 1634.66 1343.23 1556.11 1349.41 1532.6C1362.1 1484.28 1389.33 1460.05 1413.99 1416.9C1428.99 1390.67 1577.06 1233.71 1561.79 1215.56C1551.41 1203.23 1475.67 1246.58 1447.78 1264.05C1425.06 1278.28 1400.62 1296.61 1353.31 1334.58C1344.45 1312.6 1326.17 1262.39 1316.28 1241.13C1301.04 1208.4 1269.33 1144.48 1240 1144.75Z" fill="#f7b9ce" fill-opacity="0.996078" fill-rule="nonzero" opacity="1" stroke="none"/>
<path d="M1240 1144.75L1240 1642.44C1239.66 1642.45 1239.34 1642.54 1239 1642.53C1213.55 1642.06 1179.76 1650.66 1159.56 1654.13C1157.31 1634.66 1136.77 1556.1 1130.59 1532.59C1117.9 1484.27 1090.67 1460.04 1066.01 1416.9C1051.01 1390.67 902.94 1233.7 918.209 1215.56C928.589 1203.22 1004.33 1246.58 1032.22 1264.05C1054.94 1278.27 1079.38 1296.6 1126.69 1334.58C1135.55 1312.59 1153.83 1262.39 1163.72 1241.12C1178.96 1208.39 1210.67 1144.47 1240 1144.75Z" fill="#f7b9ce" fill-opacity="0.996078" fill-rule="nonzero" opacity="1" stroke="none"/>
</g>
<path d="M1118.91 444.719C1098.78 448.001 1082.25 524.993 1078.38 551.906C1075.51 571.826 1071.43 596.696 1067.94 620.437C1051.01 605.387 1020.45 579.45 1004.66 567.969C985.91 554.339 926.861 521.01 910.406 534.594C892.078 549.724 899.715 614.671 903.969 639.906C907.008 657.937 910.57 679.501 922.875 724.688C893.565 713.031 877.005 709.499 853.094 704C825.519 697.658 770.469 693.074 762.312 704.125C747.835 723.74 806.643 808.49 821.375 828.688C837.353 850.592 844.228 855.758 869.344 886.594C833.762 880.138 814.762 879.763 784.312 882.062C750.652 884.605 704.088 897.07 702.531 911.969C700.771 928.814 741.916 943.457 797.781 984.188C854.129 1025.27 874.365 1048.39 890.969 1071.72C862.929 1070.28 846.004 1070.76 829.094 1072.38C807.315 1074.46 777.166 1078.09 776.437 1091.09C775.554 1106.85 825.629 1133.43 840.938 1142.31C867.803 1157.91 910.552 1187.15 945.125 1220.28C981.256 1254.91 1018.09 1307.72 1064.47 1379.69C1092.54 1423.23 1120.12 1476.79 1141.44 1553.97C1148.72 1580.32 1160.77 1627 1163.38 1649.66C1199.17 1642.43 1204.56 1640.64 1240 1640.59C1275.44 1640.64 1280.83 1642.43 1316.62 1649.66C1319.23 1627 1331.28 1580.32 1338.56 1553.97C1359.88 1476.79 1387.46 1423.23 1415.53 1379.69C1461.91 1307.72 1498.74 1254.91 1534.88 1220.28C1569.45 1187.15 1612.2 1157.91 1639.06 1142.31C1654.37 1133.43 1704.45 1106.85 1703.56 1091.09C1702.83 1078.09 1672.69 1074.46 1650.91 1072.38C1634 1070.76 1617.07 1070.28 1589.03 1071.72C1605.63 1048.39 1625.87 1025.27 1682.22 984.188C1738.08 943.457 1779.23 928.814 1777.47 911.969C1775.91 897.07 1729.35 884.605 1695.69 882.062C1665.24 879.763 1646.24 880.138 1610.66 886.594C1635.77 855.758 1642.65 850.592 1658.62 828.688C1673.36 808.49 1732.16 723.74 1717.69 704.125C1709.53 693.074 1654.48 697.658 1626.91 704C1603 709.499 1586.43 713.031 1557.12 724.687C1569.43 679.501 1572.99 657.937 1576.03 639.906C1580.28 614.671 1587.92 549.724 1569.59 534.594C1553.14 521.01 1494.09 554.339 1475.34 567.969C1459.55 579.45 1428.99 605.387 1412.06 620.437C1408.57 596.696 1404.49 571.826 1401.62 551.906C1397.75 524.993 1381.22 448.001 1361.09 444.719C1338.77 441.077 1296.39 497.678 1282.47 515.625C1263.89 539.572 1259.53 551.504 1240 582.25C1220.47 551.504 1216.11 539.572 1197.53 515.625C1183.61 497.678 1141.23 441.077 1118.91 444.719Z" fill="#090909" fill-opacity="0.988235" fill-rule="nonzero" opacity="1" stroke="none"/>
<path d="M1240 1144.75C1210.67 1144.47 1178.95 1208.39 1163.72 1241.13C1153.82 1262.39 1135.55 1312.58 1126.69 1334.56C1079.38 1296.59 1054.94 1278.29 1032.22 1264.06C1012.59 1251.77 969.624 1226.98 942.062 1217.47C943.07 1218.42 944.131 1219.33 945.125 1220.28C981.256 1254.91 1018.09 1307.72 1064.47 1379.69C1092.54 1423.23 1120.12 1476.79 1141.44 1553.97C1148.72 1580.32 1160.77 1627 1163.38 1649.66C1199.17 1642.43 1204.56 1640.64 1240 1640.59C1275.44 1640.64 1280.83 1642.43 1316.62 1649.66C1319.23 1627 1331.28 1580.32 1338.56 1553.97C1359.88 1476.79 1387.47 1423.23 1415.53 1379.69C1461.91 1307.72 1498.74 1254.91 1534.88 1220.28C1535.87 1219.33 1536.93 1218.42 1537.94 1217.47C1510.38 1226.98 1467.41 1251.77 1447.78 1264.06C1425.06 1278.29 1400.61 1296.62 1353.31 1334.59C1344.45 1312.61 1326.18 1262.39 1316.28 1241.12C1301.05 1208.39 1269.33 1144.47 1240 1144.75Z" fill="#f7b9ce" fill-opacity="0.996078" fill-rule="nonzero" opacity="1" stroke="none"/>
</g>
<g id="お花" visibility="hidden">
<g opacity="1">
<path d="M1178.25 99.4499C1167.99 101.124 1159.54 140.41 1157.56 154.137C1156.1 164.298 1154.03 176.966 1152.25 189.075C1143.62 181.398 1128.02 168.181 1119.97 162.325C1110.41 155.373 1080.27 138.365 1071.87 145.294C1062.53 153.011 1066.42 186.141 1068.59 199.012C1070.14 208.209 1071.97 219.215 1078.25 242.262C1063.3 236.317 1054.85 234.505 1042.66 231.7C1028.59 228.465 1000.5 226.126 996.344 231.762C988.96 241.767 1018.95 284.992 1026.47 295.294C1034.62 306.466 1038.13 309.097 1050.94 324.825C1032.79 321.532 1023.09 321.339 1007.56 322.512C990.394 323.809 966.669 330.163 965.875 337.762C964.977 346.354 985.943 353.831 1014.44 374.606C1043.18 395.56 1053.5 407.365 1061.97 419.262C1047.67 418.528 1039.03 418.749 1030.41 419.575C1019.3 420.639 1003.93 422.506 1003.56 429.137C1003.11 437.174 1028.66 450.73 1036.47 455.262C1050.17 463.217 1071.96 478.143 1089.59 495.044C1108.02 512.706 1126.81 539.619 1150.47 576.325C1164.78 598.536 1178.85 625.868 1189.72 665.231C1193.43 678.672 1199.58 702.486 1200.91 714.044C1219.17 710.359 1221.92 709.445 1240 709.419C1258.08 709.445 1260.83 710.359 1279.09 714.044C1280.42 702.486 1286.57 678.672 1290.28 665.231C1301.15 625.868 1315.22 598.536 1329.53 576.325C1353.19 539.619 1371.98 512.706 1390.41 495.044C1408.04 478.143 1429.83 463.217 1443.53 455.262C1451.34 450.73 1476.89 437.174 1476.44 429.137C1476.07 422.506 1460.7 420.639 1449.59 419.575C1440.97 418.749 1432.33 418.528 1418.03 419.262C1426.5 407.365 1436.82 395.56 1465.56 374.606C1494.06 353.831 1515.02 346.354 1514.12 337.762C1513.33 330.163 1489.61 323.809 1472.44 322.512C1456.91 321.339 1447.21 321.532 1429.06 324.825C1441.87 309.097 1445.38 306.466 1453.53 295.294C1461.05 284.992 1491.04 241.767 1483.66 231.762C1479.5 226.126 1451.41 228.465 1437.34 231.7C1425.15 234.505 1416.7 236.317 1401.75 242.262C1408.03 219.215 1409.86 208.209 1411.41 199.012C1413.58 186.141 1417.47 153.011 1408.12 145.294C1399.73 138.365 1369.59 155.373 1360.03 162.325C1351.98 168.181 1336.38 181.398 1327.75 189.075C1325.97 176.966 1323.9 164.298 1322.44 154.137C1320.46 140.41 1312.01 101.124 1301.75 99.4499C1290.36 97.5926 1268.76 126.452 1261.66 135.606C1252.18 147.82 1249.96 153.924 1240 169.606C1230.04 153.924 1227.82 147.82 1218.34 135.606C1211.24 126.452 1189.64 97.5925 1178.25 99.4499Z" fill="#ff6093" fill-opacity="0.988235" fill-rule="nonzero" opacity="1" stroke="none"/>
<path d="M1240 453.781C1224.82 453.638 1208.39 486.713 1200.5 503.656C1195.38 514.664 1185.93 540.651 1181.34 552.031C1156.86 532.374 1144.2 522.895 1132.44 515.531C1122.18 509.107 1099.59 496.061 1085.34 491.25C1086.75 492.528 1088.23 493.728 1089.59 495.031C1108.02 512.694 1126.81 539.607 1150.47 576.312C1164.78 598.524 1178.85 625.855 1189.72 665.219C1193.43 678.66 1199.58 702.473 1200.91 714.031C1219.17 710.346 1221.92 709.432 1240 709.406C1258.08 709.432 1260.83 710.346 1279.09 714.031C1280.42 702.473 1286.57 678.66 1290.28 665.219C1301.15 625.855 1315.22 598.524 1329.53 576.312C1353.19 539.606 1371.98 512.693 1390.41 495.031C1391.77 493.728 1393.25 492.528 1394.66 491.25C1380.41 496.061 1357.82 509.107 1347.56 515.531C1335.8 522.895 1323.14 532.374 1298.66 552.031C1294.07 540.651 1284.62 514.664 1279.5 503.656C1271.61 486.713 1255.18 453.638 1240 453.781Z" fill="#f7b9ce" fill-opacity="0.996078" fill-rule="nonzero" opacity="1" stroke="none"/>
</g>
<g opacity="1">
<path d="M1861.12 506.187C1856.36 496.94 1816.38 501.015 1802.72 503.366C1792.6 505.106 1779.91 507.046 1767.84 509.082C1772.48 498.504 1780.25 479.594 1783.34 470.127C1787 458.888 1793.89 424.973 1784.71 419.125C1774.49 412.611 1744.17 426.532 1732.6 432.564C1724.33 436.874 1714.42 442.007 1694.43 455.083C1695.48 439.028 1694.6 430.433 1693.51 417.966C1692.25 403.589 1685.82 376.149 1679.17 373.929C1667.38 369.989 1635.5 411.848 1628.02 422.172C1619.9 433.369 1618.48 437.518 1607.47 454.553C1605.01 436.273 1602.2 426.99 1596.3 412.577C1589.77 396.644 1576.41 376.034 1568.94 377.621C1560.49 379.416 1559.84 401.666 1548.86 435.177C1537.79 468.977 1529.74 482.435 1521.03 494.159C1517.32 480.328 1514.45 472.181 1511.01 464.23C1506.57 453.991 1500.06 439.951 1493.63 441.642C1485.85 443.691 1480.83 472.174 1478.93 480.999C1475.58 496.487 1468.1 521.815 1457.46 543.8C1446.34 566.776 1426.53 592.947 1398.9 626.768C1382.19 647.233 1360.52 669.036 1326.43 691.514C1314.78 699.189 1294.02 712.375 1283.44 717.204C1292.57 733.439 1294.29 735.779 1299.89 752.968C1305.44 770.173 1305.42 773.077 1307.54 791.584C1318.95 789.287 1343.5 787.79 1357.43 787.179C1398.23 785.387 1428.56 790.338 1454.1 797.109C1496.31 808.299 1527.71 817.876 1550.19 829.962C1571.71 841.528 1592.62 857.653 1604.41 868.237C1611.13 874.267 1631.9 894.392 1639.41 891.486C1645.6 889.089 1642.64 873.897 1640.23 863.002C1638.36 854.542 1635.91 846.26 1630.8 832.881C1644.73 837.269 1659.14 843.45 1687.93 864.33C1716.48 885.033 1730.06 902.673 1737.95 899.17C1744.94 896.072 1743.67 871.544 1739.61 854.811C1735.94 839.675 1732.76 830.511 1724.04 814.262C1742.95 821.6 1746.53 824.127 1759.67 828.435C1771.79 832.408 1822.16 847.616 1829.4 837.508C1833.48 831.813 1822.59 805.814 1815.18 793.432C1808.75 782.694 1804.42 775.216 1794.16 762.827C1818.02 761.693 1829.05 760.041 1838.28 758.681C1851.19 756.777 1883.91 750.271 1888.37 738.999C1892.37 728.879 1866.9 705.45 1857.34 698.498C1849.29 692.641 1831.91 681.88 1821.94 676.035C1832.91 670.606 1844.33 664.735 1853.54 660.211C1865.99 654.099 1900.76 633.951 1899.19 623.672C1897.45 612.267 1863.33 600.612 1852.43 596.677C1837.89 591.428 1831.4 591.199 1813.41 586.557C1825.26 572.246 1830.38 568.254 1839.08 555.474C1845.6 545.896 1866.39 516.447 1861.12 506.187Z" fill="#ff6093" fill-opacity="0.988235" fill-rule="nonzero" opacity="1" stroke="none"/>
<path d="M1543.08 674.161C1538.53 659.673 1502.01 654.239 1483.46 651.96C1471.4 650.48 1443.77 649.504 1431.53 648.65C1442.68 619.296 1447.8 604.332 1451.18 590.873C1454.13 579.133 1459.57 553.622 1459.76 538.588C1458.98 540.317 1458.29 542.101 1457.47 543.797C1446.35 566.772 1426.54 592.943 1398.91 626.764C1382.2 647.229 1360.53 669.032 1326.44 691.51C1314.8 699.185 1294.04 712.371 1283.45 717.2C1292.59 733.435 1294.31 735.776 1299.9 752.964C1305.45 770.169 1305.43 773.073 1307.56 791.58C1318.96 789.283 1343.51 787.787 1357.44 787.175C1398.24 785.383 1428.57 790.334 1454.12 797.105C1496.33 808.295 1527.72 817.872 1550.2 829.959C1551.86 830.851 1553.46 831.895 1555.11 832.836C1546.14 820.769 1526.77 803.301 1517.49 795.521C1506.86 786.603 1493.94 777.483 1467.7 760.249C1477.11 752.378 1498.92 735.38 1507.81 727.113C1521.5 714.388 1547.9 688.561 1543.08 674.161Z" fill="#f7b9ce" fill-opacity="0.996078" fill-rule="nonzero" opacity="1" stroke="none"/>
</g>
<g opacity="1">
<path d="M1684.85 1281.05C1692.18 1273.68 1675.97 1236.91 1669.51 1224.63C1664.73 1215.55 1658.97 1204.08 1653.31 1193.22C1664.81 1194.37 1685.19 1195.93 1695.15 1195.94C1706.97 1195.96 1741.36 1192.05 1744.09 1181.52C1747.13 1169.78 1724.53 1145.24 1715.22 1136.09C1708.57 1129.55 1700.63 1121.71 1682.03 1106.73C1697.62 1102.78 1705.53 1099.29 1717.05 1094.4C1730.34 1088.77 1754.45 1074.18 1754.51 1067.18C1754.62 1054.74 1704.97 1037.34 1692.84 1033.41C1679.69 1029.14 1675.3 1029.07 1655.7 1023.85C1672.33 1015.87 1680.29 1010.34 1692.18 1000.27C1705.32 989.15 1720.81 970.085 1716.99 963.465C1712.68 955.981 1691.31 962.228 1656.05 962.125C1620.48 962.021 1605.19 958.518 1591.36 953.853C1603.37 946.056 1610.23 940.811 1616.73 935.081C1625.1 927.701 1636.45 917.174 1632.86 911.587C1628.51 904.815 1599.86 908.828 1590.88 909.74C1575.12 911.339 1548.72 912.036 1524.52 908.698C1499.23 905.209 1468.23 894.44 1427.53 878.598C1402.91 869.012 1375.49 855.131 1343.58 829.636C1332.69 820.93 1313.74 805.252 1305.88 796.673C1293.26 810.371 1291.56 812.729 1276.94 823.357C1262.29 833.943 1259.52 834.82 1242.57 842.551C1248.27 852.691 1257.27 875.579 1262.15 888.641C1276.45 926.896 1281.1 957.279 1282.54 983.665C1284.92 1027.27 1285.49 1060.09 1280.93 1085.2C1276.57 1109.23 1267.69 1134.11 1261.26 1148.59C1257.59 1156.84 1244.86 1182.81 1249.94 1189.05C1254.13 1194.2 1267.67 1186.7 1277.29 1181.04C1284.76 1176.65 1291.88 1171.76 1303.03 1162.78C1303.15 1177.38 1301.72 1192.99 1290.74 1226.83C1279.86 1260.37 1267.27 1278.73 1273.04 1285.16C1278.14 1290.84 1301.08 1282.07 1315.74 1273.04C1329.01 1264.88 1336.75 1259.04 1349.51 1245.72C1348.36 1265.97 1347.07 1270.16 1347.02 1283.99C1346.98 1296.74 1348.06 1349.34 1359.91 1353.11C1366.58 1355.24 1387.95 1336.86 1397.44 1325.99C1405.67 1316.56 1411.45 1310.14 1420.07 1296.55C1428.51 1318.9 1433.49 1328.88 1437.63 1337.24C1443.42 1348.93 1459.71 1378.05 1471.8 1378.81C1482.67 1379.5 1497.09 1348.04 1500.76 1336.8C1503.84 1327.33 1508.71 1307.48 1511.2 1296.2C1519.75 1304.96 1528.86 1314 1536 1321.37C1545.66 1331.33 1575.55 1358.19 1584.84 1353.52C1595.15 1348.34 1595.71 1312.3 1596.09 1300.72C1596.6 1285.26 1594.82 1279.02 1593.68 1260.48C1610.95 1267.33 1616.33 1270.97 1631.17 1275.3C1642.29 1278.55 1676.72 1289.24 1684.85 1281.05Z" fill="#ff6093" fill-opacity="0.988235" fill-rule="nonzero" opacity="1" stroke="none"/>
<path d="M1426.94 1030.36C1439.32 1021.57 1433.22 985.146 1429.66 966.799C1427.35 954.879 1419.75 928.293 1416.79 916.386C1448.15 917.937 1463.96 918.184 1477.81 917.247C1489.88 916.429 1515.83 913.738 1530.19 909.276C1528.3 909.065 1526.39 908.965 1524.53 908.708C1499.24 905.219 1468.24 894.45 1427.54 878.608C1402.92 869.022 1375.49 855.141 1343.59 829.646C1332.7 820.94 1313.75 805.261 1305.89 796.683C1293.27 810.381 1291.57 812.739 1276.95 823.367C1262.29 833.953 1259.53 834.83 1242.58 842.561C1248.28 852.701 1257.28 875.589 1262.16 888.651C1276.45 926.906 1281.1 957.289 1282.54 983.675C1284.92 1027.28 1285.5 1060.1 1280.94 1085.21C1280.6 1087.07 1280.11 1088.91 1279.72 1090.77C1288.43 1078.51 1299.07 1054.7 1303.61 1043.47C1308.81 1030.61 1313.5 1015.51 1321.79 985.221C1332.18 991.745 1355.08 1007.25 1365.69 1013.15C1382.02 1022.25 1414.73 1039.39 1426.94 1030.36Z" fill="#f7b9ce" fill-opacity="0.996078" fill-rule="nonzero" opacity="1" stroke="none"/>
</g>
<g opacity="1">
<path d="M894.33 1353.03C903.616 1357.71 933.547 1330.89 943.216 1320.95C950.373 1313.59 959.492 1304.56 968.054 1295.81C970.524 1307.1 975.368 1326.96 978.44 1336.43C982.088 1347.68 996.469 1379.15 1007.33 1378.48C1019.43 1377.74 1035.76 1348.64 1041.57 1336.96C1045.72 1328.61 1050.71 1318.63 1059.18 1296.29C1067.78 1309.89 1073.55 1316.32 1081.77 1325.76C1091.24 1336.65 1112.59 1355.05 1119.27 1352.94C1131.12 1349.19 1132.27 1296.59 1132.25 1283.84C1132.22 1270.01 1130.93 1265.82 1129.82 1245.56C1142.56 1258.9 1150.29 1264.75 1163.54 1272.94C1178.2 1281.98 1201.12 1290.79 1206.23 1285.11C1212.01 1278.69 1199.45 1260.31 1188.61 1226.75C1177.68 1192.91 1176.27 1177.29 1176.41 1162.69C1187.55 1171.69 1194.67 1176.59 1202.13 1180.99C1211.74 1186.66 1225.27 1194.18 1229.47 1189.04C1234.56 1182.8 1221.86 1156.81 1218.21 1148.56C1211.8 1134.07 1202.95 1109.18 1198.62 1085.14C1194.1 1060.02 1194.72 1027.2 1197.16 983.604C1198.64 957.22 1203.33 926.844 1217.68 888.61C1222.58 875.555 1231.61 852.679 1237.33 842.547C1220.39 834.793 1217.62 833.911 1202.99 823.305C1188.38 812.656 1186.69 810.296 1174.08 796.58C1166.21 805.146 1147.24 820.798 1136.33 829.488C1104.4 854.938 1076.95 868.78 1052.32 878.331C1011.6 894.115 980.577 904.839 955.286 908.292C931.085 911.597 904.685 910.861 888.924 909.24C879.943 908.316 851.306 904.261 846.946 911.027C843.348 916.61 854.678 927.153 863.038 934.544C869.53 940.283 876.385 945.539 888.386 953.353C874.541 957.998 859.251 961.478 823.683 961.532C788.42 961.585 767.064 955.307 762.739 962.786C758.913 969.399 774.369 988.488 787.495 999.63C799.369 1009.71 807.326 1015.25 823.942 1023.26C804.333 1028.45 799.948 1028.52 786.787 1032.76C774.652 1036.68 724.976 1054.01 725.067 1066.44C725.119 1073.45 749.215 1088.07 762.494 1093.72C774.009 1098.62 781.908 1102.13 797.496 1106.1C778.87 1121.06 770.919 1128.89 764.258 1135.41C754.936 1144.55 732.305 1169.06 735.33 1180.8C738.046 1191.34 772.426 1195.3 784.248 1195.29C794.206 1195.29 814.591 1193.77 826.087 1192.63C820.411 1203.48 814.634 1214.94 809.845 1224.02C803.373 1236.29 787.11 1273.03 794.428 1280.42C802.547 1288.62 836.991 1277.97 848.117 1274.74C862.964 1270.44 868.347 1266.8 885.625 1259.97C884.463 1278.51 882.669 1284.76 883.154 1300.21C883.517 1311.79 884.027 1347.84 894.33 1353.03Z" fill="#ff6093" fill-opacity="0.988235" fill-rule="nonzero" opacity="1" stroke="none"/>
<path d="M1052.69 1030.1C1064.89 1039.14 1097.63 1022.04 1113.97 1012.97C1124.58 1007.08 1147.5 991.613 1157.91 985.104C1166.16 1015.4 1170.82 1030.51 1176.01 1043.38C1180.53 1054.61 1191.13 1078.44 1199.83 1090.71C1199.44 1088.85 1198.95 1087.01 1198.61 1085.15C1194.09 1060.03 1194.71 1027.21 1197.16 983.614C1198.63 957.23 1203.33 926.854 1217.67 888.62C1222.57 875.565 1231.6 852.689 1237.32 842.557C1220.38 834.803 1217.62 833.921 1202.98 823.315C1188.37 812.666 1186.68 810.306 1174.07 796.59C1166.2 805.156 1147.23 820.808 1136.33 829.498C1104.39 854.948 1076.95 868.79 1052.31 878.341C1011.59 894.125 980.57 904.849 955.278 908.302C953.412 908.557 951.504 908.654 949.617 908.863C963.968 913.345 989.911 916.073 1001.99 916.908C1015.83 917.865 1031.64 917.64 1063.01 916.135C1060.03 928.036 1052.39 954.612 1050.06 966.528C1046.48 984.871 1040.33 1021.29 1052.69 1030.1Z" fill="#f7b9ce" fill-opacity="0.996078" fill-rule="nonzero" opacity="1" stroke="none"/>
</g>
<g opacity="1">
<path d="M580.873 623.399C579.297 633.677 614.058 653.839 626.504 659.956C635.717 664.484 647.128 670.36 658.096 675.794C648.13 681.635 630.744 692.388 622.688 698.242C613.124 705.191 587.643 728.609 591.643 738.73C596.098 750.004 628.814 756.523 641.726 758.432C650.952 759.797 661.985 761.453 685.845 762.598C675.575 774.982 671.244 782.459 664.811 793.193C657.393 805.572 646.498 831.566 650.575 837.263C657.812 847.375 708.185 832.187 720.303 828.219C733.445 823.917 737.031 821.391 755.945 814.061C747.211 830.307 744.035 839.47 740.357 854.604C736.291 871.335 735.011 895.862 741.994 898.963C749.89 902.469 763.473 884.835 792.029 864.145C820.831 843.276 835.245 837.101 849.176 832.718C844.063 846.095 841.607 854.377 839.731 862.836C837.314 873.731 834.348 888.92 840.54 891.321C848.045 894.23 868.826 874.113 875.547 868.085C887.342 857.507 908.265 841.39 929.784 829.834C952.272 817.757 983.67 808.193 1025.89 797.02C1051.43 790.26 1081.77 785.321 1122.57 787.13C1136.5 787.747 1161.04 789.254 1172.45 791.556C1174.58 773.05 1174.56 770.146 1180.12 752.943C1185.72 735.757 1187.44 733.417 1196.58 717.186C1186 712.353 1165.25 699.158 1153.61 691.478C1119.52 668.986 1097.87 647.174 1081.16 626.702C1053.55 592.87 1033.75 566.691 1022.64 543.71C1012 521.72 1004.53 496.389 1001.19 480.9C999.294 472.074 994.286 443.589 986.503 441.537C980.081 439.843 973.562 453.881 969.121 464.118C965.673 472.067 962.798 480.212 959.082 494.043C950.379 482.315 942.337 468.853 931.278 435.048C920.313 401.533 919.672 379.282 911.223 377.485C903.75 375.894 890.383 396.499 883.85 412.429C877.94 426.84 875.131 436.122 872.661 454.4C861.655 437.36 860.236 433.211 852.124 422.011C844.645 411.684 812.789 369.811 800.994 373.747C794.349 375.964 787.904 403.402 786.639 417.778C785.543 430.245 784.659 438.84 785.699 454.894C765.715 441.811 755.811 436.673 747.542 432.36C735.969 426.323 705.66 412.39 695.433 418.899C686.253 424.743 693.127 458.661 696.788 469.902C699.872 479.37 707.63 498.283 712.267 508.864C700.199 506.822 687.512 504.877 677.396 503.132C663.729 500.776 623.754 496.684 618.993 505.929C613.712 516.187 634.494 545.645 641.008 555.226C649.701 568.009 654.822 572.003 666.664 586.319C648.672 590.954 642.182 591.18 627.639 596.423C616.74 600.353 582.621 611.995 580.873 623.399Z" fill="#ff6093" fill-opacity="0.988235" fill-rule="nonzero" opacity="1" stroke="none"/>
<path d="M936.962 674.036C932.139 688.434 958.527 714.271 972.209 727.002C981.098 735.272 1002.9 752.279 1012.31 760.154C986.053 777.377 973.13 786.492 962.496 795.406C953.218 803.182 933.836 820.641 924.864 832.705C926.512 831.764 928.112 830.721 929.772 829.83C952.26 817.753 983.659 808.189 1025.87 797.017C1051.42 790.256 1081.76 785.317 1122.55 787.126C1136.49 787.744 1161.03 789.25 1172.44 791.552C1174.57 773.046 1174.55 770.142 1180.1 752.939C1185.71 735.753 1187.43 733.413 1196.57 717.182C1185.99 712.349 1165.23 699.154 1153.6 691.474C1119.51 668.982 1097.85 647.17 1081.15 626.698C1053.53 592.866 1033.74 566.687 1022.62 543.706C1021.8 542.011 1021.12 540.226 1020.34 538.497C1020.52 553.531 1025.95 579.044 1028.9 590.786C1032.27 604.246 1037.38 619.212 1048.52 648.57C1036.28 649.42 1008.65 650.384 996.594 651.859C978.044 654.13 941.513 659.549 936.962 674.036Z" fill="#f7b9ce" fill-opacity="0.996078" fill-rule="nonzero" opacity="1" stroke="none"/>
</g>
<path d="M1149.04 775.752C1149.04 725.517 1189.76 684.793 1240 684.793C1290.24 684.793 1330.96 725.517 1330.96 775.752C1330.96 825.987 1290.24 866.711 1240 866.711C1189.76 866.711 1149.04 825.987 1149.04 775.752Z" fill="#f7b9ce" fill-opacity="0.996078" fill-rule="nonzero" opacity="1" stroke="none"/>
</g>
<g id="完成" visibility="hidden">
<g opacity="1">
<g opacity="1">
<path d="M1144.03 246.393C1128.09 248.993 1114.97 310.02 1111.9 331.343C1109.62 347.126 1106.41 366.804 1103.64 385.614C1090.23 373.69 1066.01 353.158 1053.5 344.061C1038.65 333.262 991.828 306.843 978.791 317.605C964.27 329.593 970.324 381.057 973.694 401.051C976.102 415.337 978.945 432.433 988.694 468.234C965.471 458.998 952.348 456.184 933.403 451.827C911.556 446.802 867.925 443.168 861.463 451.924C849.993 467.465 896.586 534.609 908.258 550.612C920.917 567.967 926.368 572.054 946.267 596.485C918.076 591.37 903.015 591.07 878.89 592.892C852.22 594.907 815.367 604.777 814.133 616.581C812.739 629.928 845.307 641.543 889.569 673.814C934.214 706.363 950.248 724.7 963.403 743.181C941.187 742.041 927.773 742.384 914.375 743.667C897.119 745.319 873.253 748.22 872.676 758.521C871.976 771.005 911.663 792.062 923.792 799.103C945.077 811.459 978.923 834.645 1006.31 860.898C1034.94 888.334 1064.13 930.14 1100.88 987.158C1123.11 1021.66 1144.96 1064.12 1161.85 1125.26C1167.61 1146.14 1177.16 1183.13 1179.23 1201.09C1207.59 1195.36 1211.87 1193.94 1239.95 1193.9C1268.03 1193.94 1272.32 1195.36 1300.68 1201.09C1302.75 1183.13 1312.29 1146.14 1318.06 1125.26C1334.95 1064.12 1356.79 1021.66 1379.03 987.158C1415.78 930.14 1444.96 888.334 1473.59 860.898C1500.98 834.645 1534.83 811.459 1556.11 799.103C1568.24 792.062 1607.93 771.004 1607.23 758.521C1606.65 748.22 1582.79 745.319 1565.53 743.667C1552.13 742.384 1538.72 742.041 1516.5 743.181C1529.66 724.7 1545.69 706.363 1590.34 673.814C1634.6 641.543 1667.17 629.928 1665.77 616.581C1664.54 604.777 1627.68 594.907 1601.01 592.892C1576.89 591.07 1561.83 591.37 1533.64 596.485C1553.54 572.054 1558.99 567.967 1571.65 550.612C1583.32 534.609 1629.91 467.465 1618.44 451.924C1611.98 443.168 1568.35 446.802 1546.5 451.827C1527.56 456.184 1514.43 458.999 1491.21 468.234C1500.96 432.433 1503.8 415.337 1506.21 401.051C1509.58 381.057 1515.63 329.593 1501.11 317.605C1488.08 306.843 1441.26 333.262 1426.41 344.061C1413.89 353.158 1389.67 373.69 1376.26 385.614C1373.49 366.804 1370.28 347.126 1368.01 331.343C1364.94 310.02 1351.82 248.993 1335.87 246.393C1318.18 243.508 1284.62 288.338 1273.59 302.557C1258.87 321.53 1255.43 331.012 1239.95 355.372C1224.48 331.012 1221.03 321.53 1206.31 302.557C1195.28 288.338 1161.72 243.508 1144.03 246.393Z" fill="#ff6093" fill-opacity="0.988235" fill-rule="nonzero" opacity="1" stroke="none"/>
<path d="M1239.95 796.802C1216.37 796.579 1190.84 847.957 1178.59 874.277C1170.64 891.376 1155.96 931.744 1148.84 949.421C1110.8 918.886 1091.14 904.162 1072.87 892.723C1056.93 882.744 1021.84 862.478 999.713 855.005C1001.89 856.99 1004.2 858.854 1006.31 860.879C1034.94 888.315 1064.13 930.121 1100.88 987.139C1123.11 1021.64 1144.96 1064.1 1161.85 1125.24C1167.61 1146.12 1177.16 1183.11 1179.23 1201.07C1207.59 1195.34 1211.87 1193.92 1239.95 1193.88C1268.03 1193.92 1272.32 1195.34 1300.68 1201.07C1302.75 1183.11 1312.29 1146.12 1318.06 1125.24C1334.95 1064.1 1356.79 1021.64 1379.03 987.139C1415.78 930.121 1444.96 888.315 1473.59 860.879C1475.7 858.854 1478.01 856.99 1480.19 855.005C1458.06 862.478 1422.97 882.744 1407.04 892.723C1388.77 904.162 1369.1 918.885 1331.07 949.421C1323.94 931.744 1309.27 891.376 1301.31 874.277C1289.06 847.957 1263.54 796.58 1239.95 796.802Z" fill="#f7b9ce" fill-opacity="0.996078" fill-rule="nonzero" opacity="1" stroke="none"/>
</g>
<g opacity="1">
<path d="M2204.78 878.208C2197.39 863.844 2135.29 870.173 2114.06 873.826C2098.35 876.529 2078.64 879.542 2059.89 882.706C2067.1 866.274 2079.16 836.9 2083.96 822.193C2089.65 804.735 2100.35 752.052 2086.1 742.969C2070.22 732.85 2023.12 754.475 2005.14 763.844C1992.3 770.539 1976.91 778.513 1945.86 798.824C1947.48 773.886 1946.11 760.534 1944.42 741.168C1942.46 718.836 1932.47 676.21 1922.15 672.761C1903.83 666.641 1854.32 731.664 1842.69 747.701C1830.09 765.094 1827.88 771.539 1810.77 798C1806.95 769.606 1802.59 755.185 1793.42 732.797C1783.28 708.047 1762.53 676.032 1750.92 678.497C1737.79 681.285 1736.79 715.847 1719.73 767.902C1702.53 820.407 1690.03 841.313 1676.5 859.525C1670.74 838.039 1666.28 825.384 1660.93 813.034C1654.04 797.128 1643.92 775.319 1633.94 777.945C1621.85 781.128 1614.05 825.373 1611.09 839.082C1605.9 863.14 1594.28 902.484 1577.75 936.636C1560.47 972.326 1529.7 1012.98 1486.79 1065.51C1460.82 1097.31 1427.17 1131.17 1374.2 1166.09C1356.12 1178.01 1323.87 1198.49 1307.43 1206C1321.62 1231.21 1324.29 1234.85 1332.99 1261.55C1341.6 1288.28 1341.57 1292.79 1344.87 1321.54C1362.59 1317.97 1400.72 1315.64 1422.36 1314.69C1485.74 1311.91 1532.86 1319.6 1572.54 1330.12C1638.11 1347.5 1686.87 1362.38 1721.8 1381.15C1755.22 1399.12 1787.71 1424.17 1806.02 1440.61C1816.46 1449.97 1848.73 1481.24 1860.39 1476.72C1870.01 1473 1865.41 1449.4 1861.66 1432.48C1858.75 1419.33 1854.94 1406.47 1847.01 1385.69C1868.65 1392.5 1891.03 1402.1 1935.76 1434.54C1980.1 1466.7 2001.19 1494.1 2013.46 1488.66C2024.31 1483.85 2022.34 1445.74 2016.03 1419.75C2010.33 1396.24 2005.4 1382 1991.84 1356.76C2021.22 1368.16 2026.79 1372.09 2047.2 1378.78C2066.02 1384.95 2144.26 1408.58 2155.51 1392.87C2161.85 1384.03 2144.94 1343.64 2133.42 1324.41C2123.44 1307.73 2116.71 1296.11 2100.77 1276.87C2137.83 1275.1 2154.97 1272.54 2169.31 1270.43C2189.36 1267.47 2240.19 1257.36 2247.12 1239.85C2253.33 1224.13 2213.77 1187.74 2198.92 1176.94C2186.41 1167.84 2159.41 1151.13 2143.93 1142.05C2160.97 1133.61 2178.7 1124.49 2193.01 1117.46C2212.35 1107.97 2266.36 1076.67 2263.92 1060.71C2261.21 1042.99 2208.22 1024.88 2191.29 1018.77C2168.7 1010.62 2158.62 1010.26 2130.68 1003.05C2149.08 980.823 2157.04 974.622 2170.55 954.769C2180.68 939.891 2212.98 894.145 2204.78 878.208Z" fill="#ff6093" fill-opacity="0.988235" fill-rule="nonzero" opacity="1" stroke="none"/>
<path d="M1710.75 1139.14C1703.69 1116.63 1646.94 1108.19 1618.13 1104.65C1599.41 1102.35 1556.49 1100.83 1537.47 1099.51C1554.8 1053.91 1562.74 1030.66 1567.99 1009.76C1572.57 991.52 1581.03 951.892 1581.32 928.539C1580.1 931.225 1579.04 933.996 1577.77 936.63C1560.49 972.32 1529.72 1012.97 1486.81 1065.51C1460.84 1097.3 1427.18 1131.17 1374.22 1166.08C1356.14 1178.01 1323.89 1198.49 1307.45 1205.99C1321.64 1231.21 1324.31 1234.85 1333 1261.55C1341.62 1288.27 1341.59 1292.78 1344.89 1321.53C1362.61 1317.96 1400.74 1315.64 1422.38 1314.69C1485.75 1311.9 1532.88 1319.6 1572.55 1330.11C1638.12 1347.5 1686.89 1362.37 1721.82 1381.15C1724.39 1382.53 1726.88 1384.15 1729.44 1385.62C1715.51 1366.87 1685.41 1339.74 1671.01 1327.65C1654.49 1313.8 1634.42 1299.63 1593.65 1272.86C1608.27 1260.63 1642.15 1234.23 1655.96 1221.39C1677.22 1201.62 1718.23 1161.5 1710.75 1139.14Z" fill="#f7b9ce" fill-opacity="0.996078" fill-rule="nonzero" opacity="1" stroke="none"/>
</g>
<g opacity="1">
<path d="M1930.97 2081.87C1942.35 2070.41 1917.17 2013.29 1907.14 1994.22C1899.72 1980.11 1890.78 1962.29 1881.98 1945.43C1899.84 1947.22 1931.5 1949.63 1946.97 1949.66C1965.33 1949.69 2018.75 1943.61 2022.99 1927.25C2027.71 1909.02 1992.61 1870.9 1978.15 1856.68C1967.82 1846.53 1955.49 1834.35 1926.59 1811.08C1950.81 1804.94 1963.09 1799.51 1980.99 1791.93C2001.63 1783.18 2039.09 1760.52 2039.18 1749.64C2039.35 1730.32 1962.23 1703.29 1943.39 1697.18C1922.95 1690.56 1916.14 1690.44 1885.69 1682.34C1911.52 1669.94 1923.89 1661.34 1942.36 1645.71C1962.77 1628.43 1986.82 1598.81 1980.9 1588.53C1974.19 1576.91 1941.01 1586.61 1886.23 1586.45C1830.98 1586.29 1807.24 1580.85 1785.74 1573.6C1804.4 1561.49 1815.06 1553.34 1825.16 1544.44C1838.16 1532.98 1855.78 1516.63 1850.21 1507.95C1843.45 1497.43 1798.95 1503.66 1785 1505.08C1760.52 1507.56 1719.51 1508.64 1681.92 1503.46C1642.64 1498.04 1594.48 1481.31 1531.26 1456.7C1493.01 1441.81 1450.41 1420.25 1400.86 1380.64C1383.94 1367.12 1354.5 1342.77 1342.29 1329.44C1322.68 1350.72 1320.05 1354.38 1297.34 1370.89C1274.57 1387.34 1270.27 1388.7 1243.95 1400.71C1252.81 1416.46 1266.78 1452.01 1274.36 1472.3C1296.57 1531.73 1303.79 1578.92 1306.03 1619.91C1309.72 1687.64 1310.62 1738.62 1303.54 1777.64C1296.76 1814.97 1282.96 1853.6 1272.97 1876.1C1267.28 1888.91 1247.5 1929.25 1255.39 1938.95C1261.9 1946.95 1282.93 1935.3 1297.87 1926.51C1309.48 1919.69 1320.54 1912.1 1337.86 1898.14C1338.05 1920.82 1335.83 1945.08 1318.78 1997.63C1301.87 2049.73 1282.31 2078.25 1291.27 2088.24C1299.2 2097.07 1334.83 2083.44 1357.61 2069.42C1378.21 2056.74 1390.23 2047.66 1410.06 2026.98C1408.28 2058.44 1406.27 2064.95 1406.2 2086.43C1406.14 2106.24 1407.8 2187.95 1426.21 2193.8C1436.58 2197.1 1469.78 2168.56 1484.52 2151.67C1497.31 2137.02 1506.28 2127.04 1519.67 2105.94C1532.78 2140.65 1540.51 2156.16 1546.94 2169.14C1555.94 2187.31 1581.24 2232.54 1600.03 2233.72C1616.9 2234.79 1639.31 2185.92 1645 2168.46C1649.8 2153.76 1657.37 2122.92 1661.23 2105.39C1674.51 2119 1688.65 2133.05 1699.75 2144.5C1714.75 2159.96 1761.19 2201.68 1775.62 2194.43C1791.64 2186.39 1792.51 2130.4 1793.1 2112.41C1793.89 2088.41 1791.11 2078.71 1789.35 2049.9C1816.17 2060.55 1824.53 2066.21 1847.58 2072.93C1864.86 2077.97 1918.34 2094.58 1930.97 2081.87Z" fill="#ff6093" fill-opacity="0.988235" fill-rule="nonzero" opacity="1" stroke="none"/>
<path d="M1530.34 1692.45C1549.57 1678.79 1540.09 1622.21 1534.56 1593.71C1530.98 1575.2 1519.17 1533.9 1514.57 1515.4C1563.29 1517.81 1587.85 1518.19 1609.35 1516.74C1628.12 1515.47 1668.42 1511.29 1690.72 1504.36C1687.79 1504.03 1684.83 1503.87 1681.93 1503.47C1642.65 1498.05 1594.49 1481.33 1531.27 1456.72C1493.02 1441.83 1450.42 1420.26 1400.87 1380.66C1383.95 1367.14 1354.51 1342.78 1342.31 1329.46C1322.7 1350.74 1320.06 1354.4 1297.35 1370.91C1274.58 1387.35 1270.28 1388.71 1243.96 1400.72C1252.82 1416.47 1266.79 1452.03 1274.37 1472.32C1296.58 1531.74 1303.8 1578.94 1306.04 1619.93C1309.74 1687.66 1310.63 1738.64 1303.55 1777.65C1303.03 1780.53 1302.25 1783.39 1301.65 1786.28C1315.18 1767.25 1331.71 1730.25 1338.76 1712.81C1346.84 1692.83 1354.12 1669.37 1367.01 1622.33C1383.15 1632.46 1418.72 1656.54 1435.19 1665.72C1460.56 1679.84 1511.37 1706.47 1530.34 1692.45Z" fill="#f7b9ce" fill-opacity="0.996078" fill-rule="nonzero" opacity="1" stroke="none"/>
</g>
<g opacity="1">
<path d="M702.998 2193.67C717.422 2200.94 763.916 2159.29 778.936 2143.84C790.053 2132.41 804.218 2118.38 817.518 2104.79C821.354 2122.32 828.879 2153.17 833.652 2167.89C839.318 2185.35 861.658 2234.25 878.531 2233.21C897.326 2232.05 922.684 2186.86 931.713 2168.7C938.164 2155.73 945.915 2140.23 959.077 2105.54C972.432 2126.66 981.394 2136.66 994.157 2151.32C1008.88 2168.23 1042.03 2196.82 1052.41 2193.53C1070.82 2187.71 1072.61 2106 1072.57 2086.19C1072.54 2064.71 1070.53 2058.2 1068.8 2026.74C1088.59 2047.45 1100.6 2056.55 1121.19 2069.26C1143.95 2083.31 1179.56 2096.99 1187.5 2088.16C1196.47 2078.19 1176.96 2049.64 1160.12 1997.52C1143.15 1944.94 1140.96 1920.68 1141.18 1898C1158.48 1911.98 1169.53 1919.59 1181.13 1926.43C1196.06 1935.24 1217.07 1946.92 1223.59 1938.93C1231.49 1929.24 1211.77 1888.87 1206.1 1876.05C1196.15 1853.54 1182.4 1814.89 1175.67 1777.54C1168.65 1738.52 1169.62 1687.54 1173.41 1619.82C1175.71 1578.83 1183 1531.65 1205.28 1472.25C1212.89 1451.97 1226.92 1416.44 1235.8 1400.7C1209.49 1388.66 1205.2 1387.29 1182.46 1370.81C1159.77 1354.27 1157.14 1350.6 1137.56 1329.3C1125.33 1342.6 1095.86 1366.92 1078.92 1380.42C1029.31 1419.95 986.68 1441.45 948.407 1456.29C885.159 1480.81 836.971 1497.46 797.684 1502.83C760.091 1507.96 719.082 1506.82 694.599 1504.3C680.648 1502.86 636.165 1496.57 629.392 1507.08C623.803 1515.75 641.403 1532.13 654.39 1543.61C664.473 1552.52 675.122 1560.69 693.764 1572.82C672.258 1580.04 648.507 1585.45 593.256 1585.53C538.479 1585.61 505.305 1575.86 498.587 1587.48C492.645 1597.75 516.653 1627.4 537.043 1644.71C555.487 1660.37 567.847 1668.98 593.658 1681.42C563.198 1689.48 556.386 1689.58 535.942 1696.18C517.092 1702.26 439.927 1729.18 440.069 1748.5C440.149 1759.38 477.579 1782.09 498.206 1790.87C516.093 1798.48 528.364 1803.92 552.578 1810.1C523.644 1833.33 511.294 1845.49 500.947 1855.63C486.466 1869.82 451.312 1907.9 456.011 1926.13C460.23 1942.5 513.635 1948.65 531.998 1948.65C547.467 1948.65 579.133 1946.28 596.991 1944.52C588.173 1961.36 579.2 1979.17 571.76 1993.27C561.708 2012.33 536.445 2069.41 547.812 2080.88C560.424 2093.62 613.928 2077.08 631.212 2072.07C654.274 2065.37 662.635 2059.73 689.475 2049.12C687.67 2077.92 684.883 2087.62 685.637 2111.62C686.201 2129.61 686.993 2185.6 702.998 2193.67Z" fill="#ff6093" fill-opacity="0.988235" fill-rule="nonzero" opacity="1" stroke="none"/>
<path d="M948.996 1692.04C967.945 1706.08 1018.8 1679.53 1044.18 1665.44C1060.67 1656.28 1096.27 1632.26 1112.43 1622.15C1125.24 1669.21 1132.5 1692.68 1140.55 1712.67C1147.57 1730.12 1164.04 1767.14 1177.55 1786.19C1176.95 1783.31 1176.18 1780.44 1175.66 1777.56C1168.64 1738.54 1169.6 1687.56 1173.4 1619.83C1175.7 1578.85 1182.99 1531.66 1205.27 1472.27C1212.88 1451.99 1226.91 1416.46 1235.79 1400.72C1209.48 1388.67 1205.18 1387.3 1182.45 1370.83C1159.75 1354.28 1157.12 1350.62 1137.54 1329.31C1125.32 1342.62 1095.85 1366.93 1078.91 1380.43C1029.3 1419.96 986.669 1441.47 948.396 1456.3C885.147 1480.82 836.96 1497.48 797.673 1502.84C794.774 1503.24 791.81 1503.39 788.879 1503.71C811.172 1510.68 851.471 1514.91 870.23 1516.21C891.734 1517.7 916.296 1517.35 965.018 1515.01C960.388 1533.5 948.525 1574.78 944.91 1593.29C939.346 1621.78 929.786 1678.35 948.996 1692.04Z" fill="#f7b9ce" fill-opacity="0.996078" fill-rule="nonzero" opacity="1" stroke="none"/>
</g>
<g opacity="1">
<path d="M216.081 1060.28C213.633 1076.25 267.629 1107.57 286.963 1117.07C301.274 1124.1 319 1133.23 336.037 1141.67C320.556 1150.74 293.549 1167.45 281.035 1176.54C266.179 1187.34 226.598 1223.71 232.811 1239.43C239.731 1256.95 290.551 1267.07 310.608 1270.04C324.94 1272.16 342.079 1274.73 379.141 1276.51C363.188 1295.75 356.46 1307.36 346.468 1324.04C334.945 1343.27 318.021 1383.64 324.355 1392.49C335.596 1408.2 413.844 1384.61 432.668 1378.45C453.083 1371.76 458.653 1367.84 488.033 1356.45C474.466 1381.69 469.532 1395.92 463.819 1419.43C457.503 1445.42 455.516 1483.52 466.363 1488.34C478.627 1493.78 499.728 1466.39 544.085 1434.25C588.826 1401.83 611.217 1392.24 632.856 1385.43C624.913 1406.21 621.099 1419.08 618.184 1432.22C614.43 1449.14 609.822 1472.74 619.442 1476.47C631.1 1480.98 663.379 1449.74 673.82 1440.37C692.143 1423.94 724.644 1398.9 758.07 1380.95C793.003 1362.19 841.776 1347.34 907.353 1329.98C947.035 1319.48 994.16 1311.81 1057.53 1314.62C1079.17 1315.58 1117.3 1317.92 1135.02 1321.49C1138.33 1292.75 1138.3 1288.23 1146.93 1261.51C1155.64 1234.82 1158.31 1231.18 1172.51 1205.97C1156.07 1198.46 1123.83 1177.96 1105.75 1166.03C1052.8 1131.1 1019.16 1097.21 993.21 1065.41C950.32 1012.86 919.564 972.193 902.304 936.496C885.788 902.337 874.181 862.988 868.999 838.928C866.046 825.218 858.266 780.97 846.176 777.782C836.2 775.151 826.074 796.957 819.176 812.859C813.82 825.207 809.353 837.86 803.581 859.343C790.063 841.126 777.571 820.215 760.391 767.703C743.358 715.641 742.364 681.078 729.238 678.285C717.63 675.814 696.866 707.822 686.717 732.567C677.538 754.952 673.174 769.37 669.337 797.764C652.241 771.295 650.036 764.849 637.436 747.451C625.818 731.409 576.334 666.365 558.012 672.479C547.689 675.923 537.677 718.544 535.713 740.876C534.01 760.241 532.636 773.592 534.253 798.531C503.209 778.208 487.825 770.227 474.98 763.526C457.003 754.15 409.921 732.505 394.036 742.618C379.775 751.696 390.453 804.383 396.14 821.843C400.931 836.551 412.983 865.931 420.186 882.366C401.439 879.195 381.731 876.173 366.018 873.463C344.788 869.802 282.691 863.447 275.296 877.808C267.092 893.742 299.374 939.501 309.494 954.383C322.997 974.241 330.952 980.445 349.346 1002.68C321.399 1009.88 311.317 1010.23 288.726 1018.38C271.796 1024.48 218.796 1042.57 216.081 1060.28Z" fill="#ff6093" fill-opacity="0.988235" fill-rule="nonzero" opacity="1" stroke="none"/>
<path d="M769.221 1138.94C761.729 1161.31 802.719 1201.44 823.973 1221.22C837.781 1234.06 871.648 1260.48 886.263 1272.71C845.478 1299.47 825.404 1313.63 808.884 1327.47C794.472 1339.55 764.365 1366.67 750.427 1385.41C752.988 1383.95 755.474 1382.33 758.052 1380.95C792.984 1362.19 841.758 1347.33 907.335 1329.98C947.017 1319.47 994.142 1311.8 1057.52 1314.61C1079.15 1315.57 1117.29 1317.91 1135 1321.49C1138.31 1292.74 1138.28 1288.23 1146.91 1261.51C1155.62 1234.81 1158.29 1231.18 1172.49 1205.96C1156.05 1198.45 1123.81 1177.96 1105.73 1166.03C1052.79 1131.09 1019.15 1097.21 993.192 1065.41C950.301 1012.85 919.546 972.187 902.286 936.49C901.012 933.856 899.951 931.084 898.736 928.397C899.015 951.75 907.459 991.382 912.032 1009.62C917.273 1030.53 925.208 1053.78 942.512 1099.38C923.499 1100.7 880.572 1102.2 861.852 1104.49C833.036 1108.02 776.289 1116.44 769.221 1138.94Z" fill="#f7b9ce" fill-opacity="0.996078" fill-rule="nonzero" opacity="1" stroke="none"/>
</g>
<path d="M1098.66 1296.94C1098.66 1218.91 1161.92 1155.65 1239.95 1155.65C1317.99 1155.65 1381.25 1218.91 1381.25 1296.94C1381.25 1374.98 1317.99 1438.24 1239.95 1438.24C1161.92 1438.24 1098.66 1374.98 1098.66 1296.94Z" fill="#f7b9ce" fill-opacity="0.996078" fill-rule="nonzero" opacity="1" stroke="none"/>
</g>
</g>
<g id="薄くした完成">
<g opacity="1">
<g opacity="1">
<path d="M332.344 629.521C324.142 643.437 362.646 692.568 377.069 708.571C387.745 720.416 400.814 735.473 413.498 749.637C395.754 752.312 364.476 757.793 349.48 761.588C331.678 766.093 281.418 785.17 281.349 802.076C281.271 820.906 324.696 849.18 342.217 859.383C354.737 866.672 369.695 875.427 403.447 890.84C381.491 902.778 370.931 911.063 355.461 922.835C337.621 936.41 306.913 967.616 309.507 978.185C314.111 996.943 395.525 1004.1 415.292 1005.36C436.729 1006.74 443.357 1005.16 474.865 1005.5C452.897 1023.9 443.03 1035.28 428.995 1054.99C413.479 1076.77 397.486 1111.41 405.768 1119.91C415.133 1129.52 444.897 1111.92 498.018 1098.55C551.598 1085.07 575.949 1084.48 598.569 1086.19C583.478 1102.54 575.159 1113.07 567.573 1124.18C557.802 1138.5 544.762 1158.7 552.309 1165.73C561.455 1174.26 603.031 1157.23 616.202 1152.42C639.317 1143.96 678.791 1132.79 716.493 1128.53C755.894 1124.09 806.697 1128.4 874.03 1136.64C914.774 1141.63 961.378 1152 1019.18 1178.15C1038.91 1187.07 1073.45 1203.41 1088.57 1213.31C1102.32 1187.84 1103.97 1183.64 1121.9 1162.04C1139.9 1140.48 1143.73 1138.1 1166.28 1119.96C1153.8 1106.89 1131.48 1075.89 1119.12 1058.1C1082.94 1005.99 1064.28 962.041 1052 922.876C1031.69 858.153 1018.23 808.974 1015.46 769.419C1012.81 731.57 1016.65 690.725 1020.77 666.461C1023.12 652.634 1032.33 608.661 1022.29 601.212C1014 595.065 996.505 611.55 984.194 623.754C974.636 633.23 965.79 643.319 952.452 661.123C946.666 639.189 942.832 615.133 946.381 559.997C949.9 505.333 961.812 472.872 950.662 465.404C940.801 458.8 909.636 480.807 891.024 500.015C874.188 517.39 864.782 529.156 850.675 554.094C844.632 523.17 844.978 516.366 839.74 495.533C834.91 476.324 813.119 397.555 793.836 396.427C782.973 395.792 757.849 431.648 747.733 451.653C738.96 469.001 732.727 480.887 724.966 504.643C703.69 474.245 692.369 461.122 682.931 450.13C669.722 434.748 634.045 397.168 615.54 400.658C598.927 403.791 589.276 456.676 588.073 474.999C587.059 490.435 587.339 522.188 587.924 540.123C571.695 530.217 554.519 520.093 540.935 511.742C522.583 500.459 467.286 471.498 455.088 482.086C441.553 493.834 454.534 548.309 458.403 565.885C463.566 589.337 468.648 598.052 477.469 625.53C448.847 621.836 439.355 618.418 415.356 617.592C397.369 616.973 341.444 614.081 332.344 629.521Z" fill="#ff7ea8" fill-opacity="0.988235" fill-rule="nonzero" opacity="1" stroke="none"/>
<path d="M363.553 1862.68C374.247 1874.79 432.883 1853.38 452.564 1844.62C467.131 1838.13 485.494 1830.36 502.888 1822.69C499.941 1840.39 495.471 1871.83 494.439 1887.26C493.213 1905.58 495.797 1959.28 511.851 1964.58C529.732 1970.48 570.059 1937.94 585.183 1924.44C595.99 1914.79 608.944 1903.27 634.047 1875.95C638.603 1900.52 643.213 1913.13 649.619 1931.48C657.006 1952.65 677.175 1991.51 688.028 1992.31C707.29 1993.74 739.29 1918.54 746.613 1900.13C754.556 1880.17 755.111 1873.38 765.185 1843.53C775.875 1870.11 783.646 1883.02 798.041 1902.46C813.954 1923.96 841.941 1949.89 852.587 1944.64C864.625 1938.71 857.103 1904.96 860.832 1850.31C864.593 1795.19 871.569 1771.85 880.201 1750.87C891.071 1770.28 898.508 1781.45 906.732 1792.1C917.323 1805.83 932.492 1824.48 941.517 1819.48C952.454 1813.42 949.132 1768.62 948.628 1754.6C947.745 1730.01 949.335 1689.01 956.959 1651.84C964.926 1613 984.756 1566.03 1013.43 1504.55C1030.78 1467.35 1055.07 1426.25 1097.82 1379.38C1112.42 1363.38 1138.64 1335.59 1152.73 1324.28C1132.78 1303.32 1129.29 1300.45 1114.3 1276.71C1099.37 1252.93 1098.29 1248.55 1088.03 1221.49C1071.73 1229.31 1035.34 1240.94 1014.6 1247.18C953.856 1265.47 906.289 1269.6 865.244 1269.16C797.413 1268.44 746.485 1266.01 708.015 1256.4C671.205 1247.21 633.552 1230.92 611.755 1219.49C599.335 1212.97 560.371 1190.61 550.18 1197.85C541.77 1203.83 552.03 1225.57 559.824 1241.05C565.877 1253.07 572.732 1264.61 585.534 1282.8C562.886 1281.52 538.825 1277.72 487.495 1257.28C436.604 1237.01 409.423 1215.64 398.872 1223.93C389.539 1231.26 400.82 1267.71 413.324 1291.35C424.635 1312.74 432.912 1325.32 452.26 1346.45C420.983 1342.63 414.62 1340.19 393.189 1338.73C373.428 1337.38 291.783 1333.72 284.742 1351.7C280.775 1361.84 307.095 1396.82 322.987 1412.64C336.767 1426.35 346.141 1435.95 366.328 1450.69C330.837 1461.51 314.855 1468.21 301.482 1473.78C282.767 1481.58 235.989 1503.88 233.58 1522.55C231.418 1539.32 278.719 1564.87 295.77 1571.68C310.133 1577.42 340.415 1586.99 357.65 1591.98C343.207 1604.35 328.264 1617.55 316.118 1627.88C299.709 1641.84 255.055 1685.45 261.348 1700.33C268.33 1716.84 324.148 1721.35 342.058 1723.11C365.957 1725.46 375.817 1723.33 404.676 1723.45C392.305 1749.52 386.116 1757.49 377.903 1780.05C371.747 1796.96 351.688 1849.25 363.553 1862.68Z" fill="#ff7ea8" fill-opacity="0.988235" fill-rule="nonzero" opacity="1" stroke="none"/>
<path d="M1545.23 2214.89C1560.06 2208.47 1557.89 2146.09 1555.66 2124.66C1554.01 2108.8 1552.32 2088.94 1550.41 2070.02C1566.33 2078.31 1594.83 2092.31 1609.18 2098.07C1626.22 2104.92 1678.07 2119.11 1688.09 2105.49C1699.25 2090.32 1680.81 2041.9 1672.66 2023.33C1666.84 2010.06 1659.91 1994.18 1641.72 1961.84C1666.49 1965.13 1679.91 1964.65 1699.34 1964.25C1721.76 1963.79 1764.95 1956.67 1769.08 1946.6C1776.41 1928.73 1714.84 1874.99 1699.61 1862.32C1683.1 1848.58 1676.82 1845.95 1651.56 1827.11C1680.15 1825.19 1694.82 1821.8 1717.77 1814.15C1743.15 1805.69 1776.48 1787.12 1774.79 1775.37C1772.88 1762.09 1738.47 1758.77 1687.67 1738.28C1636.43 1717.61 1616.4 1703.75 1599.13 1689.03C1620.96 1684.72 1633.88 1681.11 1646.56 1676.6C1662.89 1670.78 1685.33 1662.14 1683.37 1652.01C1681 1639.74 1637.38 1629 1623.9 1625.14C1600.24 1618.35 1561.76 1604.13 1528.79 1585.35C1494.33 1565.73 1455.82 1532.32 1406.27 1485.99C1376.28 1457.96 1344.73 1422.12 1313.43 1366.95C1302.74 1348.11 1284.46 1314.57 1278.07 1297.66C1251.96 1310.13 1248.15 1312.56 1220.93 1319.45C1193.69 1326.26 1189.19 1325.93 1160.29 1327.31C1162.67 1345.22 1162.44 1383.42 1161.94 1405.08C1160.49 1468.5 1149.67 1515 1136.53 1553.89C1114.81 1618.15 1096.71 1665.82 1075.65 1699.41C1055.49 1731.56 1028.33 1762.3 1010.7 1779.48C1000.66 1789.27 967.313 1819.38 971.038 1831.31C974.113 1841.16 997.964 1838.15 1015.1 1835.54C1028.41 1833.51 1041.5 1830.57 1062.77 1824.04C1054.52 1845.17 1043.45 1866.87 1008.1 1909.33C973.05 1951.43 944.302 1970.64 948.912 1983.25C952.989 1994.39 991.138 1994.97 1017.49 1990.41C1041.33 1986.29 1055.87 1982.32 1081.96 1970.48C1068.62 1999.03 1064.33 2004.33 1056.29 2024.25C1048.88 2042.61 1020.08 2119.1 1035 2131.37C1043.41 2138.28 1084.83 2124.11 1104.79 2113.91C1122.1 2105.06 1134.14 2099.12 1154.4 2084.5C1153.69 2121.6 1155.1 2138.87 1156.26 2153.31C1157.87 2173.52 1164.56 2224.91 1181.57 2232.99C1196.84 2240.24 1235.79 2203.19 1247.56 2189.1C1257.47 2177.22 1275.95 2151.4 1286.04 2136.56C1293.32 2154.13 1301.24 2172.43 1307.29 2187.18C1315.47 2207.11 1343.1 2263.08 1359.19 2261.71C1377.05 2260.19 1398.65 2208.53 1405.88 2192.05C1415.52 2170.05 1416.55 2160.02 1425.61 2132.62C1446.56 2152.46 1452.22 2160.82 1471.12 2175.62C1485.29 2186.72 1528.78 2222 1545.23 2214.89Z" fill="#ff7ea8" fill-opacity="0.988235" fill-rule="nonzero" opacity="1" stroke="none"/>
<path d="M2246.45 1198.98C2244.92 1182.9 2184.91 1165.72 2163.84 1161.22C2148.25 1157.9 2128.83 1153.38 2110.25 1149.35C2123.04 1136.77 2145.15 1113.98 2155.07 1102.1C2166.84 1088.01 2196.34 1043.07 2186.47 1029.34C2175.48 1014.05 2123.73 1016.64 2103.56 1018.66C2089.14 1020.1 2071.89 1021.79 2035.52 1029.12C2046.29 1006.57 2049.98 993.665 2055.6 975.055C2062.07 953.593 2068.62 910.304 2060.32 903.269C2045.58 890.783 1975.47 932.77 1958.72 943.344C1940.55 954.811 1936.11 959.976 1910.4 978.192C1917.39 950.407 1918.7 935.4 1918.5 911.207C1918.28 884.462 1910.9 847.03 1899.21 845.008C1885.98 842.722 1872.21 874.438 1837.05 916.438C1801.58 958.8 1782.21 973.569 1762.88 985.455C1765.51 963.365 1766.07 949.958 1765.69 936.504C1765.2 919.177 1763.9 895.171 1753.66 893.904C1741.25 892.369 1717.58 930.555 1709.74 942.184C1695.99 962.593 1670.59 994.808 1642.56 1020.38C1613.26 1047.1 1569.59 1073.42 1510.24 1106.26C1474.32 1126.14 1430.5 1145.09 1368.36 1157.84C1347.14 1162.19 1309.59 1169.24 1291.54 1170.09C1295.35 1198.78 1296.48 1203.15 1294.64 1231.17C1292.72 1259.18 1291.01 1263.36 1283.4 1291.28C1301.17 1294.54 1337.44 1306.54 1357.89 1313.7C1417.76 1334.65 1458.66 1359.29 1491.59 1383.79C1546.02 1424.28 1585.78 1456.2 1611.23 1486.6C1635.59 1515.69 1656.45 1551.02 1667.36 1573.08C1673.57 1585.66 1691.92 1626.66 1704.42 1626.8C1714.74 1626.92 1719.23 1603.3 1722.04 1586.19C1724.21 1572.91 1725.46 1559.55 1725.81 1537.31C1743.36 1551.67 1760.58 1568.9 1790.07 1615.63C1819.3 1661.95 1828.7 1695.23 1842.11 1694.73C1853.98 1694.29 1866.29 1658.18 1870.09 1631.71C1873.53 1607.76 1874.24 1592.71 1871.02 1564.24C1894.07 1585.73 1897.78 1591.45 1914.25 1605.24C1929.43 1617.96 1993.3 1668.95 2009.57 1658.55C2018.74 1652.68 2018.04 1608.91 2014.49 1586.77C2011.42 1567.58 2009.49 1554.3 2001.83 1530.51C2036.9 1542.63 2053.77 1546.62 2067.86 1549.98C2087.58 1554.68 2138.52 1564.17 2151.46 1550.49C2163.07 1538.2 2139.85 1489.72 2130.07 1474.17C2121.83 1461.08 2102.97 1435.53 2091.97 1421.35C2110.92 1419.85 2130.77 1417.97 2146.67 1416.76C2168.15 1415.12 2229.92 1406.12 2233.59 1390.39C2237.65 1372.94 2195.17 1336.45 2181.72 1324.49C2163.78 1308.53 2154.55 1304.45 2131.28 1287.38C2156.63 1273.57 2166.32 1270.77 2186.23 1257.36C2201.16 1247.3 2248.14 1216.82 2246.45 1198.98Z" fill="#ff7ea8" fill-opacity="0.988235" fill-rule="nonzero" opacity="1" stroke="none"/>
<path d="M1496.18 218.432C1480.41 214.926 1445.56 266.715 1434.8 285.374C1426.82 299.184 1416.54 316.263 1406.98 332.699C1398.96 316.648 1384.09 288.589 1375.85 275.496C1366.07 259.954 1332.41 218.037 1316.31 223.189C1298.38 228.928 1284.89 278.959 1280.59 298.775C1277.52 312.933 1273.81 329.863 1269.57 366.724C1251.44 349.525 1240.3 342.038 1224.32 330.958C1205.9 318.179 1166.74 298.603 1157.49 304.332C1141.07 314.502 1159.4 394.148 1164.29 413.341C1169.6 434.156 1173.15 439.975 1182.55 470.048C1158.27 454.83 1144.4 448.959 1121.32 441.692C1095.81 433.658 1057.93 429.137 1052.4 439.639C1046.15 451.514 1072.08 474.392 1101.19 520.792C1130.55 567.594 1138.63 590.574 1143.98 612.618C1123.78 603.309 1111.2 598.646 1098.28 594.862C1081.64 589.989 1058.41 583.819 1054.05 593.169C1048.76 604.5 1077.79 638.79 1086.44 649.831C1101.61 669.208 1124.43 703.305 1140.11 737.853C1156.5 773.958 1168.08 823.612 1181.02 890.2C1188.86 930.494 1193.37 978.025 1186.35 1041.07C1183.95 1062.6 1179.07 1100.49 1174.33 1117.93C1202.79 1123.14 1207.29 1123.42 1233.38 1133.81C1259.44 1144.27 1262.88 1147.18 1287.1 1163.03C1295.68 1147.13 1318.28 1116.32 1331.39 1099.08C1369.78 1048.58 1405.82 1017.27 1439.28 993.493C1494.58 954.199 1537.2 926.221 1573.97 911.378C1609.15 897.174 1649.19 888.215 1673.54 884.647C1687.42 882.614 1732.09 877.799 1736.07 865.949C1739.36 856.17 1718.28 844.614 1702.87 836.672C1690.91 830.505 1678.58 825.205 1657.53 818.014C1676.61 805.74 1698.3 794.669 1751.84 781.025C1804.92 767.499 1839.48 768.81 1843.14 755.899C1846.38 744.481 1815.82 721.631 1791.81 709.857C1770.09 699.206 1755.99 693.891 1727.92 688.171C1755.47 672.877 1762.04 671.106 1780.24 659.693C1797.02 649.17 1865.22 604.129 1860.34 585.44C1857.59 574.911 1815.73 562.082 1793.58 558.634C1774.37 555.645 1761.14 553.385 1736.15 553.336C1758.5 523.716 1767.49 508.897 1775.03 496.527C1785.58 479.215 1810.31 433.68 1801.28 417.156C1793.17 402.322 1739.89 409.466 1722.09 413.977C1707.1 417.777 1676.98 427.845 1660.1 433.937C1664.51 415.443 1668.84 395.981 1672.59 380.482C1677.66 359.544 1688.14 298.008 1674.3 289.673C1658.95 280.426 1611.14 309.588 1595.62 318.693C1574.91 330.843 1568.19 338.367 1544.77 355.239C1539.45 326.874 1539.77 316.791 1533.15 293.708C1528.19 276.409 1513.67 222.322 1496.18 218.432Z" fill="#ff7ea8" fill-opacity="0.988235" fill-rule="nonzero" opacity="1" stroke="none"/>
</g>
<g opacity="1">
<path d="M1063.92 1177.01C1092.9 1104.56 1175.13 1069.31 1247.58 1098.29C1320.04 1127.27 1355.28 1209.5 1326.3 1281.95C1297.32 1354.4 1215.1 1389.65 1142.64 1360.67C1070.19 1331.69 1034.95 1249.46 1063.92 1177.01Z" fill="#fcdae6" fill-opacity="0.996078" fill-rule="nonzero" opacity="1" stroke="none"/>
<path d="M816.72 907.966C801.457 925.95 824.613 978.437 837.003 1004.69C845.052 1021.75 866.687 1058.85 875.714 1075.64C827.91 1085.33 804.014 1091.03 783.533 1097.75C765.666 1103.61 727.641 1117.61 707.741 1129.84C710.661 1129.43 713.571 1128.85 716.479 1128.52C755.88 1124.07 806.683 1128.39 874.015 1136.63C914.759 1141.62 961.364 1151.99 1019.16 1178.14C1038.9 1187.06 1073.43 1203.4 1088.55 1213.29C1102.3 1187.83 1103.95 1183.63 1121.89 1162.03C1139.88 1140.47 1143.72 1138.09 1166.26 1119.95C1153.79 1106.88 1131.47 1075.87 1119.11 1058.08C1082.92 1005.98 1064.27 962.029 1051.98 922.864C1031.67 858.14 1018.22 808.962 1015.45 769.407C1015.25 766.488 1015.29 763.521 1015.16 760.575C1006.75 782.362 999.869 822.295 997.341 840.929C994.443 862.288 993.178 886.82 992.308 935.59C974.165 929.755 933.752 915.204 915.519 910.38C887.454 902.954 831.639 889.697 816.72 907.966Z" fill="#fcdae6" fill-opacity="0.996078" fill-rule="nonzero" opacity="1" stroke="none"/>
<path d="M778.245 1488.27C790.622 1508.35 847.699 1502.58 876.498 1498.92C895.208 1496.55 937.188 1487.46 955.944 1484.07C950.367 1532.53 948.383 1557.01 948.435 1578.57C948.481 1597.37 950.025 1637.86 955.489 1660.57C956.007 1657.67 956.355 1654.72 956.943 1651.85C964.91 1613.01 984.74 1566.04 1013.41 1504.56C1030.77 1467.36 1055.06 1426.26 1097.81 1379.39C1112.4 1363.39 1138.62 1335.6 1152.72 1324.29C1132.76 1303.33 1129.28 1300.46 1114.28 1276.72C1099.36 1252.94 1098.28 1248.56 1088.01 1221.5C1071.71 1229.32 1035.32 1240.95 1014.58 1247.19C953.839 1265.48 906.273 1269.61 865.228 1269.17C797.397 1268.45 746.468 1266.02 707.999 1256.41C705.16 1255.7 702.352 1254.74 699.511 1253.96C717.624 1268.7 753.468 1287.6 770.404 1295.77C789.818 1305.14 812.753 1313.93 858.859 1329.85C847.695 1345.3 821.351 1379.23 811.12 1395.07C795.373 1419.46 765.491 1468.43 778.245 1488.27Z" fill="#fcdae6" fill-opacity="0.996078" fill-rule="nonzero" opacity="1" stroke="none"/>
<path d="M1317.86 1704.54C1340.79 1699 1353 1642.94 1358.45 1614.43C1362 1595.91 1366.37 1553.18 1368.97 1534.3C1413.31 1554.62 1435.97 1564.1 1456.48 1570.74C1474.37 1576.52 1513.34 1587.61 1536.63 1589.46C1534.03 1588.06 1531.33 1586.82 1528.79 1585.37C1494.33 1565.75 1455.83 1532.34 1406.27 1486.01C1376.28 1457.98 1344.74 1422.14 1313.43 1366.97C1302.75 1348.13 1284.46 1314.58 1278.07 1297.68C1251.96 1310.15 1248.16 1312.57 1220.94 1319.47C1193.7 1326.28 1189.2 1325.95 1160.29 1327.32C1162.67 1345.24 1162.44 1383.44 1161.95 1405.1C1160.5 1468.52 1149.68 1515.02 1136.53 1553.91C1114.81 1618.17 1096.71 1665.84 1075.65 1699.43C1074.1 1701.91 1072.31 1704.28 1070.68 1706.74C1090.32 1694.09 1119.4 1665.87 1132.42 1652.3C1147.34 1636.75 1162.82 1617.67 1192.25 1578.78C1203.47 1594.18 1227.56 1629.75 1239.45 1644.38C1257.75 1666.92 1295.04 1710.51 1317.86 1704.54Z" fill="#fcdae6" fill-opacity="0.996078" fill-rule="nonzero" opacity="1" stroke="none"/>
<path d="M1690.85 1257.79C1692.65 1234.27 1643.1 1205.36 1617.66 1191.37C1601.13 1182.29 1561.84 1164.94 1544.68 1156.65C1577.69 1120.74 1593.7 1102.11 1606.34 1084.65C1617.37 1069.42 1639.94 1035.76 1648.88 1014.19C1646.75 1016.23 1644.74 1018.41 1642.58 1020.38C1613.28 1047.1 1569.61 1073.42 1510.26 1106.27C1474.34 1126.14 1430.52 1145.09 1368.38 1157.84C1347.16 1162.19 1309.61 1169.24 1291.56 1170.1C1295.37 1198.78 1296.5 1203.15 1294.66 1231.17C1292.73 1259.18 1291.03 1263.36 1283.42 1291.28C1301.19 1294.54 1337.46 1306.55 1357.91 1313.7C1417.78 1334.65 1458.68 1359.29 1491.61 1383.79C1546.04 1424.28 1585.8 1456.2 1611.25 1486.6C1613.13 1488.85 1614.83 1491.28 1616.67 1493.58C1610.7 1471.01 1592.83 1434.64 1583.94 1418.07C1573.75 1399.07 1560.38 1378.46 1532.46 1338.47C1550.58 1332.54 1591.84 1320.61 1609.43 1313.81C1636.51 1303.36 1689.49 1281.34 1690.85 1257.79Z" fill="#fcdae6" fill-opacity="0.996078" fill-rule="nonzero" opacity="1" stroke="none"/>
<path d="M1380.84 765.103C1359.03 756.137 1316.25 794.363 1295.1 814.251C1281.36 827.172 1252.75 859.204 1239.57 872.972C1215.59 830.495 1202.8 809.522 1190.09 792.117C1178.99 776.932 1153.94 745.085 1136.17 729.93C1137.46 732.582 1138.91 735.171 1140.12 737.835C1156.51 773.94 1168.08 823.595 1181.03 890.182C1188.87 930.476 1193.38 978.008 1186.35 1041.05C1183.96 1062.58 1179.08 1100.47 1174.33 1117.91C1202.79 1123.13 1207.3 1123.4 1233.39 1133.79C1259.44 1144.25 1262.89 1147.16 1287.1 1163.01C1295.69 1147.11 1318.29 1116.31 1331.4 1099.06C1369.78 1048.56 1405.83 1017.25 1439.29 993.475C1494.59 954.181 1537.21 926.203 1573.98 911.36C1576.69 910.264 1579.53 909.391 1582.29 908.358C1558.97 907.08 1518.86 912.865 1500.36 916.212C1479.15 920.049 1455.42 926.417 1408.77 940.644C1408.72 921.585 1410.08 878.655 1409.04 859.823C1407.44 830.836 1402.83 773.655 1380.84 765.103Z" fill="#fcdae6" fill-opacity="0.996078" fill-rule="nonzero" opacity="1" stroke="none"/>
</g>
</g>
</g>
</svg>
