<?xml version="1.0" encoding="UTF-8" standalone="no"?>
<!DOCTYPE svg PUBLIC "-//W3C//DTD SVG 1.1//EN" "http://www.w3.org/Graphics/SVG/1.1/DTD/svg11.dtd">
<!-- Created with Vectornator (http://vectornator.io/) -->
<svg height="2480.0px" stroke-miterlimit="10" style="fill-rule:nonzero;clip-rule:evenodd;stroke-linecap:round;stroke-linejoin:round;" version="1.1" viewBox="0 0 2480 2480" width="2480.0px" xml:space="preserve" xmlns="http://www.w3.org/2000/svg" xmlns:xlink="http://www.w3.org/1999/xlink">
<defs/>
<g id="トレース" visibility="hidden">
<path d="M1240 586.814C1259.53 556.068 1267.78 545.274 1288.42 514.254C1301.84 494.081 1338.91 441.683 1361.28 446.644C1375.32 449.758 1387.32 502.183 1393.72 528.61C1401.91 562.406 1408.57 601.255 1412.07 624.996C1428.99 609.946 1459.07 588.767 1464.8 584.988C1477.06 576.894 1540.68 539.766 1559.92 554.572C1570.32 562.573 1563.57 609.203 1560.39 636.912C1555.7 677.775 1549 700.787 1544.11 724.292C1570.91 712.744 1617.98 702.834 1646.95 699.597C1683.77 695.483 1716.81 694.601 1724.68 708.415C1736.75 729.598 1701.61 776.678 1687.22 797.123C1668.3 824.021 1627.55 872.194 1602.43 903.029C1638.01 896.574 1680.69 891.775 1711.12 894.36C1744.05 897.158 1775.63 900.01 1777.48 916.524C1780.36 942.296 1730.13 961.05 1674.27 1001.78C1617.92 1042.86 1594.47 1062.16 1582.12 1075.53C1613.68 1074.09 1626.14 1071.71 1653.59 1075.66C1674.33 1078.64 1701.52 1085.63 1703.57 1095.67C1706.74 1111.13 1654.26 1132.8 1639.61 1142.73C1630.95 1148.58 1570.49 1194.24 1546.42 1216.14C1516.31 1243.53 1453.69 1307.6 1415.52 1384.24C1397.63 1420.18 1377.18 1455.49 1362.44 1492.92C1352.12 1519.15 1346.23 1548.64 1339.09 1575.83C1335.08 1591.08 1330.6 1606.19 1326.55 1621.42C1324.28 1629.94 1325.72 1642.39 1317.33 1647.41C1301.78 1656.71 1281.53 1644.12 1264.94 1644.36C1253.68 1644.53 1242.39 1644.58 1231.18 1645.7C1214.62 1647.35 1178.07 1669.53 1167.04 1656.44C1158.92 1646.8 1154.79 1625.76 1149.7 1606.91C1147.06 1597.11 1142.07 1588.11 1138.34 1578.67C1118.27 1527.88 1098.22 1476.99 1069.84 1430.37C1043.51 1387.1 1040.42 1382.68 1016.01 1337.68C997.552 1303.66 967.961 1262.31 947.894 1237.31C928.739 1213.45 887.069 1176.9 855.472 1163.99C824.584 1151.38 751.174 1130.35 750.708 1107.82C750.319 1088.98 808.048 1078.63 841.299 1076.9C863.334 1075.75 876.011 1074.62 899.186 1076.35C890.462 1061.55 868.949 1042.31 853.737 1029.11C832.412 1010.61 791.412 979.293 768.933 962.933C750.8 949.737 700.84 941.689 713.074 913.192C721.727 893.037 782.488 894.104 807.797 895.955C841.717 898.436 852.144 898.717 890.355 907.481C861.417 869.878 834.719 844.549 818.255 820.955C795.261 788.003 756.604 727.99 775.814 702.585C785.853 689.307 833.706 693.841 871.885 702.444C891.113 706.777 913.203 711.908 939.558 718.967C931.572 692.178 927.694 639.882 926.142 615.669C924.409 588.628 925.487 523.147 944.347 515.822C967.02 507.017 1016.93 556.61 1032.32 571.603C1049.16 588.007 1066.26 607.209 1085.31 628.728C1086.65 619.608 1090.67 566.542 1091.97 542.893C1093.55 514.333 1099.1 446.741 1121.61 446.153C1139.59 445.683 1170.7 489.727 1189.54 514.582C1209.38 540.769 1220.75 555.621 1240 586.814Z" fill="#090909" fill-opacity="0.988235" fill-rule="nonzero" opacity="1" stroke="none"/>
<path d="M1398.81 1315.62C1400.97 1316.63 1428.13 1309.52 1430.2 1315C1434.5 1326.36 1409.36 1367.82 1394.36 1394.05C1369.7 1437.19 1343.65 1477.62 1330.96 1525.94C1322.54 1557.98 1317.74 1588.29 1310.13 1621.05C1309.58 1623.45 1307.85 1625.45 1306.29 1627.35C1298.75 1636.53 1280.67 1628 1267.32 1626.84C1253.97 1625.69 1221.47 1630.07 1211.17 1632.15C1199.77 1634.44 1185.01 1646.09 1176.34 1632.5C1172.79 1626.94 1166.89 1607.76 1165.24 1603.12C1154.91 1574.25 1147.67 1553.09 1136.19 1524.44C1122.49 1490.26 1069.85 1391.99 1063.96 1382.8C1049.34 1359.98 1036.2 1335.83 1020.23 1313.83C1015.86 1307.79 1006.09 1294.68 1013.24 1292.58C1026.46 1288.72 1064.22 1329.16 1072.38 1313.47C1077.45 1303.73 1075.42 1236.97 1091.24 1230.56C1102.31 1226.06 1113.34 1236.47 1133.75 1257.27C1150.86 1274.7 1161.47 1289.26 1172.49 1288.67C1183.03 1288.1 1201.84 1252.36 1211.49 1233.63C1222.33 1212.57 1232.77 1187.51 1247.91 1189C1262.08 1190.38 1272.04 1224.64 1280.36 1238.95C1284.45 1245.99 1304.49 1290.11 1311.35 1291.57C1322.93 1294.04 1341.48 1274.84 1350.09 1267.41C1366.46 1253.29 1381.81 1244.11 1391.77 1249.56C1400.77 1254.48 1395.42 1275.49 1394.93 1286.02C1394.27 1300.07 1393.23 1313.01 1398.81 1315.62Z" fill="#f7b9ce" fill-opacity="0.996078" fill-rule="nonzero" opacity="1" stroke="none"/>
<path d="M1229.33 1658.5C1284.35 1654.46 1340.19 1685.65 1358.63 1740.48C1383.13 1813.35 1336.31 1899.87 1256.62 1907.47C1127.46 1919.79 1062.27 1760.45 1166.7 1681.48C1184.96 1667.67 1207.04 1660.14 1229.33 1658.5Z" fill="#090909" fill-opacity="0.972549" fill-rule="nonzero" opacity="1" stroke="none"/>
<path d="M1389.85 1349.91C1412.45 1336.8 1465.93 1313.88 1468 1319.36C1472.29 1330.72 1428.11 1372.2 1413.12 1398.43C1388.45 1441.57 1362.1 1482.78 1349.41 1531.1C1343.23 1554.61 1322.68 1633.15 1320.43 1652.61C1300.24 1649.14 1266.46 1640.54 1241.01 1641.02C1228.64 1641.25 1217.98 1630.36 1212.18 1631.52C1200.78 1633.81 1186.02 1645.47 1177.35 1631.88C1173.8 1626.32 1167.9 1607.14 1166.25 1602.5C1155.92 1573.63 1148.68 1552.47 1137.2 1523.82C1123.5 1489.64 1070.86 1391.37 1064.97 1382.18C1050.35 1359.36 1037.21 1335.21 1021.24 1313.2C1016.87 1307.17 1007.1 1294.05 1014.25 1291.96C1027.47 1288.09 1065.23 1328.54 1073.39 1312.84C1078.46 1303.1 1076.43 1236.35 1092.25 1229.93C1103.32 1225.44 1114.35 1235.85 1134.76 1256.64C1151.87 1274.08 1164.52 1309.03 1175.54 1308.44C1186.08 1307.87 1193.67 1255.82 1203.32 1237.08C1214.16 1216.03 1218.43 1142.43 1240 1143.26C1265.41 1144.23 1288.43 1206.43 1296.37 1233.33C1298.67 1241.14 1314.33 1282.71 1317.74 1299.16C1337.63 1285.16 1344.1 1276.56 1357.34 1267.65C1375.7 1255.28 1399.09 1248.47 1406.4 1252.63C1413.31 1256.56 1405.84 1290.82 1401.55 1306.59C1398.55 1317.64 1394.17 1332.13 1389.85 1349.91Z" fill="#f7b9ce" fill-opacity="0.996078" fill-rule="nonzero" opacity="0" stroke="none"/>
</g>
<g id="ベクター整形" visibility="hidden">
<path d="M1320.56 775.188C1304.61 777.455 1278.33 812.54 1269.31 824.156C1256.48 840.69 1253.48 848.928 1240 870.156L1240 1667.33C1264.47 1667.37 1271.93 1666.58 1296.65 1671.57C1298.45 1655.92 1305.24 1580.36 1319.24 1535.53C1327.71 1508.38 1349.94 1452.27 1362.26 1427.43C1385.5 1380.59 1433.06 1315.19 1461.98 1285.38C1477.62 1269.27 1511.54 1240 1542.88 1220.58C1552.76 1214.45 1575.75 1204.64 1569.99 1194.18C1566.35 1187.57 1547.84 1186.6 1527.5 1188.45C1516.86 1189.41 1497.83 1191.21 1478.34 1199.54C1503.1 1177.39 1521.52 1160.94 1545.31 1145.68C1585.49 1119.91 1612.31 1109.44 1611.09 1097.81C1610.02 1087.53 1577.87 1078.91 1554.62 1077.16C1533.6 1075.57 1520.47 1075.82 1495.91 1080.28C1513.25 1058.99 1518 1055.44 1529.03 1040.31C1539.2 1026.37 1579.81 967.824 1569.81 954.281C1564.18 946.651 1526.16 949.84 1507.12 954.219C1490.62 958.016 1479.17 960.452 1458.94 968.5C1467.43 937.302 1469.9 922.418 1472 909.969C1474.94 892.546 1480.22 847.697 1467.56 837.25C1456.2 827.871 1415.44 850.871 1402.5 860.281C1391.6 868.208 1370.47 886.14 1358.78 896.531C1356.37 880.14 1353.57 862.941 1351.59 849.188C1348.92 830.606 1337.49 777.453 1323.59 775.188C1322.63 775.03 1321.63 775.036 1320.56 775.188Z" fill="#090909" fill-opacity="0.988235" fill-rule="nonzero" opacity="1" stroke="none"/>
<path d="M1240 1240L1240 1667.34C1264.47 1667.38 1271.94 1666.57 1296.66 1671.56C1298.46 1655.92 1305.25 1580.36 1319.25 1535.53C1327.73 1508.38 1349.93 1452.28 1362.25 1427.44C1372.14 1407.51 1386.52 1384.26 1401.91 1361.78C1404.45 1330.67 1405.29 1284.47 1389 1279.25C1373.68 1274.34 1350.06 1292.81 1339.75 1302.91C1330.06 1312.4 1321.22 1321.21 1306.94 1340.06C1300.82 1324.08 1291.71 1302.52 1284.41 1288.88C1273.59 1268.68 1260.25 1239.8 1240 1240Z" fill="#fcdae6" fill-opacity="0.996078" fill-rule="nonzero" opacity="1" stroke="none"/>
<path d="M1156.41 775.188C1142.51 777.453 1131.08 830.606 1128.41 849.188C1126.43 862.941 1123.63 880.14 1121.22 896.531C1109.53 886.14 1088.4 868.208 1077.5 860.281C1064.56 850.871 1023.8 827.871 1012.44 837.25C999.783 847.697 1005.06 892.546 1008 909.969C1010.1 922.418 1012.57 937.302 1021.06 968.5C1000.83 960.452 989.384 958.016 972.875 954.219C953.836 949.839 915.819 946.651 910.188 954.281C900.192 967.824 940.797 1026.37 950.969 1040.31C962.001 1055.44 966.753 1058.99 984.094 1080.28C959.527 1075.82 946.398 1075.57 925.375 1077.16C902.135 1078.91 869.981 1087.53 868.906 1097.81C867.691 1109.44 894.507 1119.92 934.688 1145.69C958.482 1160.95 976.898 1177.38 1001.66 1199.53C982.161 1191.2 963.138 1189.4 952.5 1188.44C932.159 1186.59 913.639 1187.58 910 1194.19C904.236 1204.65 927.238 1214.43 937.125 1220.56C968.461 1239.99 1002.4 1269.26 1018.03 1285.38C1046.95 1315.19 1094.51 1380.6 1117.75 1427.44C1130.07 1452.28 1152.27 1508.38 1160.75 1535.53C1174.75 1580.36 1181.54 1655.92 1183.34 1671.56C1208.06 1666.57 1215.53 1667.38 1240 1667.34C1264.47 1667.38 1271.94 1666.57 1296.66 1671.56C1298.46 1655.92 1305.25 1580.36 1319.25 1535.53C1327.73 1508.38 1349.93 1452.28 1362.25 1427.44C1385.49 1380.6 1433.05 1315.19 1461.97 1285.38C1477.6 1269.26 1511.54 1239.99 1542.88 1220.56C1552.76 1214.43 1575.76 1204.65 1570 1194.19C1566.36 1187.58 1547.84 1186.59 1527.5 1188.44C1516.86 1189.4 1497.84 1191.2 1478.34 1199.53C1503.1 1177.38 1521.52 1160.95 1545.31 1145.69C1585.49 1119.92 1612.31 1109.44 1611.09 1097.81C1610.02 1087.53 1577.87 1078.91 1554.62 1077.16C1533.6 1075.57 1520.47 1075.82 1495.91 1080.28C1513.25 1058.99 1518 1055.44 1529.03 1040.31C1539.2 1026.37 1579.81 967.824 1569.81 954.281C1564.18 946.651 1526.16 949.839 1507.12 954.219C1490.62 958.016 1479.17 960.452 1458.94 968.5C1467.43 937.302 1469.9 922.418 1472 909.969C1474.94 892.546 1480.22 847.697 1467.56 837.25C1456.2 827.871 1415.44 850.871 1402.5 860.281C1391.6 868.208 1370.47 886.14 1358.78 896.531C1356.37 880.14 1353.57 862.941 1351.59 849.188C1348.92 830.606 1337.49 777.453 1323.59 775.188C1322.63 775.03 1321.63 775.036 1320.56 775.188C1304.61 777.455 1278.33 812.54 1269.31 824.156C1256.48 840.69 1253.48 848.928 1240 870.156C1226.52 848.928 1223.52 840.69 1210.69 824.156C1201.67 812.54 1175.39 777.455 1159.44 775.187C1158.37 775.036 1157.37 775.03 1156.41 775.188Z" fill="#090909" fill-opacity="0.988235" fill-rule="nonzero" opacity="1" stroke="none"/>
<path d="M1240 1240C1219.75 1239.8 1206.41 1268.68 1195.59 1288.88C1188.29 1302.52 1179.18 1324.08 1173.06 1340.06C1158.78 1321.21 1149.94 1312.4 1140.25 1302.91C1129.94 1292.81 1106.32 1274.34 1091 1279.25C1074.71 1284.47 1075.55 1330.67 1078.09 1361.78C1093.48 1384.26 1107.86 1407.51 1117.75 1427.44C1130.07 1452.28 1152.27 1508.38 1160.75 1535.53C1174.75 1580.36 1181.54 1655.92 1183.34 1671.56C1208.06 1666.57 1215.53 1667.38 1240 1667.34C1264.47 1667.38 1271.94 1666.57 1296.66 1671.56C1298.46 1655.92 1305.25 1580.36 1319.25 1535.53C1327.73 1508.38 1349.93 1452.28 1362.25 1427.44C1372.14 1407.51 1386.52 1384.26 1401.91 1361.78C1404.45 1330.67 1405.29 1284.47 1389 1279.25C1373.68 1274.34 1350.06 1292.81 1339.75 1302.91C1330.06 1312.4 1321.22 1321.21 1306.94 1340.06C1300.82 1324.08 1291.71 1302.52 1284.41 1288.88C1273.59 1268.68 1260.25 1239.8 1240 1240Z" fill="#fcdae6" fill-opacity="0.996078" fill-rule="nonzero" opacity="1" stroke="none"/>
</g>
<g id="レイヤー-1">
<g opacity="1">
<g opacity="1">
<path d="M1358.72 386.407C1346.35 385.007 1323.88 427.515 1317.15 442.692C1312.17 453.926 1305.67 467.898 1299.69 481.273C1292.23 469.627 1278.54 449.298 1271.16 439.937C1262.39 428.824 1233.21 399.478 1221.29 404.739C1208.01 410.6 1201.76 450.045 1200.08 465.58C1198.89 476.681 1197.42 489.943 1197.18 518.537C1181.88 506.836 1172.72 502.02 1159.58 494.832C1144.42 486.541 1112.82 474.717 1106.2 479.862C1094.44 488.996 1114.98 548.564 1120.3 562.872C1126.07 578.391 1129.26 582.556 1138.92 604.835C1119.07 595.154 1107.96 591.79 1089.68 588.104C1069.48 584.028 1040.04 583.656 1036.66 592.156C1032.84 601.765 1053.16 617.109 1081.19 648.675C1097.79 667.367 1109.52 685.771 1125.29 710.56C1110.69 698.795 1094.93 692.706 1086.11 689.336C1069.23 682.892 1053.23 679.294 1048.55 684.046C1041.13 691.573 1058.37 705.412 1065.32 712.999C1087.34 737.044 1109.22 770.098 1118.66 787.561C1136.14 819.87 1160.95 886.954 1169.51 932.393C1174.04 956.492 1179.5 1009.58 1180.21 1034.72C1181.38 1076.23 1169.06 1142.18 1166.84 1155.93C1189.08 1157.61 1195.24 1160.08 1216.08 1165.92C1236.91 1171.81 1243.46 1172.92 1263.3 1183.09C1268.59 1170.2 1292.48 1107.51 1315.14 1072.7C1328.86 1051.62 1361.2 1009.18 1377.64 990.986C1408.65 956.683 1464.81 912.395 1496.58 893.947C1513.75 883.977 1549.65 867.188 1580.98 858.162C1590.87 855.314 1612.79 852.5 1610.4 842.21C1608.88 835.714 1593.35 830.436 1575.59 827.13C1566.31 825.401 1549.68 822.373 1531.09 824.794C1557.47 811.872 1577.09 802.295 1601 795.006C1641.38 782.699 1666.72 780.207 1668.47 770.015C1670.02 761.001 1644.72 745.962 1625.35 738.899C1607.84 732.509 1596.6 729.58 1574.62 727.487C1594.48 713.519 1599.38 711.631 1612.39 701.401C1624.39 691.967 1672.99 651.861 1667.73 637.937C1664.76 630.092 1631.63 623.695 1614.38 622.861C1599.41 622.137 1589.09 621.469 1569.93 623.471C1584.64 598.948 1590.31 586.869 1595.08 576.774C1601.76 562.646 1617 525.732 1608.73 513.806C1601.31 503.1 1561.1 512.912 1547.82 517.821C1536.64 521.956 1514.36 532.158 1501.92 538.203C1503.79 523.671 1505.54 508.36 1507.15 496.178C1509.32 479.718 1512.33 431.731 1501.04 426.473C1500.26 426.108 1499.4 425.872 1498.46 425.746C1484.34 423.854 1453.56 447.422 1443.1 455.151C1428.22 466.151 1423.69 472.446 1407.12 487.285C1400.73 465.983 1400.15 458.25 1393.19 441.102C1388.3 429.053 1374.34 392.886 1361.3 387.134C1360.43 386.75 1359.58 386.505 1358.72 386.407Z" fill="#ff9fbe" fill-rule="nonzero" opacity="1" stroke="none"/>
<path d="M2063.55 1139.6C2061.07 1127.4 2013.7 1119.15 1997.19 1117.43C1984.96 1116.16 1969.67 1114.29 1955.1 1112.73C1963.88 1102.04 1978.99 1082.74 1985.61 1072.83C1993.48 1061.07 2012.38 1024.25 2003.7 1014.53C1994.03 1003.72 1954.58 1009.94 1939.29 1013.14C1928.36 1015.43 1915.29 1018.13 1888.02 1026.72C1894.42 1008.56 1896.18 998.364 1898.96 983.643C1902.17 966.666 1903.66 932.96 1896.72 928.249C1884.41 919.887 1834.09 957.806 1822.12 967.28C1809.14 977.555 1806.16 981.878 1787.95 997.943C1791.04 976.079 1790.8 964.468 1788.67 945.945C1786.31 925.469 1777.58 897.355 1768.45 896.763C1758.13 896.094 1749.81 920.155 1728.43 956.559C1715.78 978.117 1701.89 994.962 1683.18 1017.61C1689.87 1000.09 1690.79 983.221 1691.28 973.787C1692.2 955.748 1690.68 939.416 1684.72 936.43C1675.27 931.701 1667.42 952.367 1662.35 961.318C1646.28 989.685 1621.59 1020.69 1607.89 1035.07C1582.56 1061.66 1526.4 1105.97 1485.82 1128.13C1464.3 1139.89 1415.49 1161.46 1391.8 1169.89C1352.67 1183.82 1286.14 1192.45 1272.38 1194.59C1277.64 1216.26 1277.19 1222.89 1278.08 1244.51C1278.9 1266.13 1279.87 1272.71 1276.32 1294.72C1290.21 1295.77 1357.21 1299.14 1397.31 1309.96C1421.6 1316.5 1471.95 1334.17 1494.33 1344.19C1536.53 1363.1 1595.99 1402.85 1623.34 1427.37C1638.12 1440.62 1665.17 1469.6 1683.43 1496.61C1689.19 1505.14 1698.63 1525.12 1707.68 1519.66C1713.39 1516.22 1713.62 1499.82 1711.28 1481.91C1710.06 1472.54 1707.81 1455.79 1699.77 1438.85C1720.2 1459.96 1735.37 1475.66 1749.68 1496.16C1773.85 1530.77 1784.04 1554.1 1794.27 1552.62C1803.33 1551.32 1809.82 1522.6 1810.56 1502C1811.23 1483.37 1810.55 1471.78 1805.76 1450.22C1825.18 1464.81 1828.48 1468.88 1842.23 1478.11C1854.91 1486.61 1908.05 1520.46 1919.67 1511.15C1926.22 1505.91 1922.08 1472.42 1917.55 1455.75C1913.62 1441.3 1911.07 1431.27 1903.25 1413.67C1931.12 1420.09 1944.36 1421.75 1955.43 1423.17C1970.93 1425.16 2010.74 1428.27 2019.54 1416.72C2027.43 1406.36 2005.69 1371.14 1996.92 1360.03C1989.54 1350.67 1972.95 1332.62 1963.36 1322.66C1977.77 1319.95 1992.87 1316.89 2004.95 1314.66C2021.28 1311.65 2067.85 1299.69 2069.37 1287.34C2069.48 1286.48 2069.44 1285.6 2069.27 1284.66C2066.71 1270.64 2034.79 1248.64 2024.21 1241.08C2009.15 1230.32 2001.77 1227.95 1982.54 1216.77C2000.83 1204.12 2008.01 1201.18 2022.17 1189.27C2032.12 1180.9 2062.21 1156.45 2063.66 1142.28C2063.76 1141.33 2063.73 1140.44 2063.55 1139.6Z" fill="#ff9fbe" fill-rule="nonzero" opacity="1" stroke="none"/>
<path d="M531.562 1824.08C540.44 1832.81 584.334 1813.18 598.989 1805.38C609.836 1799.61 623.565 1792.61 636.521 1785.77C635.215 1799.53 633.466 1823.98 633.509 1835.9C633.56 1850.05 638.454 1891.15 651.083 1894.35C665.149 1897.92 694.386 1870.72 705.28 1859.51C713.065 1851.51 722.394 1841.97 740.21 1819.6C745.045 1838.25 749.287 1847.68 755.207 1861.45C762.033 1877.32 779.628 1906.11 788.015 1906.14C802.9 1906.19 823.444 1846.62 828.076 1832.08C833.1 1816.3 833.152 1811.05 839.278 1787.56C848.937 1807.41 855.617 1816.91 867.737 1831.08C881.136 1846.74 904.087 1865.18 911.987 1860.57C920.919 1855.36 914.378 1830.75 911.761 1788.62C910.212 1763.67 912.311 1741.94 915.173 1712.7C919.418 1730.96 928.078 1745.48 932.95 1753.57C942.266 1769.04 952.65 1781.74 959.264 1780.88C969.742 1779.53 964.699 1758 963.904 1747.75C961.384 1715.24 964.531 1675.73 967.857 1656.15C974.009 1619.94 995.819 1551.82 1017.09 1510.77C1028.37 1488.99 1056.79 1443.83 1071.73 1423.59C1096.39 1390.18 1146.75 1345.84 1156.97 1336.38C1140.49 1321.35 1137.16 1315.6 1124.35 1298.17C1111.58 1280.69 1107.11 1275.78 1097.75 1255.54C1085.64 1262.43 1028.19 1297.08 988.891 1310.52C965.094 1318.66 913.463 1332.15 889.302 1336.34C843.743 1344.24 772.219 1344.5 735.835 1339.44C716.17 1336.71 677.547 1327.8 647.312 1315.6C637.772 1311.75 618.773 1300.45 614.319 1310.03C611.508 1316.08 620.484 1329.81 632.43 1343.36C638.677 1350.44 649.902 1363.07 666.035 1372.63C637.294 1366.54 615.944 1361.99 592.622 1352.99C553.238 1337.8 531.749 1324.14 524.087 1331.09C517.31 1337.23 527.969 1364.67 538.864 1382.17C548.718 1397.99 555.763 1407.23 571.782 1422.42C547.531 1421.18 542.51 1419.65 525.955 1419.68C510.691 1419.71 447.703 1421.34 443.266 1435.55C440.766 1443.56 462.91 1469.01 475.984 1480.31C487.321 1490.1 495.04 1496.99 511.358 1507.22C484.661 1517.46 472.752 1523.48 462.774 1528.49C448.809 1535.5 414.054 1555.18 413.214 1569.66C412.461 1582.67 450.172 1599.73 463.65 1604.04C475.003 1607.68 498.84 1613.38 512.36 1616.29C501.928 1626.58 491.118 1637.56 482.341 1646.16C470.483 1657.78 438.539 1693.71 444.183 1704.81C444.574 1705.58 445.104 1706.29 445.767 1706.97C455.721 1717.17 494.49 1717.58 507.487 1717.94C525.987 1718.45 533.433 1716.29 555.624 1714.81C547.528 1735.53 543.218 1741.97 538.127 1759.76C534.551 1772.27 523.259 1809.36 529.978 1821.92C530.426 1822.76 530.947 1823.48 531.562 1824.08Z" fill="#ff9fbe" fill-rule="nonzero" opacity="1" stroke="none"/>
<path d="M440.438 797.101C434.886 808.243 467.126 843.913 479.079 855.436C487.927 863.964 498.827 874.856 509.344 885.059C495.848 888.075 472.059 893.975 460.736 897.704C447.294 902.13 409.726 919.498 410.586 932.498C411.545 946.978 446.461 966.364 460.483 973.259C470.502 978.186 482.46 984.106 509.241 994.13C493.008 1004.49 485.347 1011.45 474.091 1021.33C461.11 1032.74 439.177 1058.37 441.743 1066.36C446.297 1080.53 509.296 1081.64 524.56 1081.54C541.115 1081.44 546.123 1079.87 570.363 1078.42C554.47 1093.75 547.502 1103.04 537.778 1118.95C527.028 1136.54 516.596 1164.07 523.423 1170.15C531.142 1177.04 552.518 1163.2 591.775 1147.68C615.022 1138.49 636.333 1133.76 665.024 1127.44C648.97 1137.13 637.85 1149.85 631.661 1156.99C619.827 1170.63 610.965 1184.44 613.826 1190.46C618.358 1200.01 637.264 1188.55 646.772 1184.62C676.905 1172.17 715.453 1162.94 735.095 1160.05C771.436 1154.7 842.96 1154.36 888.582 1161.89C912.778 1165.88 964.517 1178.94 988.381 1186.88C1027.79 1200 1085.53 1234.17 1097.69 1240.96C1106.88 1220.64 1111.31 1215.7 1123.93 1198.12C1136.6 1180.58 1139.89 1174.8 1156.24 1159.64C1145.94 1150.26 1095.22 1106.34 1070.28 1073.13C1055.18 1053.02 1026.38 1008.09 1014.93 986.411C993.318 945.532 970.947 877.596 964.496 841.434C961.009 821.889 957.536 782.404 959.788 749.876C960.498 739.613 965.364 718.051 954.875 716.78C948.253 715.977 937.975 728.76 928.787 744.311C923.981 752.444 915.442 767.025 911.348 785.323C908.245 756.108 905.966 734.398 907.309 709.436C909.578 667.283 915.916 642.624 906.941 637.486C899.003 632.942 876.206 651.567 862.937 667.34C850.934 681.607 844.333 691.163 834.837 711.097C828.518 687.65 828.422 682.402 823.269 666.67C818.517 652.164 797.482 592.769 782.598 592.945C774.212 593.044 756.854 621.977 750.16 637.904C744.354 651.714 740.19 661.185 735.509 679.867C717.508 657.649 708.101 648.186 700.251 640.247C689.264 629.136 659.804 602.171 645.768 605.855C633.166 609.162 628.611 650.3 628.677 664.451C628.732 676.372 630.683 700.805 632.102 714.56C619.091 707.823 605.304 700.94 594.409 695.254C579.691 687.573 535.636 668.311 526.831 677.111C526.22 677.721 525.706 678.445 525.265 679.287C518.65 691.905 530.247 728.901 533.926 741.373C539.164 759.123 543.526 765.533 551.794 786.18C529.591 784.889 522.127 782.785 503.633 783.448C490.638 783.914 451.874 784.65 442.005 794.926C441.347 795.611 440.823 796.329 440.438 797.101Z" fill="#ff9fbe" fill-rule="nonzero" opacity="1" stroke="none"/>
<path d="M1564.97 2042.34C1575.8 2036.21 1569.02 1988.61 1565.55 1972.37C1562.98 1960.36 1560.03 1945.23 1557.02 1930.89C1569.89 1935.94 1592.91 1944.35 1604.39 1947.58C1618.01 1951.43 1658.86 1958.03 1665.42 1946.78C1672.72 1934.23 1654.61 1898.64 1646.84 1885.08C1641.29 1875.4 1634.68 1863.8 1618.08 1840.52C1637.34 1841 1647.58 1839.52 1662.43 1837.62C1679.57 1835.42 1712.09 1826.43 1714.43 1818.37C1718.57 1804.08 1666.96 1767.93 1654.25 1759.48C1640.47 1750.31 1635.44 1748.81 1614.53 1736.46C1636.28 1732.63 1647.25 1728.83 1664.21 1721.07C1682.95 1712.5 1706.99 1695.51 1704.74 1686.65C1702.18 1676.63 1676.73 1676.14 1635.5 1667.06C1611.09 1661.69 1590.78 1653.69 1563.45 1642.89C1582.18 1643.84 1598.51 1639.51 1607.64 1637.05C1625.08 1632.35 1640.14 1625.86 1641.14 1619.27C1642.71 1608.82 1620.64 1607.75 1610.56 1605.69C1578.61 1599.16 1541.49 1585.27 1523.59 1576.68C1490.46 1560.8 1430.98 1521.09 1397.36 1489.34C1379.53 1472.51 1343.93 1432.75 1328.59 1412.82C1303.25 1379.91 1274.48 1319.3 1268.2 1306.88C1249.22 1318.58 1242.78 1320.2 1222.48 1327.72C1202.17 1335.18 1196.22 1338.14 1174.19 1341.57C1177.48 1355.1 1194.98 1419.87 1197.08 1461.35C1198.36 1486.46 1197.12 1539.81 1194.5 1564.19C1189.56 1610.17 1170.13 1679 1155.26 1712.59C1147.22 1730.75 1128.02 1765.43 1107.97 1791.13C1101.64 1799.25 1085.55 1814.4 1093.54 1821.32C1098.58 1825.69 1114.25 1820.84 1130.56 1813.08C1139.09 1809.02 1154.33 1801.71 1167.95 1788.83C1154.19 1814.79 1143.94 1834.06 1128.87 1854C1103.42 1887.69 1084.38 1904.59 1088.95 1913.86C1092.99 1922.07 1122.31 1919.37 1142.13 1913.71C1160.05 1908.6 1170.87 1904.36 1189.89 1893.15C1182.02 1916.12 1179.16 1920.52 1174.64 1936.45C1170.47 1951.13 1154.7 2012.14 1167.14 2020.31C1174.15 2024.92 1204.72 2010.64 1219.17 2001.17C1231.71 1992.97 1240.45 1987.44 1254.78 1974.57C1257.28 2003.06 1259.79 2016.16 1261.86 2027.13C1264.76 2042.49 1274.11 2081.32 1287.81 2086.11C1300.1 2090.41 1326.88 2058.85 1334.74 2047.08C1341.36 2037.17 1353.4 2015.82 1359.91 2003.62C1366.93 2016.48 1374.52 2029.9 1380.37 2040.7C1388.28 2055.3 1414.04 2095.9 1426.26 2093.53C1427.1 2093.36 1427.94 2093.05 1428.77 2092.6C1441.31 2085.83 1452.38 2048.68 1456.3 2036.28C1461.88 2018.63 1461.85 2010.88 1466.54 1989.14C1484.23 2002.62 1489.24 2008.54 1504.94 2018.33C1515.98 2025.21 1548.53 2046.27 1562.45 2043.27C1563.38 2043.07 1564.22 2042.77 1564.97 2042.34Z" fill="#ff9fbe" fill-rule="nonzero" opacity="1" stroke="none"/>
</g>
<g opacity="1">
<path d="M1318.49 802.127C1301.3 797.103 1283.03 818.489 1268.98 833.092C1259.49 842.956 1246.57 859.128 1237.53 871.268C1229.89 851.799 1224.48 842.178 1218.5 831.774C1212.15 820.711 1196.47 799.325 1182.25 799.833C1167.13 800.374 1156.77 839.9 1151.48 866.998C1159.19 889.823 1165.86 913.057 1169.51 932.393C1174.04 956.492 1179.5 1009.58 1180.21 1034.72C1181.38 1076.23 1169.06 1142.18 1166.84 1155.93C1189.08 1157.61 1195.24 1160.08 1216.08 1165.92C1236.91 1171.81 1243.46 1172.92 1263.3 1183.09C1268.59 1170.2 1292.48 1107.51 1315.14 1072.7C1328.86 1051.62 1361.2 1009.18 1377.64 990.986C1390.84 976.389 1408.65 960.047 1427.14 944.597C1436.76 918.72 1448.54 879.596 1435.93 871.247C1424.06 863.393 1399.53 873.459 1388.33 879.583C1377.81 885.342 1368.17 890.726 1351.5 903.35C1350.12 888.278 1347.53 867.742 1344.58 854.375C1340.21 834.587 1335.78 806.809 1318.49 802.127Z" fill="#ffc7db" fill-opacity="0.996078" fill-rule="nonzero" opacity="1" stroke="none"/>
<path d="M1655.71 1229.64C1655.19 1211.74 1629.21 1200.96 1610.98 1192.1C1598.67 1186.12 1579.3 1178.82 1564.96 1173.97C1581.12 1160.7 1588.6 1152.58 1596.65 1143.68C1605.22 1134.22 1620.72 1112.71 1615.84 1099.34C1610.66 1085.12 1569.87 1087.47 1542.46 1090.8C1523.13 1105.18 1503.09 1118.7 1485.82 1128.13C1464.3 1139.89 1415.49 1161.46 1391.8 1169.89C1352.67 1183.82 1286.14 1192.45 1272.38 1194.59C1277.64 1216.26 1277.19 1222.89 1278.08 1244.51C1278.9 1266.13 1279.87 1272.71 1276.32 1294.72C1290.21 1295.77 1357.21 1299.14 1397.31 1309.96C1421.6 1316.5 1471.95 1334.17 1494.33 1344.19C1512.29 1352.24 1533.33 1364.14 1553.73 1376.95C1581.31 1378.12 1622.17 1377.25 1626.21 1362.68C1630.02 1348.96 1612.87 1328.73 1603.59 1319.98C1594.87 1311.74 1586.77 1304.24 1569.62 1292.27C1583.53 1286.31 1602.27 1277.52 1614.07 1270.58C1631.54 1260.32 1656.6 1247.53 1655.71 1229.64Z" fill="#ffc7db" fill-opacity="0.996078" fill-rule="nonzero" opacity="1" stroke="none"/>
<path d="M1353.31 1682.28C1370.18 1676.25 1372.4 1648.21 1375.19 1628.14C1377.08 1614.58 1378.04 1593.9 1378.22 1578.77C1395.84 1590.04 1405.87 1594.64 1416.82 1599.55C1428.46 1604.77 1453.71 1612.87 1464.92 1604.1C1476.84 1594.78 1462 1556.71 1450.36 1531.68C1430.71 1517.74 1411.67 1502.85 1397.36 1489.34C1379.53 1472.51 1343.93 1432.75 1328.59 1412.82C1303.25 1379.91 1274.48 1319.3 1268.2 1306.88C1249.22 1318.58 1242.78 1320.2 1222.48 1327.72C1202.17 1335.18 1196.22 1338.14 1174.19 1341.57C1177.48 1355.1 1194.98 1419.87 1197.08 1461.35C1198.36 1486.46 1197.12 1539.81 1194.5 1564.19C1192.4 1583.76 1187.58 1607.45 1181.7 1630.81C1189.11 1657.41 1202.56 1695.99 1217.67 1695.33C1231.89 1694.72 1245.83 1672.16 1251.29 1660.63C1256.43 1649.79 1261.06 1639.77 1267.14 1619.76C1277.11 1631.14 1291.27 1646.24 1301.51 1655.33C1316.67 1668.77 1336.57 1688.65 1353.31 1682.28Z" fill="#ffc7db" fill-opacity="0.996078" fill-rule="nonzero" opacity="1" stroke="none"/>
<path d="M819.475 1521.51C829.916 1536.07 857.486 1530.49 877.552 1527.65C891.105 1525.73 911.246 1520.96 925.845 1516.97C919.861 1537.01 918.194 1547.92 916.487 1559.8C914.672 1572.43 913.837 1598.93 925.35 1607.3C937.59 1616.19 970.108 1591.45 990.974 1573.37C998.97 1550.65 1008.04 1528.24 1017.09 1510.77C1028.37 1488.99 1056.79 1443.83 1071.73 1423.59C1096.39 1390.18 1146.75 1345.84 1156.97 1336.38C1140.49 1321.35 1137.16 1315.6 1124.35 1298.17C1111.58 1280.69 1107.11 1275.78 1097.75 1255.54C1085.64 1262.43 1028.19 1297.08 988.891 1310.52C965.094 1318.66 913.463 1332.15 889.302 1336.34C869.915 1339.7 845.815 1341.59 821.736 1342.36C798.207 1356.8 764.813 1380.35 769.602 1394.7C774.108 1408.2 799.631 1415.4 812.219 1417.47C824.057 1419.43 834.965 1421.13 855.876 1421.46C847.671 1434.18 837.049 1451.95 831.134 1464.29C822.379 1482.57 808.747 1507.17 819.475 1521.51Z" fill="#ffc7db" fill-opacity="0.996078" fill-rule="nonzero" opacity="1" stroke="none"/>
<path d="M817.23 977.294C806.621 991.724 820.455 1016.22 829.361 1034.42C835.377 1046.72 846.146 1064.39 854.455 1077.04C833.548 1077.55 822.655 1079.34 810.833 1081.39C798.262 1083.57 772.799 1090.98 768.405 1104.51C763.735 1118.9 797.322 1142.17 820.969 1156.42C845.054 1157 869.168 1158.69 888.582 1161.89C912.777 1165.88 964.517 1178.94 988.381 1186.88C1027.79 1200 1085.53 1234.17 1097.69 1240.96C1106.88 1220.64 1111.31 1215.7 1123.93 1198.12C1136.6 1180.58 1139.89 1174.8 1156.24 1159.64C1145.94 1150.26 1095.22 1106.34 1070.28 1073.13C1055.18 1053.02 1026.38 1008.09 1014.93 986.411C1005.73 969.016 996.479 946.683 988.296 924.023C967.281 906.117 934.56 881.645 922.394 890.639C910.95 899.099 912.003 925.596 913.923 938.209C915.728 950.071 917.485 960.97 923.634 980.959C909.003 977.09 888.823 972.484 875.254 970.679C855.166 968.006 827.55 962.655 817.23 977.294Z" fill="#ffc7db" fill-opacity="0.996078" fill-rule="nonzero" opacity="1" stroke="none"/>
<path d="M1082.58 1216.77C1099.75 1155.78 1163.11 1120.26 1224.1 1137.43C1285.09 1154.59 1320.62 1217.96 1303.45 1278.95C1286.28 1339.94 1222.92 1375.46 1161.93 1358.29C1100.94 1341.12 1065.41 1277.76 1082.58 1216.77Z" fill="#ffc7db" fill-opacity="0.996078" fill-rule="nonzero" opacity="1" stroke="none"/>
</g>
</g>
</g>
</svg>
